<?xml version="1.0" encoding="utf-8"?>
<!-- Generator: Adobe Illustrator 27.5.0, SVG Export Plug-In . SVG Version: 6.00 Build 0)  -->
<svg version="1.1" xmlns="http://www.w3.org/2000/svg" xmlns:xlink="http://www.w3.org/1999/xlink" x="0px" y="0px"
	 viewBox="0 0 500 500" style="enable-background:new 0 0 500 500;" xml:space="preserve">
<g id="BACKGROUND">
	<rect style="fill:#FFFFFF;" width="500" height="500"/>
	<path style="fill:#D4E9FA;" d="M104.445,382.487h350.294c1.365-4.616,2.619-9.266,3.731-13.953
		c2.926-12.336,4.973-25.186,2.847-37.692c-2.176-12.798-8.601-24.522-10.879-37.301c-4.663-26.15,8.231-54.865-3.001-78.852
		c-10.529-22.486-38.047-30.801-62.492-30.976c-24.445-0.175-49.264,5.232-73.103-0.282c-24.241-5.607-44.554-21.818-66.55-33.621
		c-21.995-11.803-49.607-19.038-71.083-6.281c-18.829,11.185-27.312,34.347-43.535,49.179c-21.413,19.579-55.36,23.902-70.82,48.628
		c-7.751,12.397-9.227,27.872-8.156,42.532C54.51,322.353,74.489,359.013,104.445,382.487z"/>
</g>
<g id="OBJECTS">
	<g>
		<g>
			<g>
				<path style="fill:#6376BF;" d="M71.502,324.311c0.785-1.134,1.847-2.268,1.762-3.644c-0.051-0.818-0.512-1.546-0.958-2.234
					c-3.056-4.71-6.156-9.659-6.805-15.235c-0.65-5.577,1.927-11.95,7.222-13.814c-2.033-6.885-2.449-14.333-0.647-21.282
					c0.403-1.555,0.952-3.166,2.164-4.22c0.547-0.476,1.181-0.782,1.857-0.95c0.006-0.003,0.013-0.004,0.019-0.007
					c0.007-0.002,0.013-0.005,0.02-0.007c0.634-0.288,1.322-0.441,2.046-0.406c1.604,0.076,3.035,0.999,4.315,1.969
					c5.723,4.334,10.016,10.435,12.69,17.097c5.311-1.822,11.284,1.58,14.232,6.358c2.949,4.778,3.586,10.582,4.109,16.172
					c0.076,0.816,0.166,1.673,0.634,2.347c0.786,1.133,2.323,1.363,3.642,1.766c5.552,1.697,8.686,7.638,9.889,13.317
					c1.987,9.383,0.228,19.505-4.809,27.667c-2.875,4.659-8.382,7.032-13.867,8.394c-5.148,2.334-10.939,3.887-16.084,2.015
					c-9.013-3.279-16.67-10.129-20.93-18.723C69.425,335.69,68.199,329.086,71.502,324.311z"/>
				<path style="opacity:0.5;fill:#6376BF;" d="M76.703,265.627c0.258-0.093,0.547,0.036,0.642,0.297l11.139,30.293
					c1.207-5.452,8.818-10.418,9.207-10.668c0.229-0.149,0.539-0.082,0.691,0.151c0.149,0.232,0.082,0.541-0.151,0.691
					c-0.108,0.069-10.777,7.024-8.625,12.876c0,0.001,0,0.001,0,0.002l9.162,24.915c1.763-7.258,12.535-9.768,13.034-9.88
					c0.273-0.062,0.538,0.109,0.598,0.378c0.061,0.27-0.108,0.537-0.378,0.598c-0.126,0.028-12.493,2.901-12.5,10.956l10.177,27.677
					c0.095,0.259-0.037,0.546-0.297,0.642c-0.09,0.033-0.184,0.038-0.272,0.02c-0.164-0.033-0.308-0.148-0.37-0.318l-2.911-7.917
					c0,0,0,0,0,0c-2.778-7.555-20.317-10.609-20.494-10.635c-0.006-0.001-0.012-0.002-0.016-0.003
					c-0.263-0.054-0.439-0.307-0.394-0.573c0.047-0.273,0.304-0.455,0.577-0.41c0.629,0.108,13.251,2.304,18.946,7.866
					l-5.918-16.093c0,0,0,0,0,0l-7.578-20.609v0c-2.374-6.455-14.211-8.46-14.334-8.477c-0.287-0.043-0.458-0.301-0.413-0.574
					c0.044-0.272,0.301-0.457,0.574-0.413c0.412,0.073,8.391,1.417,12.772,5.654l-13.166-35.803
					C76.312,266.009,76.444,265.723,76.703,265.627z"/>
			</g>
			<g>
				<path style="fill:#B4CBDD;" d="M119.269,376.603c0,0-27.481-66.621-62.335-80.199c-3.066-1.194-6.307,1.348-5.909,4.614
					C53.202,318.898,64.185,368.182,119.269,376.603z"/>
				<path style="opacity:0.5;fill:#B4CBDD;" d="M61.11,325.944c-0.256-0.105-0.379-0.396-0.274-0.652
					c0.104-0.255,0.395-0.378,0.652-0.274l18.593,7.59l-24.586-30.641c-0.173-0.215-0.139-0.53,0.076-0.703
					c0.219-0.172,0.531-0.138,0.703,0.077l16.882,21.039l0.055-12.333c0-0.277,0.227-0.502,0.502-0.498
					c0.276,0.001,0.499,0.226,0.498,0.502l-0.061,13.568l17.707,22.067l-0.059-13.02c-0.002-0.276,0.223-0.502,0.498-0.502
					c0.276-0.002,0.501,0.221,0.502,0.498l0.065,14.277l12.806,15.959l0.619-9.135c0.018-0.278,0.26-0.483,0.532-0.465
					c0.275,0.018,0.484,0.257,0.465,0.532l-0.684,10.086c-0.002,0.037-0.026,0.065-0.035,0.099l5.463,6.809
					c0.173,0.215,0.139,0.53-0.076,0.703c-0.035,0.028-0.073,0.051-0.113,0.069c-0.202,0.088-0.446,0.035-0.59-0.145l-12.287-15.313
					l-18.795-3.234c-0.272-0.047-0.455-0.306-0.408-0.578c0.048-0.273,0.306-0.456,0.578-0.408l17.68,3.042l-16.646-20.746
					L61.11,325.944z"/>
			</g>
			<g>
				<path style="fill:#B4CBDD;" d="M119.608,375.719c0,0-50.606-51.309-88.007-50.719c-3.29,0.052-5.331,3.63-3.729,6.504
					C36.641,347.239,65.423,388.725,119.608,375.719z"/>
				<path style="opacity:0.5;fill:#B4CBDD;" d="M46.624,350.776c-0.276,0-0.5-0.224-0.5-0.5c0-0.276,0.223-0.5,0.5-0.5l20.082,0.007
					l-34.337-19.086c-0.241-0.134-0.329-0.438-0.195-0.68c0.138-0.242,0.439-0.329,0.68-0.194l23.577,13.105l-4.607-11.441
					c-0.104-0.257,0.021-0.551,0.277-0.65c0.256-0.104,0.548,0.02,0.65,0.277l5.068,12.586l24.729,13.746l-4.972-12.033
					c-0.106-0.255,0.017-0.549,0.271-0.653c0.255-0.106,0.547,0.016,0.653,0.271l5.452,13.196l17.884,9.941l-2.877-8.692
					c-0.088-0.264,0.058-0.546,0.317-0.632c0.262-0.087,0.546,0.055,0.632,0.317l3.176,9.598c0.012,0.035,0.001,0.07,0.005,0.105
					l7.63,4.241c0.242,0.134,0.329,0.438,0.195,0.68c-0.022,0.04-0.049,0.075-0.079,0.106c-0.154,0.158-0.4,0.201-0.601,0.089
					l-17.161-9.539l-18.625,4.104c-0.27,0.059-0.537-0.112-0.597-0.381c-0.058-0.271,0.111-0.537,0.381-0.596l17.519-3.861
					l-23.249-12.923L46.624,350.776z"/>
			</g>
		</g>
		<g>
			<g>
				<path style="fill:#B4CBDD;" d="M423.382,357.361c0,0-1.509-72.05,24.986-98.455c2.331-2.322,6.319-1.291,7.263,1.86
					C460.799,278.023,470.48,327.579,423.382,357.361z"/>
				<path style="opacity:0.5;fill:#B4CBDD;" d="M456.376,287.646c0.192-0.198,0.188-0.515-0.01-0.707
					c-0.197-0.192-0.514-0.189-0.707,0.01l-13.995,14.403l10.253-37.924c0.072-0.267-0.085-0.541-0.352-0.613
					c-0.27-0.069-0.542,0.086-0.613,0.353l-7.04,26.04l-4.991-11.278c-0.111-0.253-0.409-0.369-0.659-0.255
					c-0.253,0.111-0.367,0.407-0.255,0.659l5.491,12.407l-7.384,27.312l-5.162-11.953c-0.108-0.254-0.405-0.371-0.657-0.261
					c-0.254,0.109-0.37,0.403-0.261,0.657l5.66,13.108l-5.34,19.752l-4.227-8.122c-0.128-0.247-0.432-0.339-0.674-0.213
					c-0.245,0.127-0.341,0.43-0.213,0.674l4.667,8.968c0.017,0.033,0.049,0.049,0.072,0.077l-2.278,8.427
					c-0.072,0.267,0.085,0.541,0.352,0.613c0.044,0.012,0.088,0.018,0.131,0.018c0.221,0,0.423-0.146,0.482-0.369l5.124-18.953
					l15.926-10.492c0.23-0.152,0.294-0.463,0.143-0.693c-0.153-0.231-0.463-0.295-0.693-0.143l-14.981,9.87l6.942-25.677
					L456.376,287.646z"/>
			</g>
			<g>
				<path style="fill:#6376BF;" d="M461.843,352.645c-0.543-1.268-1.358-2.591-1-3.922c0.213-0.792,0.81-1.413,1.384-1.998
					c3.934-4.006,7.958-8.237,9.707-13.573c1.749-5.335,0.495-12.094-4.323-14.977c3.365-6.341,5.258-13.557,4.878-20.725
					c-0.085-1.604-0.302-3.293-1.279-4.567c-0.441-0.575-1.002-1.002-1.63-1.301c-0.006-0.004-0.012-0.007-0.018-0.011
					c-0.006-0.003-0.012-0.007-0.018-0.01c-0.564-0.408-1.207-0.695-1.924-0.806c-1.587-0.246-3.173,0.374-4.621,1.069
					c-6.472,3.105-11.895,8.229-15.844,14.223c-4.841-2.844-11.372-0.702-15.214,3.392c-3.842,4.094-5.624,9.655-7.252,15.028
					c-0.238,0.785-0.496,1.606-1.089,2.173c-0.996,0.953-2.548,0.873-3.921,1.005c-5.778,0.556-10.034,5.753-12.346,11.078
					c-3.818,8.798-4.113,19.068-0.805,28.07c1.888,5.139,6.811,8.562,11.915,10.99c4.579,3.313,9.944,5.99,15.359,5.182
					c9.486-1.416,18.355-6.602,24.243-14.173C461.61,364.209,464.127,357.982,461.843,352.645z"/>
				<path style="opacity:0.5;fill:#6376BF;" d="M468.447,294.102c-0.234-0.143-0.543-0.073-0.689,0.163l-16.956,27.464
					c-0.096-5.583-6.563-11.967-6.895-12.29c-0.195-0.191-0.512-0.188-0.707,0.01c-0.192,0.197-0.189,0.514,0.01,0.707
					c0.092,0.089,9.16,9.032,5.885,14.337c0,0.001,0,0.001-0.001,0.002l-13.946,22.588c-0.28-7.463-10.336-12.071-10.802-12.28
					c-0.255-0.115-0.549-0.001-0.661,0.251c-0.113,0.252-0.001,0.548,0.251,0.661c0.118,0.053,11.664,5.334,10.064,13.229
					l-15.492,25.092c-0.145,0.235-0.072,0.543,0.163,0.689c0.082,0.05,0.173,0.074,0.263,0.074c0.167,0,0.331-0.084,0.426-0.237
					l4.431-7.177c0,0,0,0,0,0c4.229-6.85,22.024-6.345,22.203-6.335c0.006,0,0.012,0,0.017,0c0.268,0,0.491-0.213,0.5-0.483
					c0.009-0.276-0.207-0.507-0.483-0.517c-0.638-0.02-13.444-0.385-20.134,3.93l9.008-14.59c0,0,0,0,0,0l11.535-18.684l0,0
					c3.613-5.853,15.612-5.456,15.736-5.448c0.29,0.015,0.509-0.204,0.519-0.48c0.011-0.275-0.204-0.508-0.48-0.52
					c-0.418-0.011-8.505-0.284-13.643,2.994l20.04-32.459C468.755,294.555,468.683,294.247,468.447,294.102z"/>
			</g>
		</g>
	</g>
	<path style="fill:#F05956;" d="M119.06,127.876c-7.176,0-12.993,5.817-12.993,12.993c0,7.176,5.817,26.597,12.993,26.597
		c7.176,0,12.993-19.421,12.993-26.597C132.053,133.693,126.236,127.876,119.06,127.876z M119.06,147.368
		c-3.589,0-6.499-2.91-6.499-6.499s2.91-6.499,6.499-6.499c3.589,0,6.499,2.91,6.499,6.499S122.65,147.368,119.06,147.368z"/>
	<g>
		<rect x="96.791" y="180.937" style="fill:#FFFFFF;" width="333.703" height="202.103"/>
		<g>
			<g>
				<rect x="112.287" y="316.087" style="fill:#B4CBDD;" width="192.537" height="48.69"/>
				<g>
					<path style="fill:#FFFFFF;" d="M221.443,358.518h-33.486c-0.836,0-1.513-0.677-1.513-1.513v-20.354h36.512v20.354
						C222.956,357.841,222.279,358.518,221.443,358.518z"/>
					<g>
						<path style="fill:#FFFFFF;" d="M221.531,328.225l-34.603,8.848c-0.213,0.054-0.43-0.074-0.484-0.287l-0.973-3.806
							c-0.054-0.213,0.074-0.43,0.287-0.484l34.603-8.848c0.213-0.054,0.43,0.074,0.484,0.287l0.973,3.806
							C221.873,327.954,221.744,328.171,221.531,328.225z"/>
						<g>
							<polygon style="fill:#B4CBDD;" points="192.212,335.722 189.743,336.353 190.964,331.165 193.432,330.534 							"/>
							<polygon style="fill:#B4CBDD;" points="200.218,333.675 197.75,334.306 198.971,329.118 201.439,328.487 							"/>
							<polygon style="fill:#B4CBDD;" points="208.225,331.628 205.757,332.259 206.977,327.07 209.445,326.439 							"/>
							<polygon style="fill:#B4CBDD;" points="216.231,329.58 213.763,330.211 214.984,325.023 217.452,324.392 							"/>
						</g>
					</g>
				</g>
			</g>
			<g>
				<rect x="112.287" y="199.2" style="fill:#B4CBDD;" width="75.147" height="48.69"/>
				<g>
					<polygon style="fill:#FFFFFF;" points="134.629,221.53 149.505,208.669 164.618,221.53 151.785,235.161 148.179,235.161 					
						"/>
					<polygon style="fill:#FFFFFF;stroke:#B4CBDD;stroke-width:1.2737;stroke-miterlimit:10;" points="134.629,221.53 
						134.629,238.42 144.586,230.597 					"/>
					<polygon style="fill:#FFFFFF;stroke:#B4CBDD;stroke-width:1.2737;stroke-miterlimit:10;" points="164.618,221.53 
						164.618,238.42 154.661,230.597 					"/>
					<polygon style="fill:#FFFFFF;stroke:#B4CBDD;stroke-width:1.2737;stroke-miterlimit:10;" points="134.629,238.42 
						144.586,230.597 154.543,230.597 164.381,238.42 					"/>
				</g>
			</g>
			<g>
				<rect x="365.471" y="257.643" style="fill:#B4CBDD;" width="49.526" height="48.69"/>
				<path style="fill:#FFFFFF;" d="M377.761,272.491c0,0-0.211-4.968,2.643-5.602c0.634-0.141,1.342-0.063,2.058,0.144
					c4.115,1.189,6.288,5.785,4.825,9.811c-0.411,1.131-1.089,2.142-2.18,2.782c0,0,4.334,7.135,10.623,8.562l1.006-1.292
					c1.904-2.443,5.095-3.623,8.074-2.777c0.953,0.271,1.707,0.686,1.913,1.32c0.687,2.114,2.167,6.871-1.004,8.351
					c-3.171,1.48-13.794,1.374-21.035-6.501C377.443,279.415,377.761,272.491,377.761,272.491z"/>
			</g>
			<g>
				<rect x="194.652" y="257.643" style="fill:#F05956;" width="162.075" height="48.69"/>
				
					<text transform="matrix(1 0 0 1 199.8898 288.3586)" style="fill:#FFFFFF; font-family:'Montserrat-Black'; font-size:21.733px;">CONTACT US</text>
			</g>
			<g>
				<rect x="112.287" y="257.643" style="fill:#FCC574;" width="75.147" height="48.69"/>
				<g>
					
						<ellipse transform="matrix(0.9229 -0.385 0.385 0.9229 -95.3108 79.0929)" style="fill:#FFFFFF;" cx="149.861" cy="277.563" rx="9.901" ry="9.901"/>
					<path style="fill:#FFFFFF;" d="M164.371,299.185c-2.162-5.93-7.833-10.171-14.51-10.171c-6.677,0-12.349,4.242-14.511,10.171
						H164.371z"/>
				</g>
			</g>
			<g>
				<rect x="194.652" y="199.2" style="fill:#FCC574;" width="220.346" height="48.69"/>
				<g>
					<g>
						<circle style="fill:none;stroke:#FFFFFF;stroke-width:1.2737;stroke-miterlimit:10;" cx="233.074" cy="223.545" r="15.303"/>
						<path style="fill:#FFFFFF;" d="M240.255,222.689l-9.904-5.718c-0.659-0.38-1.482,0.095-1.482,0.856v11.436
							c0,0.761,0.824,1.236,1.482,0.856l9.904-5.718C240.914,224.02,240.914,223.069,240.255,222.689z"/>
					</g>
					<g>
						<rect x="261.838" y="212.341" style="fill:#FFFFFF;" width="53.707" height="2.423"/>
						<rect x="261.838" y="219.003" style="fill:#FFFFFF;" width="143.288" height="2.423"/>
						<rect x="261.838" y="225.664" style="fill:#FFFFFF;" width="143.288" height="2.423"/>
						<rect x="261.838" y="232.326" style="fill:#FFFFFF;" width="26.853" height="2.423"/>
					</g>
				</g>
			</g>
			<g>
				<rect x="313.74" y="316.087" style="fill:#FCC574;" width="101.257" height="48.69"/>
				<g>
					<path style="fill:#FFFFFF;" d="M346.219,340.432c0,2.858-2.317,5.174-5.174,5.174s-5.174-2.317-5.174-5.174
						c0-2.858,2.317-5.174,5.174-5.174S346.219,337.575,346.219,340.432z"/>
					<path style="fill:#FFFFFF;" d="M369.543,340.432c0,2.858-2.317,5.174-5.174,5.174s-5.174-2.317-5.174-5.174
						c0-2.858,2.317-5.174,5.174-5.174S369.543,337.575,369.543,340.432z"/>
					<path style="fill:#FFFFFF;" d="M392.867,340.432c0,2.858-2.317,5.174-5.174,5.174s-5.174-2.317-5.174-5.174
						c0-2.858,2.317-5.174,5.174-5.174S392.867,337.575,392.867,340.432z"/>
				</g>
			</g>
		</g>
	</g>
	<g>
		<g>
			<g>
				<g>
					<path style="fill:#FFC68A;" d="M358.593,217.709c0.749,0.951,1.463,1.901,2.193,2.811l-8.613,7.452l-4.633-4.787
						c0,0,3.347-3.818,8.109-9.062C356.648,215.302,357.635,216.493,358.593,217.709z"/>
					<path style="fill:#F05956;" d="M358.893,237.119c0.116,0.096,0.294,0.101,0.397-0.008c0.504-0.526,0.645-1.36,0.465-2.078
						c-0.201-0.804-0.733-1.485-1.316-2.076c-0.582-0.59-1.23-1.12-1.749-1.767c-0.878-1.094-1.337-2.457-1.779-3.788
						c-0.133-0.4-0.366-0.808-0.532-1.211c-0.063-0.153-0.157-0.297-0.3-0.382c-0.723-0.425-1.686-0.367-2.441-0.769
						c-0.729-0.389-1.167-1.148-1.602-1.851c-0.33-0.533-0.727-1.093-1.245-1.438c-0.282-0.188-0.662-0.167-0.928,0.043
						c-1.112,0.878-2.28,2.166-2.985,3.43c-0.071,0.128-0.036,0.287,0.077,0.381L358.893,237.119z"/>
				</g>
				<g>
					<path style="fill:#143C4A;" d="M386.515,197.177c-1.88,4.5-29.47,27.74-29.47,27.74l-4.14-4.01l-0.72-0.7l-1.23-1.2
						l22.13-24.21l-26.25-33.39l6.8-0.16l1.21-0.02l14.66-0.34C369.505,160.887,388.385,192.677,386.515,197.177z"/>
					<g>
						<polygon style="fill:#143C4A;" points="377.825,194.677 352.905,220.907 352.185,220.207 376.545,194.577 353.635,161.247 
							354.845,161.227 						"/>
					</g>
				</g>
			</g>
			<g>
				<g>
					<path style="fill:#FFC68A;" d="M357.788,217.709c-0.749,0.951-1.463,1.901-2.193,2.811l8.614,7.452l4.633-4.787
						c0,0-3.347-3.818-8.109-9.062C359.732,215.302,358.745,216.493,357.788,217.709z"/>
					<path style="fill:#F05956;" d="M357.487,237.119c-0.116,0.096-0.294,0.101-0.397-0.008c-0.504-0.526-0.645-1.36-0.465-2.078
						c0.201-0.804,0.733-1.485,1.316-2.076c0.582-0.59,1.23-1.12,1.749-1.767c0.878-1.094,1.337-2.457,1.779-3.788
						c0.133-0.4,0.366-0.808,0.532-1.211c0.063-0.153,0.157-0.297,0.3-0.382c0.723-0.425,1.686-0.367,2.441-0.769
						c0.729-0.389,1.167-1.148,1.602-1.851c0.33-0.533,0.727-1.093,1.245-1.438c0.282-0.188,0.662-0.167,0.929,0.043
						c1.112,0.878,2.279,2.166,2.985,3.43c0.071,0.128,0.036,0.287-0.077,0.381L357.487,237.119z"/>
				</g>
				<g>
					<path style="fill:#143C4A;" d="M329.866,197.177c1.88,4.5,29.47,27.74,29.47,27.74l4.14-4.01l0.72-0.7l1.23-1.2l-22.13-24.21
						l26.25-33.39l-6.8-0.16l-1.21-0.02l-14.66-0.34C346.876,160.887,327.996,192.677,329.866,197.177z"/>
					<g>
						<polygon style="fill:#143C4A;" points="338.556,194.677 363.476,220.907 364.196,220.207 339.836,194.577 362.746,161.247 
							361.536,161.227 						"/>
					</g>
				</g>
			</g>
		</g>
		<g>
			<g>
				<polygon style="fill:#FFC68A;" points="353.761,128.322 362.03,128.322 361.621,117.965 354.377,117.965 				"/>
				<path style="fill:#EDA14E;" d="M354.168,121.479c0,0,3.742,3.237,7.588-0.1l0.083,2.1c0,0-3.501,1.999-7.79,0L354.168,121.479z"
					/>
			</g>
			<g>
				<path style="fill:#F05956;" d="M353.146,127.84c0,0-5.662,3.611-8.183,7.558c0,0-0.857,1.691-0.561,3.524
					c0.296,1.832,2.41,21.979,2.41,21.979h22.693c0,0,2.012-20.922,1.957-23.036c-0.054-2.114-3.885-7.494-9.156-10.013
					L353.146,127.84z"/>
				<g>
					<g>
						<g>
							<g>
								<path style="fill:#FFC68A;" d="M348.696,157.649c-0.858,1.24-1.686,2.501-2.506,3.765l4.907,3.467l3.348-3.567l-5.094-4.596
									C349.13,157.028,348.911,157.338,348.696,157.649z"/>
								<path style="fill:#FFC68A;" d="M357.81,162.403c0.13,0.115,0.258,0.242,0.316,0.406c0.058,0.163,0.028,0.37-0.114,0.47
									c-0.128,0.091-0.301,0.07-0.457,0.055c-0.557-0.055-1.125,0.001-1.66,0.166c0.596,1.15,1.831,1.788,2.914,2.498
									c0.277,0.182,0.585,0.508,0.418,0.795c-0.145,0.249-0.512,0.212-0.786,0.124c-0.672-0.216-1.308-0.544-1.874-0.965
									c0.659,0.536,1.317,1.072,1.975,1.608c0.201,0.164,0.424,0.423,0.294,0.648c-0.103,0.178-0.354,0.186-0.557,0.16
									c-1.08-0.14-2.111-0.635-2.896-1.39c0.641,0.634,1.283,1.268,1.924,1.902c0.079,0.078,0.162,0.165,0.171,0.275
									c0.013,0.15-0.126,0.279-0.274,0.309c-0.148,0.03-0.299-0.014-0.442-0.062c-0.966-0.318-1.88-0.792-2.695-1.399
									c0.233,0.34,0.467,0.681,0.701,1.021c0.139,0.202,0.273,0.493,0.101,0.668c-0.161,0.164-0.439,0.061-0.633-0.063
									c-0.979-0.627-1.715-1.58-2.252-2.611c-0.537-1.031-0.891-2.146-1.242-3.254c-0.057-0.18-0.115-0.365-0.102-0.553
									c0.015-0.217,0.122-0.417,0.248-0.594c0.432-0.608,1.096-1.025,1.803-1.261C354.467,160.764,356.398,161.152,357.81,162.403
									z"/>
							</g>
						</g>
						<g>
							<path style="fill:#F05956;" d="M341.955,149.729l11.06,9.5l-0.43,0.41l-2.12,2.04l-0.81,0.78l-0.84,0.81l-0.22,0.21
								c0,0-23.58-9.75-16.83-18.25c4.84-6.09,13.83-12.52,18.54-15.69c1.01-0.67,1.83-1.2,2.36-1.54c0.3-0.19,0.66-0.21,0.97-0.07
								c0,0,0,0,0.01,0c0.13,0.06,0.25,0.15,0.35,0.26C362.075,137.009,341.955,149.729,341.955,149.729z"/>
							<g style="opacity:0.5;">
								<path style="fill:#F05956;" d="M347.375,159.589c1.08,0.75,2.12,1.46,3.09,2.09l-0.81,0.78c-0.62-0.42-1.63-1.11-2.86-1.97
									c-4.89-3.41-13.17-9.5-13.84-11.79c-0.73-2.51,10.76-13.25,17.35-19.16c1.01-0.67,1.83-1.2,2.36-1.54
									c0.3-0.19,0.66-0.21,0.97-0.07c-10.25,8.99-20.19,18.86-19.72,20.49C334.415,150.129,341.415,155.439,347.375,159.589z"/>
							</g>
						</g>
					</g>
					<path style="opacity:0.5;fill:#F05956;" d="M345.362,147.306c0,0,3.701-2.652,5.835-5.246c0,0-2.248,7.432-5.505,8.298
						L345.362,147.306z"/>
				</g>
				<g>
					<g>
						<g>
							<g>
								<path style="fill:#FFC68A;" d="M366.992,157.649c0.858,1.24,1.686,2.501,2.506,3.765l-4.907,3.467l-3.348-3.567l5.094-4.596
									C366.557,157.028,366.776,157.338,366.992,157.649z"/>
								<path style="fill:#FFC68A;" d="M357.878,162.403c-0.13,0.115-0.257,0.242-0.316,0.406c-0.058,0.163-0.028,0.37,0.114,0.47
									c0.128,0.091,0.301,0.07,0.457,0.055c0.557-0.055,1.125,0.001,1.66,0.166c-0.596,1.15-1.831,1.788-2.914,2.498
									c-0.277,0.182-0.584,0.508-0.418,0.795c0.145,0.249,0.512,0.212,0.786,0.124c0.672-0.216,1.308-0.544,1.874-0.965
									c-0.659,0.536-1.317,1.072-1.975,1.608c-0.201,0.164-0.424,0.423-0.294,0.648c0.103,0.178,0.353,0.186,0.557,0.16
									c1.08-0.14,2.111-0.635,2.896-1.39c-0.641,0.634-1.283,1.268-1.924,1.902c-0.079,0.078-0.162,0.165-0.171,0.275
									c-0.013,0.15,0.126,0.279,0.274,0.309c0.148,0.03,0.299-0.014,0.442-0.062c0.966-0.318,1.88-0.792,2.695-1.399
									c-0.234,0.34-0.467,0.681-0.701,1.021c-0.139,0.202-0.273,0.493-0.101,0.668c0.161,0.164,0.439,0.061,0.633-0.063
									c0.979-0.627,1.715-1.58,2.252-2.611c0.537-1.031,0.891-2.146,1.243-3.254c0.057-0.18,0.115-0.365,0.102-0.553
									c-0.015-0.217-0.122-0.417-0.248-0.594c-0.431-0.608-1.096-1.025-1.803-1.261
									C361.22,160.764,359.289,161.152,357.878,162.403z"/>
							</g>
						</g>
						<g>
							<path style="fill:#F05956;" d="M373.733,149.729l-11.06,9.5l0.43,0.41l2.12,2.04l0.81,0.78l0.84,0.81l0.22,0.21
								c0,0,23.58-9.75,16.83-18.25c-4.84-6.09-13.83-12.52-18.54-15.69c-1.01-0.67-1.83-1.2-2.36-1.54
								c-0.3-0.19-0.66-0.21-0.97-0.07c0,0,0,0-0.01,0c-0.13,0.06-0.25,0.15-0.35,0.26
								C353.613,137.009,373.733,149.729,373.733,149.729z"/>
							<g style="opacity:0.5;">
								<path style="fill:#F05956;" d="M368.313,159.589c-1.08,0.75-2.12,1.46-3.09,2.09l0.81,0.78c0.62-0.42,1.63-1.11,2.86-1.97
									c4.89-3.41,13.17-9.5,13.84-11.79c0.73-2.51-10.76-13.25-17.35-19.16c-1.01-0.67-1.83-1.2-2.36-1.54
									c-0.3-0.19-0.66-0.21-0.97-0.07c10.25,8.99,20.19,18.86,19.72,20.49C381.273,150.129,374.273,155.439,368.313,159.589z"/>
							</g>
						</g>
					</g>
					<path style="opacity:0.5;fill:#F05956;" d="M370.722,147.577c0,0-3.701-2.652-5.835-5.246c0,0,2.302,7.614,5.559,8.481
						L370.722,147.577z"/>
				</g>
			</g>
			<g>
				<rect x="343.463" y="171.241" style="fill:#90ABC2;" width="28.862" height="2.115"/>
				<g>
					<path style="fill:#B4CBDD;" d="M372.328,154.592v16.65h-28.86v-16.65c0-0.53,0.43-0.98,0.97-0.99c0.01,0,0.01,0,0.02,0h26.88
						C371.878,153.602,372.328,154.052,372.328,154.592z"/>
					<path style="fill:#E6F3FF;" d="M360.302,163.263c0,1.33-1.078,2.408-2.408,2.408s-2.408-1.078-2.408-2.408
						c0-1.33,1.078-2.408,2.408-2.408S360.302,161.933,360.302,163.263z"/>
					<path style="opacity:0.5;fill:#B4CBDD;" d="M372.328,169.632v1.61h-28.86v-16.65c0-0.53,0.43-0.98,0.97-0.99
						c0.41,3.44,2.15,14.01,8.07,14.5C358.168,168.572,368.418,169.342,372.328,169.632z"/>
				</g>
			</g>
		</g>
		<g>
			<g>
				<g>
					<path style="fill:#FFC68A;" d="M365.842,113.3c-0.334-0.25-0.67-0.308-0.986-0.262c-0.111-0.961-0.297-1.886-0.5-2.724
						c-0.249-1.06-0.96-1.86-1.865-2.15c-0.12-0.04-0.249-0.08-0.379-0.12c-1.293-0.82-2.779-1.01-4.211-0.91
						c-1.45-0.11-2.936,0.09-4.238,0.92c-0.009,0-0.009,0-0.018,0.01c-0.12,0.03-0.231,0.07-0.342,0.1
						c-0.905,0.29-1.616,1.09-1.874,2.15c-0.203,0.839-0.388,1.764-0.498,2.723c-0.315-0.045-0.65,0.013-0.983,0.263
						c-1.045,0.784-0.374,3.636,1.397,4.397c0.161,0.456,0.352,0.908,0.611,1.346c0.074,0.15,0.166,0.29,0.268,0.44
						c0.82,1.205,1.962,2.132,3.206,2.786c1.537,0.808,3.407,0.806,4.942-0.005c1.241-0.656,2.38-1.583,3.2-2.781
						c0.092-0.14,0.185-0.28,0.268-0.42c0.263-0.446,0.455-0.906,0.617-1.371C366.219,116.925,366.885,114.083,365.842,113.3z"/>
					<g>
						<g>
							<path style="fill:#EDA14E;" d="M358.522,113.208c-0.217,0.362-0.265,0.82-0.206,1.243c0.055,0.429,0.209,0.832,0.395,1.209
								c0.098,0.189,0.21,0.362,0.258,0.512c0.056,0.146,0.038,0.295-0.031,0.45c-0.139,0.308-0.512,0.497-0.924,0.546
								c0.386,0.128,0.923,0.044,1.207-0.377c0.145-0.193,0.198-0.482,0.132-0.729c-0.068-0.244-0.185-0.416-0.266-0.593
								c-0.183-0.352-0.338-0.712-0.45-1.084C358.53,114.011,358.475,113.624,358.522,113.208z"/>
							<path style="fill:#523329;" d="M357.052,112.476c-0.164-0.153-0.35-0.219-0.554-0.247c-0.202-0.021-0.412-0.001-0.613,0.053
								c-0.204,0.048-0.391,0.16-0.541,0.297c-0.159,0.13-0.26,0.308-0.342,0.477c-0.028,0.058-0.004,0.128,0.055,0.156
								c0.044,0.021,0.094,0.012,0.128-0.018l0.01-0.009c0.127-0.112,0.25-0.214,0.384-0.282c0.131-0.075,0.272-0.111,0.414-0.133
								c0.288-0.049,0.575,0.064,0.898,0.04l0.043-0.003c0.106-0.008,0.185-0.1,0.178-0.206
								C357.108,112.553,357.086,112.508,357.052,112.476z"/>
							<path style="fill:#523329;" d="M359.439,112.812c0.324,0.024,0.61-0.089,0.898-0.04c0.141,0.022,0.283,0.058,0.414,0.133
								c0.134,0.069,0.257,0.17,0.384,0.282l0.01,0.009c0.048,0.043,0.122,0.038,0.165-0.01c0.032-0.036,0.037-0.087,0.018-0.128
								c-0.082-0.17-0.183-0.347-0.342-0.477c-0.15-0.137-0.338-0.249-0.541-0.297c-0.201-0.054-0.411-0.074-0.613-0.053
								c-0.203,0.028-0.39,0.093-0.554,0.247c-0.078,0.073-0.082,0.194-0.009,0.272c0.034,0.037,0.079,0.057,0.126,0.06
								L359.439,112.812z"/>
							<path style="fill:#EDA14E;" d="M358.463,118.467c-0.523-0.013-0.998-0.037-1.384-0.224c-0.194-0.087-0.364-0.218-0.508-0.393
								c-0.155-0.169-0.268-0.382-0.416-0.607c-0.024,0.261,0.007,0.539,0.14,0.787c0.115,0.257,0.342,0.471,0.603,0.594
								c0.264,0.121,0.553,0.16,0.823,0.125C357.99,118.717,358.249,118.629,358.463,118.467z"/>
							<path style="fill:#523329;" d="M356.155,114.808c0,0.473,0.229,0.856,0.511,0.856s0.511-0.383,0.511-0.856
								s-0.229-0.856-0.511-0.856S356.155,114.335,356.155,114.808z"/>
							<path style="fill:#523329;" d="M359.784,114.808c0,0.473,0.229,0.856,0.511,0.856s0.511-0.383,0.511-0.856
								s-0.229-0.856-0.511-0.856S359.784,114.335,359.784,114.808z"/>
						</g>
						<path style="fill:#EDA14E;" d="M350.099,114.857c0.1-0.191,0.296-0.285,0.482-0.304c0.188-0.023,0.368,0.043,0.532,0.137
							c0.322,0.204,0.607,0.512,0.84,0.829c0.058,0.079,0.168,0.096,0.247,0.038c0.073-0.053,0.092-0.152,0.05-0.229
							c-0.158-0.286-0.457-0.414-0.723-0.463c-0.136-0.025-0.276-0.029-0.425,0c-0.146,0.028-0.308,0.11-0.399,0.252
							c-0.18,0.282-0.11,0.62,0.078,0.829c0.191,0.206,0.451,0.288,0.696,0.305c-0.225-0.098-0.438-0.23-0.549-0.418
							c-0.111-0.174-0.1-0.42,0.01-0.542c0.098-0.123,0.314-0.131,0.524-0.085c0.208,0.041,0.392,0.149,0.48,0.297l0.297-0.191
							c-0.27-0.351-0.585-0.664-1.006-0.859c-0.208-0.094-0.462-0.133-0.688-0.059C350.326,114.461,350.128,114.639,350.099,114.857
							z"/>
						<path style="fill:#EDA14E;" d="M365.692,114.857c-0.1-0.191-0.296-0.285-0.482-0.304c-0.188-0.023-0.368,0.043-0.532,0.137
							c-0.322,0.204-0.607,0.512-0.84,0.829c-0.058,0.079-0.168,0.096-0.247,0.038c-0.073-0.053-0.092-0.152-0.05-0.229
							c0.159-0.286,0.457-0.414,0.723-0.463c0.136-0.025,0.276-0.029,0.425,0c0.146,0.028,0.308,0.11,0.399,0.252
							c0.18,0.282,0.109,0.62-0.078,0.829c-0.191,0.206-0.451,0.288-0.696,0.305c0.225-0.098,0.438-0.23,0.548-0.418
							c0.111-0.174,0.1-0.42-0.01-0.542c-0.098-0.123-0.314-0.131-0.524-0.085c-0.208,0.041-0.391,0.149-0.48,0.297l-0.297-0.191
							c0.27-0.351,0.585-0.664,1.006-0.859c0.208-0.094,0.462-0.133,0.688-0.059C365.465,114.461,365.663,114.639,365.692,114.857z"
							/>
					</g>
				</g>
				<path style="fill:#523329;" d="M363.961,106.578c-0.011-0.071-0.04-0.131-0.057-0.199c-0.031-0.378-0.078-0.754-0.18-1.121
					c-0.177-0.639-0.518-1.262-1.082-1.696c-0.491-0.378-1.117-0.591-1.747-0.743c-0.969-0.234-1.989-0.342-2.985-0.223
					c-0.944,0.112-1.86,0.444-2.578,0.991c-0.059,0.02-0.118,0.04-0.177,0.062c-1.07-0.579-2.561-0.362-3.503,0.375
					c-0.956,0.749-1.38,1.924-1.333,3.048c-0.677,0.373-0.949,1.116-1.067,1.809c-0.119,0.7-0.132,1.413-0.04,2.116
					c0.05,0.381,0.656,2.371,0.656,2.371s2.924-0.445,2.755,3.148l0.174-0.302c0.219-0.378,0.398-0.775,0.537-1.189
					c0.366-1.098,1.008-3.304,0.818-4.799c0,0,0.297,0.088,0.803,0.208c0.851,0.202,1.727,0.298,2.602,0.298h0.675
					c0.875,0,1.751-0.096,2.602-0.298c0.505-0.12,0.803-0.208,0.803-0.208c-0.189,1.495,0.452,3.701,0.819,4.799
					c0.138,0.414,0.318,0.811,0.537,1.189l0.174,0.302c-0.169-3.593,2.755-3.148,2.755-3.148s0.558-1.41,0.595-3.09
					C366.582,107.251,363.961,106.578,363.961,106.578z"/>
			</g>
		</g>
	</g>
	<g>
		<g>
			<g>
				<g>
					<path style="fill:#FFB894;" d="M149.117,376.861l3.194-3.705L132.11,356.42c-1.663-1.432-4.185-1.23-5.633,0.451l0,0
						c-1.448,1.681-1.273,4.205,0.39,5.637L149.117,376.861z"/>
					<path style="fill:#FFB894;" d="M155.719,374.102c0.134,0.109,0.267,0.231,0.333,0.392c0.065,0.161,0.044,0.369-0.094,0.475
						c-0.124,0.096-0.298,0.083-0.454,0.074c-0.559-0.032-1.124,0.049-1.651,0.236c0.644,1.124,1.904,1.709,3.017,2.373
						c0.285,0.17,0.605,0.483,0.451,0.776c-0.134,0.255-0.503,0.233-0.78,0.157c-0.68-0.188-1.329-0.488-1.913-0.885
						c0.681,0.508,1.361,1.016,2.042,1.523c0.208,0.155,0.441,0.405,0.321,0.635c-0.095,0.182-0.345,0.201-0.55,0.183
						c-1.085-0.095-2.136-0.545-2.952-1.266c0.667,0.606,1.335,1.212,2.002,1.819c0.082,0.074,0.169,0.158,0.183,0.268
						c0.019,0.149-0.114,0.284-0.26,0.32c-0.146,0.036-0.299-0.002-0.444-0.043c-0.978-0.277-1.911-0.712-2.752-1.284
						c0.248,0.33,0.495,0.66,0.743,0.991c0.147,0.196,0.293,0.481,0.129,0.663c-0.154,0.171-0.436,0.08-0.635-0.036
						c-1.005-0.585-1.78-1.506-2.361-2.514c-0.58-1.007-0.981-2.106-1.379-3.199c-0.064-0.177-0.13-0.36-0.125-0.549
						c0.006-0.217,0.105-0.422,0.223-0.604c0.406-0.626,1.051-1.071,1.749-1.336C152.311,372.605,154.256,372.911,155.719,374.102z"
						/>
				</g>
			</g>
			<path style="fill:#FFB894;" d="M131.4,362.185l0.035-0.027c1.75-1.344,2.321-3.269,1.336-4.695l-14.664-21.616
				c-1.783-2.58-5.342-3.219-7.854-1.29l-0.049,0.038c-2.513,1.929-1.38,7.18,0.653,9.568l15.613,17.928
				C127.592,363.411,129.649,363.529,131.4,362.185z"/>
			<path style="fill:#F05956;" d="M113.221,348.024c0,0-5.374-6.235-4.829-9.897c0.545-3.662,4.168-7.206,8.39-4.205
				c4.223,3.001,6.473,8.057,6.473,8.057L113.221,348.024z"/>
		</g>
		<g>
			<g>
				<g>
					<path style="fill:#F2A883;" d="M172.379,365.698c-1.337,2.734-2.926,5.325-4.496,7.947c5.48,2.927,9.317,4.891,9.317,4.891
						l4.32-6.743L172.379,365.698z"/>
					<path style="fill:#D64A47;" d="M190.024,365.759c0.078-0.128,0.058-0.305-0.064-0.392c-0.592-0.424-1.438-0.444-2.124-0.164
						c-0.767,0.314-1.365,0.938-1.866,1.598c-0.501,0.661-0.933,1.377-1.499,1.983c-0.958,1.025-2.241,1.674-3.495,2.302
						c-0.377,0.189-0.748,0.478-1.123,0.7c-0.143,0.084-0.272,0.198-0.335,0.351c-0.318,0.776-0.122,1.721-0.412,2.526
						c-0.281,0.777-0.97,1.319-1.603,1.85c-0.481,0.403-0.978,0.876-1.246,1.438c-0.146,0.306-0.071,0.68,0.175,0.913
						c1.028,0.975,2.469,1.947,3.821,2.465c0.137,0.052,0.29-0.006,0.366-0.13L190.024,365.759z"/>
				</g>
				<g>
					<path style="fill:#143C4A;" d="M178.825,369.607l-5.64,7.66l-28.08-15.32c0,0-1.55,1.2-4,2.97c-4.4,3.16-11.7,8.12-18.22,11.17
						c-3.43,1.61-6.65,2.68-9.12,2.69c-3.4,0.01-4.93-2-5.47-4.61c-1.01-4.86,1.39-11.84,1.39-11.84h8.64c0,0,1.35-0.77,3.45-1.93
						c6.42-3.55,19.87-10.73,23.33-10.56C149.685,350.047,178.825,369.607,178.825,369.607z"/>
					<path style="opacity:0.3;fill:#143C4A;" d="M141.105,364.917c-4.4,3.16-11.7,8.12-18.22,11.17c-0.62,0.02-1.23,0.02-1.84,0.02
						c-4.31-0.01-8.79-0.34-12.75-1.94c-1.01-4.86,1.39-11.84,1.39-11.84h8.64c0,0,1.35-0.77,3.45-1.93
						c0.48,0.23,0.97,0.45,1.47,0.62c3.4,1.15,6.99,1.56,10.51,2.12c1.97,0.32,3.94,0.67,5.86,1.22
						C140.115,364.497,140.625,364.677,141.105,364.917z"/>
				</g>
			</g>
			<g>
				<g>
					<path style="fill:#FFB894;" d="M170.568,371.269c0.349,3.024,0.409,6.062,0.501,9.117c6.193-0.491,10.483-0.908,10.483-0.908
						v-8.008L170.568,371.269z"/>
					<path style="fill:#F05956;" d="M185.458,361.802c-0.003-0.15-0.116-0.288-0.266-0.296c-0.727-0.037-1.45,0.402-1.876,1.008
						c-0.477,0.678-0.643,1.526-0.709,2.353c-0.066,0.827-0.043,1.663-0.192,2.478c-0.253,1.38-0.984,2.618-1.702,3.824
						c-0.216,0.362-0.372,0.806-0.568,1.195c-0.075,0.148-0.122,0.313-0.092,0.476c0.151,0.825,0.826,1.515,1.015,2.349
						c0.183,0.806-0.105,1.634-0.352,2.422c-0.187,0.599-0.351,1.265-0.273,1.883c0.042,0.336,0.307,0.61,0.64,0.674
						c1.391,0.267,3.13,0.307,4.547,0.014c0.143-0.03,0.241-0.161,0.238-0.307L185.458,361.802z"/>
				</g>
				<g>
					<path style="fill:#143C4A;" d="M173.685,381.287c0,0-32.92,0.59-42.67,0.43c-9.75-0.17-28.33,3.83-34.59-1.31
						c-6.27-5.14,0-18.08,0-18.08h21.9l-8.39,6.39l62.25,0.57l1.02,8.14l0.12,1L173.685,381.287z"/>
					<g>
						<path style="fill:#143C4A;" d="M173.325,378.427c-7.24,0.2-31.86,0.86-37.7,0.86c-0.37,0-0.66-0.01-0.87-0.01
							c-0.92-0.03-2.96-0.03-5.53-0.02c-9.25,0.01-24.73,0.01-28.34-0.98c-4.31-1.17-2.94-12.26-2.36-15.95h1
							c-0.72,4.57-1.55,14.12,1.62,14.99c3.48,0.94,19.48,0.94,28.07,0.94c2.59,0,4.63-0.01,5.57,0.02
							c3.45,0.08,30.67-0.64,38.42-0.85L173.325,378.427z"/>
					</g>
				</g>
			</g>
		</g>
		<g>
			<g>
				<polygon style="fill:#FFB894;" points="103.237,329.452 108.028,330.766 111.507,329.452 111.097,319.095 103.853,319.095 				
					"/>
				<path style="fill:#F29272;" d="M111.312,324.53c0,0-4.059-0.046-5.644-1.791c0,0,2.322,4.323,5.737,4.129L111.312,324.53z"/>
			</g>
			<g>
				<path style="fill:#FFB894;" d="M95.535,340.172c0.118-5.035,7.701-10.72,7.701-10.72h1.026h6.219h1.026
					c0,0,7.68,5.845,8.428,10.532c0.392,2.456-1.612,22.346-1.612,22.346l-10.951-0.212l-10.951,0.212
					C96.421,362.33,95.477,342.659,95.535,340.172z"/>
				<g>
					<path style="fill:#F05956;" d="M118.325,362.327h-21.9c0,0-4.62-22.03,1.14-28.21l4.28-3.52l0.79-0.65l0.6-0.49l5.84,5.55
						l2.43-5.55c0,0,0.44,0.33,1.11,0.86c0.24,0.19,0.51,0.41,0.8,0.64c1.84,1.47,4.52,3.69,5.77,5.09
						C121.185,338.297,120.465,355.137,118.325,362.327z"/>
					<g style="opacity:0.5;">
						<path style="fill:#F05956;" d="M113.415,330.957l-3.21,6.73l-8.36-7.09l0.79-0.65l7.22,6.14l2.76-5.77
							C112.855,330.507,113.125,330.727,113.415,330.957z"/>
					</g>
				</g>
			</g>
			<g>
				<g>
					<path style="fill:#FFB894;" d="M100.13,338.281c-2.41,1.446-3.249,4.54-1.888,6.999c3.782,6.836,10.996,19.11,13.719,18.506
						c3.764-0.834,19.071-20.833,19.071-20.833l-3.437-3.481l-14.154,14.532l-5.84-13.339
						C106.339,337.781,102.83,336.661,100.13,338.281L100.13,338.281z"/>
				</g>
				<g>
					<path style="fill:#143C4A;" d="M130.204,340.98L130.204,340.98c0.545,0.273,1.208,0.051,1.481-0.494l4.469-8.941
						c0.273-0.545,0.051-1.208-0.494-1.481l0,0c-0.545-0.273-1.208-0.051-1.481,0.494l-4.469,8.941
						C129.437,340.044,129.658,340.708,130.204,340.98z"/>
					<path style="fill:#FFB894;" d="M129.475,343.565c0,0,9.297-3.979,7.391-7.98c0,0,0.024-0.139-0.777-0.378
						c0,0-0.18-1.438-0.699-1.739c-0.519-0.301-1.71,4.47-4.219,4.104c0,0,0.335-1.934,0.428-2.313
						c0.094-0.38-0.655-0.594-1.275,0.13c-0.62,0.724-2.173,2.199-3.275,5.26L129.475,343.565z"/>
				</g>
				<path style="fill:#F05956;" d="M99.651,348.935c0,0-4.55-6.86-3.55-10.425c1-3.565,6.207-6.495,10.02-2.988
					c3.813,3.507,4.243,8.673,4.243,8.673L99.651,348.935z"/>
				<path style="opacity:0.5;fill:#F05956;" d="M97.174,344.33l2.478,4.605l0.592-0.262l3.782,6.411l-2.522-1.516
					c-2.954-1.776-4.652-5.067-4.387-8.503L97.174,344.33z"/>
			</g>
		</g>
		<g>
			<g>
				<g>
					<path style="fill:#FFB894;" d="M115.346,311.803c-0.068-0.913-0.503-1.755-1.205-2.275c-3.159-2.334-7.664-0.929-10.074-0.231
						c-0.981,0.283-1.751,1.091-2.025,2.144c-0.217,0.838-0.426,1.758-0.545,2.716c-0.273-0.01-0.559,0.061-0.842,0.274
						c-1.017,0.763-0.412,3.49,1.252,4.338c0.233,0.632,0.554,1.253,0.993,1.848c2.968,4.026,9.894,5.001,11.7,2.921
						c0.452-0.524,0.719-1.7,0.867-3.171c0.085-0.884,0.131-1.869,0.144-2.888C115.642,314.746,115.465,313.414,115.346,311.803z"/>
					<g>
						<path style="fill:#F29272;" d="M111.438,314.987c-0.217,0.361-0.265,0.82-0.206,1.243c0.055,0.429,0.209,0.832,0.395,1.208
							c0.098,0.19,0.21,0.362,0.258,0.512c0.056,0.146,0.038,0.295-0.031,0.449c-0.14,0.308-0.512,0.497-0.924,0.546
							c0.386,0.128,0.923,0.044,1.207-0.377c0.145-0.193,0.198-0.482,0.132-0.729c-0.068-0.244-0.185-0.416-0.266-0.593
							c-0.183-0.352-0.338-0.712-0.45-1.084C111.445,315.79,111.391,315.403,111.438,314.987z"/>
						<path style="fill:#523329;" d="M109.968,314.256c-0.164-0.154-0.35-0.219-0.554-0.247c-0.202-0.021-0.412-0.001-0.614,0.053
							c-0.204,0.048-0.391,0.16-0.541,0.297c-0.159,0.13-0.26,0.308-0.342,0.477c-0.028,0.058-0.004,0.128,0.055,0.156
							c0.044,0.021,0.094,0.013,0.128-0.017l0.01-0.009c0.127-0.112,0.25-0.214,0.384-0.283c0.131-0.075,0.272-0.111,0.414-0.133
							c0.289-0.049,0.575,0.064,0.899,0.04l0.043-0.003c0.106-0.008,0.186-0.1,0.178-0.206
							C110.024,314.332,110.001,314.288,109.968,314.256z"/>
						<path style="fill:#523329;" d="M112.355,314.591c0.324,0.024,0.61-0.089,0.898-0.04c0.141,0.022,0.283,0.058,0.414,0.133
							c0.134,0.069,0.257,0.17,0.384,0.283l0.01,0.009c0.048,0.043,0.122,0.038,0.165-0.01c0.032-0.036,0.037-0.087,0.018-0.128
							c-0.082-0.17-0.183-0.347-0.342-0.477c-0.15-0.137-0.338-0.249-0.541-0.297c-0.201-0.054-0.411-0.074-0.613-0.053
							c-0.203,0.028-0.39,0.093-0.554,0.247c-0.077,0.073-0.081,0.194-0.009,0.272c0.034,0.037,0.079,0.057,0.126,0.06
							L112.355,314.591z"/>
						<path style="fill:#F29272;" d="M111.379,320.247c-0.523-0.013-0.998-0.037-1.384-0.224c-0.194-0.087-0.364-0.218-0.508-0.393
							c-0.155-0.169-0.268-0.382-0.416-0.607c-0.024,0.261,0.007,0.539,0.139,0.787c0.115,0.257,0.342,0.47,0.603,0.594
							c0.264,0.121,0.553,0.159,0.823,0.125C110.906,320.496,111.165,320.409,111.379,320.247z"/>
						<path style="fill:#523329;" d="M109.071,316.587c0,0.473,0.229,0.856,0.511,0.856c0.282,0,0.511-0.383,0.511-0.856
							c0-0.473-0.229-0.856-0.511-0.856C109.3,315.731,109.071,316.114,109.071,316.587z"/>
						<path style="fill:#523329;" d="M112.7,316.587c0,0.473,0.229,0.856,0.511,0.856c0.282,0,0.511-0.383,0.511-0.856
							c0-0.473-0.229-0.856-0.511-0.856C112.929,315.731,112.7,316.114,112.7,316.587z"/>
						<path style="fill:#F29272;" d="M100.901,315.987c0.1-0.191,0.296-0.284,0.482-0.304c0.188-0.023,0.368,0.043,0.532,0.137
							c0.322,0.204,0.607,0.512,0.84,0.829c0.058,0.079,0.168,0.096,0.247,0.038c0.073-0.053,0.092-0.152,0.05-0.229
							c-0.158-0.286-0.457-0.414-0.723-0.463c-0.136-0.025-0.277-0.029-0.425,0c-0.146,0.028-0.308,0.11-0.399,0.252
							c-0.18,0.282-0.109,0.62,0.078,0.829c0.191,0.206,0.451,0.289,0.696,0.305c-0.225-0.098-0.438-0.23-0.549-0.418
							c-0.111-0.174-0.1-0.42,0.01-0.542c0.098-0.123,0.314-0.131,0.524-0.085c0.208,0.041,0.391,0.149,0.48,0.296l0.297-0.191
							c-0.27-0.351-0.585-0.664-1.006-0.859c-0.208-0.094-0.462-0.133-0.688-0.059C101.128,315.591,100.93,315.769,100.901,315.987z
							"/>
					</g>
				</g>
				<path style="fill:#523329;" d="M104.56,317.755c0,0,2.375-1.25,2.292-5.667c0,0,7.167,2.292,8.958,0.583
					c1.792-1.708,1.064-5.167-0.197-5.542c0,0-2.772-3.083-5.391-1.458c0,0-4.453-1.375-5.37,1.917c0,0-5.702-0.115-4.494,7.195
					c0,0,1.169-1.27,2.29-0.128C103.768,315.797,104.56,317.755,104.56,317.755z"/>
			</g>
		</g>
	</g>
	<g>
		<rect x="30.167" y="382.103" style="fill:#B4CBDD;" width="439.667" height="2.5"/>
	</g>
	<g>
		<path style="fill:#D7E3ED;" d="M441.711,397.052c0,1.904-2.722,2.282-21.592,2.282s-46.742-0.377-46.742-2.282
			c0-1.905,15.297-3.449,34.167-3.449S441.711,395.147,441.711,397.052z"/>
		<g>
			<g>
				<g>
					<g>
						<g>
							<path style="fill:#E28758;" d="M378.777,323.174l-3.779-3.106l17.052-19.934c1.395-1.695,3.914-1.926,5.627-0.516l0,0
								c1.713,1.41,1.972,3.926,0.577,5.621L378.777,323.174z"/>
							<path style="fill:#E28758;" d="M371.8,321.581c-0.114,0.131-0.224,0.274-0.261,0.443c-0.037,0.169,0.02,0.371,0.173,0.452
								c0.139,0.073,0.307,0.031,0.46-0.005c0.545-0.127,1.116-0.143,1.667-0.049c-0.443,1.218-1.585,2.009-2.568,2.853
								c-0.252,0.216-0.514,0.579-0.312,0.842c0.175,0.228,0.535,0.144,0.796,0.022c0.638-0.301,1.227-0.707,1.734-1.198
								c-0.584,0.616-1.168,1.233-1.752,1.849c-0.178,0.188-0.366,0.474-0.208,0.681c0.125,0.163,0.375,0.139,0.573,0.086
								c1.053-0.278,2.012-0.901,2.693-1.751c-0.554,0.711-1.108,1.422-1.663,2.133c-0.068,0.087-0.139,0.185-0.134,0.295
								c0.007,0.15,0.161,0.26,0.311,0.271c0.15,0.01,0.295-0.053,0.431-0.118c0.917-0.44,1.762-1.028,2.493-1.734
								c-0.188,0.368-0.376,0.735-0.563,1.103c-0.112,0.219-0.207,0.524-0.014,0.676c0.181,0.142,0.443,0.004,0.62-0.144
								c0.89-0.748,1.497-1.788,1.897-2.879c0.4-1.091,0.608-2.242,0.813-3.387c0.033-0.186,0.067-0.377,0.03-0.562
								c-0.043-0.213-0.175-0.398-0.323-0.557c-0.506-0.548-1.219-0.876-1.951-1.019C374.904,319.525,373.039,320.158,371.8,321.581
								z"/>
						</g>
					</g>
					<path style="fill:#F05956;" d="M411.352,281.007c0,0-6.44,14.79-9.86,21.39c-0.73,1.42-1.33,2.46-1.69,2.9
						c-0.11,0.13-0.26,0.3-0.45,0.49c-3.26,3.42-17.65,15.77-17.65,15.77l-5.36-4.29l15.67-18.36l9.64-21.8L411.352,281.007z"/>
					<path style="opacity:0.5;fill:#F05956;" d="M401.492,302.397c-0.73,1.42-1.33,2.46-1.69,2.9c-0.11,0.13-0.26,0.3-0.45,0.49
						c-1.43-0.19-6.03-1.5-5.94-9.94c0,0,2.59,6.95,5,7.12C400.172,303.087,401.122,302.637,401.492,302.397z"/>
				</g>
				<g>
					<g>
						<polygon style="fill:#E28758;" points="414.477,272.154 410.854,273.297 407.232,272.154 407.232,261.796 414.477,261.796 
													"/>
						<path style="fill:#C26144;" d="M407.232,267.231c0,0,3.844-0.046,5.43-1.79c0,0-2.014,4.317-5.43,4.123V267.231z"/>
					</g>
					<path style="fill:#E28758;" d="M418.438,304.709c0,0,3.055-25.905,0.842-28.422c-2.009-2.285-4.804-4.134-4.804-4.134h-7.244
						c0,0-8.481,6.432-8.315,11.874c0.079,2.586,2.209,7.455,2.873,11.855c0.733,4.861,0.002,9.15,0.002,9.15L418.438,304.709z"/>
					<g>
						<path style="fill:#F05956;" d="M418.762,304.707h-17.21c0,0,0.67-7.62-0.58-11.62s-4-8.96-1.17-13.42
							c1.78-2.8,3.91-4.76,5.25-5.84c0.31-0.25,0.59-0.46,0.8-0.61c0.32-0.23,0.5-0.35,0.5-0.35s2.83,3.73,9.37,0
							c0,0,0.16,0.13,0.43,0.35c0.21,0.16,0.48,0.39,0.78,0.65c1.12,0.99,2.66,2.48,2.96,3.51
							C420.722,280.237,418.762,304.707,418.762,304.707z"/>
						<g style="opacity:0.5;">
							<path style="fill:#F05956;" d="M416.932,273.867c-2.32,1.82-4.5,2.73-6.52,2.73c-0.42,0-0.83-0.04-1.23-0.12
								c-2.03-0.39-3.38-1.69-4.13-2.65c0.31-0.25,0.59-0.46,0.8-0.61c0.65,0.83,1.82,1.95,3.53,2.28c2.01,0.39,4.28-0.38,6.77-2.28
								C416.362,273.377,416.632,273.607,416.932,273.867z"/>
						</g>
					</g>
				</g>
				<g>
					<g>
						<path style="fill:#FCC574;" d="M391.271,276.861l-1.947-0.273c-0.409-0.057-0.658-0.482-0.507-0.867l4.122-10.555l3.25,0.456
							l-4.232,10.837C391.848,276.737,391.565,276.903,391.271,276.861z"/>
						<g>
							<path style="fill:#F05956;" d="M397.552,263.757c-0.26,1.88-1.88,3.25-3.73,3.25c-0.18,0-0.36-0.01-0.54-0.04l-0.32-0.04
								l-1.96-0.28l1.06-7.48l2.28,0.32c0.72,0.1,1.36,0.4,1.88,0.83C397.192,261.127,397.742,262.407,397.552,263.757z"/>
							<path style="opacity:0.5;fill:#F05956;" d="M397.552,263.757c-0.26,1.88-1.88,3.25-3.73,3.25c-0.18,0-0.36-0.01-0.54-0.04
								l-0.32-0.04c3.64-2.13,3.73-4.84,3.26-6.61C397.192,261.127,397.742,262.407,397.552,263.757z"/>
						</g>
						<path style="fill:#F05956;" d="M379.881,259.882c-0.202,1.436-1.529,2.436-2.964,2.235c-1.436-0.202-2.436-1.529-2.235-2.964
							c0.202-1.436,1.529-2.436,2.964-2.235C379.082,257.119,380.083,258.446,379.881,259.882z"/>
						<path style="opacity:0.5;fill:#FCC574;" d="M378.722,250.157c0,0-0.02,0.04-0.07,0.12
							C378.682,250.197,378.702,250.157,378.722,250.157z"/>
						<g>
							<path style="fill:#FCC574;" d="M393.252,259.957l-0.78,5.57c-0.12,0.8-0.66,1.48-1.42,1.76c-4.59,1.69-11.14,2.49-13.87,2.76
								c-0.65,0.06-1.18-0.5-1.09-1.14l2.12-15.11l0.51-3.64c0.09-0.67,0.8-1.07,1.41-0.79c4.58,2.07,10.23,6.77,12.39,8.64
								c0.2,0.17,0.37,0.38,0.49,0.62C393.232,259.027,393.312,259.497,393.252,259.957z"/>
							<path style="opacity:0.5;fill:#FCC574;" d="M393.252,259.957l-0.78,5.57c-0.12,0.8-0.66,1.48-1.42,1.76
								c-4.59,1.69-11.14,2.49-13.87,2.76c-0.65,0.06-1.18-0.5-1.09-1.14l2.12-15.11c-0.43,5.18-0.67,14.18,1.1,14.11
								c2.39-0.11,11.52-2.5,13.7-9.28C393.232,259.027,393.312,259.497,393.252,259.957z"/>
						</g>
					</g>
					<g>
						<path style="fill:#E28758;" d="M394.379,275.294c0.635-1.14,0.832-2.488,0.5-3.806c-0.042-0.168-0.097-0.34-0.215-0.467
							c-0.118-0.127-0.316-0.195-0.47-0.116c-0.139,0.072-0.201,0.235-0.259,0.381c-0.207,0.52-0.519,0.998-0.912,1.397
							c-0.747-1.059-0.744-2.448-0.876-3.737c-0.034-0.33-0.182-0.753-0.513-0.737c-0.288,0.014-0.424,0.357-0.472,0.641
							c-0.118,0.696-0.12,1.411-0.006,2.108c-0.173-0.831-0.345-1.663-0.518-2.494c-0.053-0.254-0.181-0.571-0.44-0.559
							c-0.205,0.009-0.328,0.228-0.398,0.421c-0.373,1.023-0.408,2.166-0.1,3.211c-0.267-0.861-0.535-1.722-0.802-2.583
							c-0.033-0.106-0.072-0.22-0.166-0.279c-0.127-0.08-0.306-0.017-0.4,0.101c-0.094,0.117-0.125,0.272-0.149,0.421
							c-0.162,1.004-0.162,2.033,0.001,3.037c-0.194-0.364-0.389-0.728-0.584-1.092c-0.116-0.216-0.312-0.469-0.547-0.397
							c-0.22,0.068-0.257,0.362-0.236,0.591c0.106,1.158,0.613,2.25,1.281,3.201c0.444,0.634,0.962,1.21,1.499,1.768l-0.009,0.003
							l0.755,5.494c1.291-0.305,2.578-0.63,3.86-0.978c0.484-0.207,0.974-0.401,1.464-0.596L394.379,275.294z"/>
						<path style="fill:#F05956;" d="M389.089,278.28l6.014-1.848l5.298,14.133l7.991-10.534c1.987-2.619,5.732-3.106,8.322-1.082
							l3.387,2.646c0,0-14.699,21.575-20.997,21.485C392.806,302.989,389.089,278.28,389.089,278.28z"/>
					</g>
					<g style="opacity:0.5;">
						<path style="fill:#F05956;" d="M400.402,290.565c0,0-3.088,3.107-2.432,3.357
							C398.624,294.172,400.402,290.565,400.402,290.565z"/>
						<path style="fill:#F05956;" d="M400.402,290.565c0,0-0.848,2.232,0,2.732C401.249,293.797,400.402,290.565,400.402,290.565z"
							/>
					</g>
					<path style="opacity:0.5;fill:#F05956;" d="M418.271,284.187L409.5,295.24C409.5,295.24,416.48,294.39,418.271,284.187z"/>
				</g>
			</g>
			<g>
				<g>
					<g>
						<path style="fill:#E28758;" d="M420.085,306.741c0,0,7.083,4.747,5.14,17.515c-0.581,3.815-3.687,15.044-3.532,25.598
							c0.242,16.403-2.462,44.206-2.462,44.206h-8.008l-1.595-87.319H420.085z"/>
						<path style="fill:#F05956;" d="M421.416,396.926c0.89-0.398-0.112-1.928-0.414-2.855c-0.302-0.927-0.571-1.946-0.223-2.857
							c0.077-0.202-0.301-0.201-0.496-0.108c-0.785,0.374-1.366,1.161-2.218,1.339c-0.427,0.089-0.868,0.011-1.297-0.068
							c-0.624-0.114-1.273-0.239-1.781-0.618c-0.625-0.466-0.957-1.259-1.614-1.678c-0.484-0.308-1.091-0.373-1.66-0.301
							c-0.514,0.065-1.07,0.282-1.277,0.756c-0.159,0.363-0.073,0.781,0.015,1.167c0.111,0.488,0.223,0.976,0.334,1.464
							c-2.154,1.076-4.641,1.291-6.906,2.109c-0.399,0.144-0.805,0.318-1.09,0.633c-0.285,0.314-0.417,0.805-0.205,1.173
							C402.584,397.081,418.985,398.013,421.416,396.926z"/>
					</g>
					<g>
						<path style="fill:#D67C4D;" d="M410.254,306.741c0,0,4.858,6.176,2.915,18.945c-0.581,3.815-2.412,13.614-2.257,24.168
							c0.242,16.403-2.462,44.206-2.462,44.206h-7.094l-3.386-76.432L410.254,306.741z"/>
						<path style="fill:#F05956;" d="M410.08,396.926c0.89-0.398-0.112-1.928-0.414-2.855c-0.302-0.927-0.571-1.946-0.224-2.857
							c0.077-0.202-0.301-0.201-0.496-0.108c-0.785,0.374-1.366,1.161-2.218,1.339c-0.427,0.089-0.868,0.011-1.297-0.068
							c-0.624-0.114-1.273-0.239-1.781-0.618c-0.625-0.466-0.956-1.259-1.614-1.678c-0.484-0.308-1.091-0.373-1.66-0.301
							c-0.514,0.065-1.07,0.282-1.277,0.756c-0.159,0.363-0.073,0.781,0.015,1.167c0.111,0.488,0.223,0.976,0.334,1.464
							c-2.154,1.076-4.642,1.291-6.906,2.109c-0.399,0.144-0.805,0.318-1.09,0.633c-0.285,0.314-0.417,0.805-0.204,1.173
							C391.248,397.081,407.65,398.013,410.08,396.926z"/>
					</g>
				</g>
				<g>
					<path style="fill:#143C4A;" d="M426.642,319.787c0,9.34-3.99,36.62-3.99,36.62h-23.74c0,0-6.56-40.79,2.64-51.7h17.21
						C418.762,304.707,426.642,310.437,426.642,319.787z"/>
					<g>
						<path style="fill:#143C4A;" d="M422.182,321.077c-0.4,6.99-2.09,27.88-2.7,35.33h-1c0.6-7.37,2.3-28.38,2.71-35.39
							c0.37-6.47-3.27-13.45-4.96-16.31h1.18C419.252,307.907,422.562,314.627,422.182,321.077z"/>
					</g>
				</g>
			</g>
			<g>
				<g>
					<path style="fill:#E28758;" d="M417.676,257.132c-0.186-0.139-0.372-0.214-0.555-0.251c-0.17-0.929-0.42-1.831-0.64-2.681
						c-0.275-1.053-1.044-1.861-2.026-2.144c-2.41-0.698-7.108-1.598-10.267,0.736c-0.702,0.52-1.137,1.361-1.205,2.275
						c-0.118,1.611-0.296,2.381-0.262,5.112c0.013,1.019,0.059,2.004,0.144,2.888c0.148,1.472,0.414,2.647,0.867,3.172
						c1.806,2.08,9.303,0.833,12.271-3.193c0.483-0.655,0.803-1.324,1.01-1.998C418.214,259.942,418.561,257.796,417.676,257.132z"
						/>
					<g>
						<circle style="fill:#F09E73;" cx="410.548" cy="261.64" r="1.486"/>
						<path style="fill:#F09E73;" d="M403.935,261.638c0,0.677-0.452,1.252-1.074,1.429c-0.085-0.884-0.131-1.869-0.144-2.888
							C403.41,260.302,403.935,260.907,403.935,261.638z"/>
						<path style="fill:#C26144;" d="M406.035,257.689c0.217,0.361,0.265,0.82,0.206,1.243c-0.055,0.429-0.209,0.832-0.395,1.208
							c-0.098,0.19-0.21,0.362-0.258,0.512c-0.056,0.146-0.038,0.295,0.031,0.449c0.14,0.308,0.512,0.497,0.924,0.546
							c-0.386,0.128-0.923,0.044-1.207-0.377c-0.145-0.193-0.198-0.482-0.132-0.729c0.068-0.244,0.185-0.416,0.266-0.593
							c0.183-0.352,0.338-0.712,0.45-1.084C406.028,258.492,406.082,258.104,406.035,257.689z"/>
						<path style="fill:#523329;" d="M407.505,256.957c0.164-0.154,0.35-0.219,0.554-0.247c0.202-0.021,0.412-0.001,0.613,0.053
							c0.204,0.048,0.391,0.16,0.541,0.297c0.159,0.13,0.26,0.308,0.342,0.477c0.028,0.058,0.004,0.128-0.055,0.156
							c-0.044,0.021-0.094,0.013-0.128-0.017l-0.01-0.009c-0.127-0.112-0.25-0.214-0.384-0.283
							c-0.131-0.075-0.272-0.111-0.414-0.133c-0.289-0.049-0.575,0.064-0.898,0.04l-0.043-0.003c-0.106-0.008-0.186-0.1-0.178-0.206
							C407.449,257.034,407.472,256.989,407.505,256.957z"/>
						<path style="fill:#523329;" d="M405.118,257.293c-0.324,0.024-0.61-0.089-0.898-0.04c-0.141,0.022-0.283,0.058-0.414,0.133
							c-0.134,0.069-0.257,0.17-0.384,0.283l-0.01,0.009c-0.048,0.043-0.122,0.038-0.165-0.01c-0.032-0.036-0.037-0.087-0.018-0.128
							c0.082-0.17,0.183-0.347,0.342-0.477c0.15-0.137,0.338-0.249,0.541-0.297c0.201-0.054,0.411-0.074,0.613-0.053
							c0.203,0.028,0.39,0.093,0.554,0.247c0.078,0.073,0.082,0.194,0.009,0.272c-0.034,0.037-0.079,0.057-0.126,0.06
							L405.118,257.293z"/>
						<path style="fill:#523329;" d="M408.402,259.289c0,0.473-0.229,0.856-0.511,0.856s-0.511-0.383-0.511-0.856
							c0-0.473,0.229-0.856,0.511-0.856S408.402,258.816,408.402,259.289z"/>
						<ellipse style="fill:#523329;" cx="404.262" cy="259.289" rx="0.511" ry="0.856"/>
						<path style="fill:#C26144;" d="M416.94,259.056c-0.1-0.191-0.296-0.285-0.482-0.304c-0.188-0.023-0.368,0.043-0.532,0.137
							c-0.322,0.204-0.607,0.512-0.84,0.83c-0.058,0.079-0.168,0.096-0.247,0.038c-0.073-0.053-0.092-0.153-0.05-0.229
							c0.158-0.286,0.457-0.414,0.723-0.463c0.136-0.025,0.277-0.029,0.425,0c0.146,0.028,0.308,0.11,0.399,0.252
							c0.18,0.282,0.11,0.62-0.078,0.829c-0.191,0.206-0.451,0.289-0.696,0.305c0.225-0.098,0.438-0.23,0.549-0.418
							c0.111-0.174,0.101-0.42-0.01-0.542c-0.098-0.123-0.314-0.131-0.524-0.086c-0.208,0.041-0.392,0.149-0.48,0.297l-0.297-0.191
							c0.27-0.351,0.585-0.664,1.006-0.859c0.208-0.094,0.462-0.133,0.688-0.059C416.713,258.659,416.91,258.837,416.94,259.056z"/>
						<path style="fill:#FFFFFF;" d="M405.859,262.813c0,0,2.751,1.747,2.647-0.888L405.859,262.813z"/>
					</g>
					<path style="fill:#523329;" d="M410.548,255.755c0,0,1.35,5.75,3.929,4.125c0,0,0.315-1.312,1.053-2.202
						c0.956-1.153,2.783-0.222,2.416,1.23c-0.16,0.636-0.578,1.458-1.43,2.513c0,0-0.658,1.888-2.08,3.215v4.244
						c0,0,3.411-1.26,4.745-5.755c1.333-4.495-1.112-10.495-3.327-11.162c0,0-7.032-4.292-12.103-0.333
						c-5.071,3.958-5.196,21.583-3.987,22.333c1.208,0.75,7.469-1.81,7.469-1.81v-4.922c0,0-4.349,0.672-4.339-4.747
						C402.906,256.543,406.749,255.005,410.548,255.755z"/>
				</g>
			</g>
		</g>
	</g>
</g>
<g id="DESIGNED_BY_FREEPIK">
	<g id="XMLID_258_">
		<g id="XMLID_287_">
			<g id="XMLID_306_">
				<path id="XMLID_314_" style="fill:#9EB7C7;" d="M260.104,465.465c-0.433,0.443-0.804,0.932-1.108,1.453l-0.465-0.241
					c-0.067-0.297-0.35-0.502-0.659-0.466c-0.331,0.039-0.567,0.339-0.529,0.67c0.039,0.331,0.339,0.567,0.67,0.528
					c0.065-0.007,0.127-0.025,0.184-0.052l0.451,0.234c-0.251,0.554-0.433,1.139-0.539,1.743l0.747,0.132
					c0.229-1.306,0.85-2.507,1.792-3.473L260.104,465.465z"/>
				<path id="XMLID_313_" style="fill:#9EB7C7;" d="M265.591,463.164c-0.171,0-0.341,0.006-0.509,0.017l-0.074-0.626
					c0.188-0.149,0.296-0.389,0.266-0.645c-0.046-0.393-0.402-0.674-0.795-0.628c-0.394,0.046-0.675,0.402-0.628,0.796
					c0.03,0.254,0.189,0.461,0.404,0.563l0.073,0.624c-0.714,0.116-1.402,0.332-2.06,0.646l0.327,0.685
					c0.935-0.447,1.941-0.674,2.995-0.674c0.497,0,0.993,0.053,1.476,0.158l0.16-0.741
					C266.692,463.222,266.142,463.164,265.591,463.164z"/>
				<path id="XMLID_312_" style="fill:#9EB7C7;" d="M272.194,465.711c0.331-0.04,0.566-0.341,0.525-0.672
					c-0.04-0.331-0.341-0.566-0.672-0.525c-0.31,0.038-0.535,0.304-0.53,0.608l-0.416,0.363c-0.418-0.43-0.89-0.813-1.407-1.14
					l-0.404,0.642c1.135,0.715,2.021,1.727,2.564,2.925l0.69-0.313c-0.251-0.554-0.567-1.071-0.942-1.545l0.402-0.351
					C272.065,465.715,272.128,465.719,272.194,465.711z"/>
				<path id="XMLID_311_" style="fill:#9EB7C7;" d="M265.044,473.372c-0.386,0.023-0.775,0.035-1.157,0.035
					c-0.88,0-1.733-0.061-2.479-0.18c-0.391-0.062-0.846-0.154-1.271-0.292c1.047,1.861,3.069,3.125,5.389,3.125
					c2.855,0,5.263-1.916,5.949-4.503c-0.682,0.449-1.505,0.825-2.458,1.122C267.838,473.047,266.463,473.287,265.044,473.372z"/>
				<path id="XMLID_307_" style="fill:#9EB7C7;" d="M265.591,464.68c-3.351,0-6.079,2.666-6.079,5.943
					c0,0.425,0.046,0.849,0.137,1.261c0.674,0.483,2.706,0.891,5.348,0.731c2.88-0.174,5.297-0.958,6.672-2.159
					c-0.005-0.194-0.02-0.39-0.045-0.581C271.244,466.914,268.65,464.68,265.591,464.68z M263.432,471.195
					c-1.02,0-1.85-0.83-1.85-1.85c0-1.021,0.83-1.851,1.85-1.851c1.02,0,1.85,0.83,1.85,1.851
					C265.282,470.365,264.452,471.195,263.432,471.195z M268.169,470.287c-0.75,0-1.36-0.61-1.36-1.36s0.61-1.36,1.36-1.36
					s1.36,0.61,1.36,1.36S268.919,470.287,268.169,470.287z"/>
			</g>
			<path id="XMLID_304_" style="fill:#9EB7C7;" d="M281.595,466.547c-0.295-0.116-0.806-0.31-1.383-0.238
				c-0.551,0.069-0.844,0.341-0.844,1.007v0.866h2.229v1.717h-2.229v5.455h-1.932v-5.455h-1.339v-1.717h1.339v-0.889
				c0-1.68,0.896-2.782,2.568-2.782c0.643,0,1.157,0.121,1.59,0.308V466.547z"/>
			<path id="XMLID_302_" style="fill:#9EB7C7;" d="M286.297,469.878c-0.177-0.029-0.357-0.046-0.525-0.046
				c-0.896,0-1.51,0.548-1.51,1.613v3.908h-1.933v-7.172h1.873v0.784c0.451-0.673,1.14-0.977,2.021-0.977
				c0.414,0,0.848,0.128,1.095,0.337L286.297,469.878z"/>
			<path id="XMLID_299_" style="fill:#9EB7C7;" d="M293.965,471.757c0,0.222-0.016,0.488-0.037,0.651h-5.085
				c0.207,1.036,0.933,1.487,1.843,1.487c0.622,0,1.295-0.252,1.813-0.689l1.133,1.243c-0.814,0.748-1.851,1.089-3.057,1.089
				c-2.198,0-3.724-1.496-3.724-3.753c0-2.258,1.48-3.797,3.627-3.797C292.543,467.99,293.958,469.522,293.965,471.757z
				 M288.851,471.091h3.175c-0.178-0.918-0.732-1.437-1.561-1.437C289.554,469.655,289.021,470.203,288.851,471.091z"/>
			<path id="XMLID_296_" style="fill:#9EB7C7;" d="M301.619,471.757c0,0.222-0.016,0.488-0.037,0.651h-5.085
				c0.207,1.036,0.933,1.487,1.843,1.487c0.622,0,1.296-0.252,1.814-0.689l1.133,1.243c-0.815,0.748-1.851,1.089-3.058,1.089
				c-2.198,0-3.723-1.496-3.723-3.753c0-2.258,1.48-3.797,3.627-3.797C300.197,467.99,301.611,469.522,301.619,471.757z
				 M296.504,471.091h3.175c-0.178-0.918-0.733-1.437-1.561-1.437C297.208,469.655,296.674,470.203,296.504,471.091z"/>
			<path id="XMLID_293_" style="fill:#9EB7C7;" d="M309.964,471.764c0,2.154-1.495,3.775-3.472,3.775
				c-0.962,0-1.644-0.378-2.109-0.933v3.708h-1.925v-10.133h1.888v0.792c0.467-0.585,1.154-0.984,2.139-0.984
				C308.469,467.99,309.964,469.611,309.964,471.764z M304.287,471.764c0,1.133,0.748,1.977,1.844,1.977
				c1.14,0,1.85-0.881,1.85-1.977c0-1.095-0.71-1.976-1.85-1.976C305.035,469.789,304.287,470.632,304.287,471.764z"/>
			<path id="XMLID_290_" style="fill:#9EB7C7;" d="M313.068,465.836c0,0.696-0.541,1.229-1.236,1.229
				c-0.696,0-1.229-0.533-1.229-1.229c0-0.695,0.532-1.243,1.229-1.243C312.527,464.592,313.068,465.14,313.068,465.836z
				 M312.808,475.354h-1.932v-7.172h1.932V475.354z"/>
			<path id="XMLID_288_" style="fill:#9EB7C7;" d="M316.032,470.736l2.702-2.554h2.368l-3.478,3.375l3.501,3.797h-2.376
				l-2.717-2.901v2.901H314.1v-10.658h1.932V470.736z"/>
		</g>
		<g id="XMLID_259_">
			<path id="XMLID_284_" style="fill:#9EB7C7;" d="M184.412,475.29v-1.055c-0.527,0.718-1.391,1.23-2.387,1.23
				c-1.846,0-3.149-1.406-3.149-3.706c0-2.256,1.289-3.721,3.149-3.721c0.952,0,1.816,0.469,2.387,1.245v-3.765h1.099v9.771H184.412
				z M184.412,473.371v-3.208c-0.395-0.615-1.245-1.143-2.124-1.143c-1.42,0-2.27,1.172-2.27,2.739c0,1.567,0.85,2.725,2.27,2.725
				C183.167,474.484,184.017,473.986,184.412,473.371z"/>
			<path id="XMLID_281_" style="fill:#9EB7C7;" d="M186.932,471.745c0-2.051,1.465-3.706,3.486-3.706
				c2.139,0,3.398,1.67,3.398,3.794v0.278h-5.727c0.088,1.333,1.025,2.446,2.549,2.446c0.806,0,1.626-0.322,2.182-0.894l0.527,0.718
				c-0.703,0.703-1.655,1.084-2.812,1.084C188.44,475.465,186.932,473.957,186.932,471.745z M190.403,468.947
				c-1.509,0-2.256,1.274-2.314,2.358h4.644C192.718,470.25,192.015,468.947,190.403,468.947z"/>
			<path id="XMLID_279_" style="fill:#9EB7C7;" d="M194.607,474.352l0.571-0.791c0.469,0.542,1.362,1.011,2.329,1.011
				c1.084,0,1.67-0.513,1.67-1.216c0-1.714-4.38-0.659-4.38-3.281c0-1.099,0.952-2.036,2.636-2.036c1.202,0,2.051,0.454,2.623,1.025
				l-0.513,0.762c-0.424-0.513-1.201-0.894-2.109-0.894c-0.966,0-1.567,0.483-1.567,1.113c0,1.553,4.379,0.527,4.379,3.281
				c0,1.187-0.952,2.139-2.783,2.139C196.306,475.465,195.325,475.114,194.607,474.352z"/>
			<path id="XMLID_276_" style="fill:#9EB7C7;" d="M201.477,466.471c0-0.41,0.337-0.747,0.732-0.747c0.41,0,0.747,0.337,0.747,0.747
				c0,0.41-0.337,0.732-0.747,0.732C201.814,467.204,201.477,466.881,201.477,466.471z M201.667,475.29v-7.075h1.099v7.075H201.667z
				"/>
			<path id="XMLID_273_" style="fill:#9EB7C7;" d="M204.582,477.106l0.556-0.82c0.586,0.703,1.289,0.967,2.3,0.967
				c1.172,0,2.27-0.571,2.27-2.124v-1.011c-0.513,0.718-1.377,1.26-2.373,1.26c-1.846,0-3.149-1.377-3.149-3.662
				c0-2.271,1.289-3.677,3.149-3.677c0.952,0,1.802,0.469,2.373,1.245v-1.069h1.099v6.87c0,2.344-1.641,3.076-3.369,3.076
				C206.237,478.161,205.416,477.925,204.582,477.106z M209.708,473.253v-3.091c-0.381-0.615-1.23-1.143-2.109-1.143
				c-1.421,0-2.27,1.128-2.27,2.695c0,1.553,0.849,2.695,2.27,2.695C208.478,474.411,209.328,473.869,209.708,473.253z"/>
			<path id="XMLID_271_" style="fill:#9EB7C7;" d="M217.413,475.29v-4.629c0-1.245-0.63-1.641-1.582-1.641
				c-0.864,0-1.685,0.527-2.094,1.099v5.171h-1.099v-7.075h1.099v1.025c0.497-0.586,1.464-1.201,2.519-1.201
				c1.48,0,2.256,0.747,2.256,2.285v4.966H217.413z"/>
			<path id="XMLID_268_" style="fill:#9EB7C7;" d="M219.932,471.745c0-2.051,1.465-3.706,3.486-3.706
				c2.139,0,3.398,1.67,3.398,3.794v0.278h-5.727c0.088,1.333,1.025,2.446,2.548,2.446c0.806,0,1.626-0.322,2.183-0.894l0.527,0.718
				c-0.703,0.703-1.655,1.084-2.813,1.084C221.441,475.465,219.932,473.957,219.932,471.745z M223.404,468.947
				c-1.509,0-2.256,1.274-2.314,2.358h4.643C225.718,470.25,225.015,468.947,223.404,468.947z"/>
			<path id="XMLID_265_" style="fill:#9EB7C7;" d="M233.35,475.29v-1.055c-0.527,0.718-1.392,1.23-2.388,1.23
				c-1.845,0-3.149-1.406-3.149-3.706c0-2.256,1.289-3.721,3.149-3.721c0.952,0,1.817,0.469,2.388,1.245v-3.765h1.098v9.771H233.35z
				 M233.35,473.371v-3.208c-0.396-0.615-1.245-1.143-2.124-1.143c-1.421,0-2.27,1.172-2.27,2.739c0,1.567,0.85,2.725,2.27,2.725
				C232.105,474.484,232.954,473.986,233.35,473.371z"/>
			<path id="XMLID_262_" style="fill:#9EB7C7;" d="M239.692,475.29v-9.771h1.099v3.765c0.571-0.776,1.421-1.245,2.388-1.245
				c1.845,0,3.149,1.465,3.149,3.721c0,2.3-1.304,3.706-3.149,3.706c-0.996,0-1.86-0.513-2.388-1.23v1.055H239.692z M242.9,474.484
				c1.436,0,2.285-1.157,2.285-2.725c0-1.567-0.85-2.739-2.285-2.739c-0.864,0-1.729,0.527-2.109,1.143v3.208
				C241.171,473.986,242.036,474.484,242.9,474.484z"/>
			<path id="XMLID_260_" style="fill:#9EB7C7;" d="M247.528,477.062c0.161,0.073,0.425,0.117,0.6,0.117
				c0.483,0,0.806-0.161,1.055-0.747l0.469-1.069l-2.959-7.148h1.187l2.358,5.801l2.344-5.801h1.2l-3.544,8.511
				c-0.425,1.024-1.143,1.421-2.08,1.436c-0.234,0-0.6-0.044-0.806-0.104L247.528,477.062z"/>
		</g>
	</g>
</g>
</svg>
