<?xml version="1.0" encoding="utf-8"?>
<!-- Generator: Adobe Illustrator 27.5.0, SVG Export Plug-In . SVG Version: 6.00 Build 0)  -->
<svg version="1.1" id="Ñëîé_1" xmlns="http://www.w3.org/2000/svg" xmlns:xlink="http://www.w3.org/1999/xlink" x="0px" y="0px"
	 viewBox="0 0 600 350" style="enable-background:new 0 0 600 350;" xml:space="preserve">
<g>
	<rect x="0" style="fill:#020230;" width="600" height="350"/>
	<g>
		<g>
			<defs>
				<rect id="SVGID_1_" x="0" y="0.062" width="600" height="349.875"/>
			</defs>
			<clipPath id="SVGID_00000109006014808813805160000003597781106263614117_">
				<use xlink:href="#SVGID_1_"  style="overflow:visible;"/>
			</clipPath>
			<g style="opacity:0.8;clip-path:url(#SVGID_00000109006014808813805160000003597781106263614117_);">
				
					<linearGradient id="SVGID_00000014593543638180927240000007224505876748331670_" gradientUnits="userSpaceOnUse" x1="1573.2056" y1="-36.0257" x2="1433.6036" y2="72.8824" gradientTransform="matrix(-1 0 0 -1 2021.929 350)">
					<stop  offset="0" style="stop-color:#183372"/>
					<stop  offset="1" style="stop-color:#020230"/>
				</linearGradient>
				<polygon style="fill:url(#SVGID_00000014593543638180927240000007224505876748331670_);" points="600,349.938 600,221.283 
					389.965,349.938 				"/>
				
					<linearGradient id="SVGID_00000180368720297073900950000004662084381313105065_" gradientUnits="userSpaceOnUse" x1="2085.4973" y1="316.8277" x2="1878.5432" y2="252.8071" gradientTransform="matrix(-1 0 0 -1 2021.929 350)">
					<stop  offset="0" style="stop-color:#183372"/>
					<stop  offset="1" style="stop-color:#020230"/>
				</linearGradient>
				<polygon style="fill:url(#SVGID_00000180368720297073900950000004662084381313105065_);" points="124.313,211.081 
					216.631,0.063 0,0.063 0,137.831 				"/>
				
					<linearGradient id="SVGID_00000181803685275707458300000016183078945409794183_" gradientUnits="userSpaceOnUse" x1="1486.6559" y1="69.4904" x2="1750.9656" y2="69.4904" gradientTransform="matrix(-1 0 0 -1 2021.929 350)">
					<stop  offset="0" style="stop-color:#183372"/>
					<stop  offset="1" style="stop-color:#020230"/>
				</linearGradient>
				<polygon style="fill:url(#SVGID_00000181803685275707458300000016183078945409794183_);" points="359.964,349.938 
					389.965,349.938 535.273,260.931 124.313,211.081 				"/>
				
					<linearGradient id="SVGID_00000029008536806585070710000009545125724572289185_" gradientUnits="userSpaceOnUse" x1="1410.656" y1="162.6815" x2="1635.1876" y2="162.6815" gradientTransform="matrix(-1 0 0 -1 2021.929 350)">
					<stop  offset="0" style="stop-color:#183372"/>
					<stop  offset="1" style="stop-color:#020230"/>
				</linearGradient>
				<polygon style="fill:url(#SVGID_00000029008536806585070710000009545125724572289185_);" points="535.273,260.931 
					480.732,113.706 310.741,233.695 				"/>
				
					<linearGradient id="SVGID_00000122679300526487777520000008603587531570177725_" gradientUnits="userSpaceOnUse" x1="1839.8651" y1="153.1108" x2="1794.9851" y2="257.8974" gradientTransform="matrix(-1 0 0 -1 2021.929 350)">
					<stop  offset="0" style="stop-color:#183372"/>
					<stop  offset="1" style="stop-color:#020230"/>
				</linearGradient>
				<polygon style="fill:url(#SVGID_00000122679300526487777520000008603587531570177725_);" points="265.78,122.075 216.631,0.063 
					124.313,211.081 				"/>
				
					<linearGradient id="SVGID_00000111904528053593607560000005832969956683299466_" gradientUnits="userSpaceOnUse" x1="1634.6875" y1="172.115" x2="1821.1165" y2="172.115" gradientTransform="matrix(-1 0 0 -1 2021.929 350)">
					<stop  offset="0" style="stop-color:#183372"/>
					<stop  offset="1" style="stop-color:#020230"/>
				</linearGradient>
				<polygon style="fill:url(#SVGID_00000111904528053593607560000005832969956683299466_);" points="310.741,233.695 
					265.78,122.075 124.313,211.081 				"/>
				
					<linearGradient id="SVGID_00000157308040969295034590000003701323524215497390_" gradientUnits="userSpaceOnUse" x1="1453.1969" y1="233.1212" x2="1717.2976" y2="233.1212" gradientTransform="matrix(-1 0 0 -1 2021.929 350)">
					<stop  offset="0" style="stop-color:#183372"/>
					<stop  offset="1" style="stop-color:#020230"/>
				</linearGradient>
				<polygon style="fill:url(#SVGID_00000157308040969295034590000003701323524215497390_);" points="310.741,233.695 
					480.732,113.706 216.631,0.063 				"/>
				
					<linearGradient id="SVGID_00000083077388536616089810000003132037109485907381_" gradientUnits="userSpaceOnUse" x1="1541.1968" y1="293.1155" x2="1805.2975" y2="293.1155" gradientTransform="matrix(-1 0 0 -1 2021.929 350)">
					<stop  offset="0" style="stop-color:#183372"/>
					<stop  offset="1" style="stop-color:#020230"/>
				</linearGradient>
				<polygon style="fill:url(#SVGID_00000083077388536616089810000003132037109485907381_);" points="480.732,113.706 
					438.631,0.063 216.631,0.063 				"/>
				
					<linearGradient id="SVGID_00000111162919016337984920000011094820666811813769_" gradientUnits="userSpaceOnUse" x1="2067.7349" y1="156.6651" x2="1913.7458" y2="41.7849" gradientTransform="matrix(-1 0 0 -1 2021.929 350)">
					<stop  offset="0" style="stop-color:#183372"/>
					<stop  offset="1" style="stop-color:#020230"/>
				</linearGradient>
				<polygon style="fill:url(#SVGID_00000111162919016337984920000011094820666811813769_);" points="208.908,260.929 0,137.831 
					0,349.938 				"/>
				
					<linearGradient id="SVGID_00000063592196043790327270000003559426405497148315_" gradientUnits="userSpaceOnUse" x1="1635.9646" y1="44.5667" x2="1800.8821" y2="44.5667" gradientTransform="matrix(-1 0 0 -1 2021.929 350)">
					<stop  offset="0" style="stop-color:#183372"/>
					<stop  offset="1" style="stop-color:#020230"/>
				</linearGradient>
				<polygon style="fill:url(#SVGID_00000063592196043790327270000003559426405497148315_);" points="359.964,349.938 
					208.908,260.929 195.047,349.938 				"/>
				
					<linearGradient id="SVGID_00000075150363273446101550000002548502054964030610_" gradientUnits="userSpaceOnUse" x1="2007.5778" y1="-47.5689" x2="1835.9272" y2="50.7323" gradientTransform="matrix(-1 0 0 -1 2021.929 350)">
					<stop  offset="0" style="stop-color:#183372"/>
					<stop  offset="1" style="stop-color:#020230"/>
				</linearGradient>
				<polygon style="fill:url(#SVGID_00000075150363273446101550000002548502054964030610_);" points="195.047,349.938 
					208.908,260.929 0,349.938 				"/>
				
					<linearGradient id="SVGID_00000107574187699553300190000011717911778439050651_" gradientUnits="userSpaceOnUse" x1="1347.9291" y1="219.5035" x2="1509.2976" y2="219.5035" gradientTransform="matrix(-1 0 0 -1 2021.929 350)">
					<stop  offset="0" style="stop-color:#183372"/>
					<stop  offset="1" style="stop-color:#020230"/>
				</linearGradient>
				<polygon style="fill:url(#SVGID_00000107574187699553300190000011717911778439050651_);" points="535.273,260.931 600,221.283 
					600,105.572 438.631,0.063 				"/>
				
					<linearGradient id="SVGID_00000170992284302934571540000006800122187181487499_" gradientUnits="userSpaceOnUse" x1="1422.4229" y1="390.1652" x2="1527.8115" y2="267.9648" gradientTransform="matrix(-1 0 0 -1 2021.929 350)">
					<stop  offset="0" style="stop-color:#183372"/>
					<stop  offset="1" style="stop-color:#020230"/>
				</linearGradient>
				<polygon style="fill:url(#SVGID_00000170992284302934571540000006800122187181487499_);" points="600,105.572 600,0.063 
					438.631,0.063 				"/>
			</g>
		</g>
		
			<rect x="379.337" y="304.599" transform="matrix(0.8518 -0.5239 0.5239 0.8518 -91.027 287.9889)" style="opacity:0.4;fill:#172F78;" width="168.262" height="0.548"/>
		
			<rect x="343.269" y="-83.452" transform="matrix(0.3957 -0.9184 0.9184 0.3957 157.3505 348.5909)" style="opacity:0.6;fill:#172F78;" width="0.549" height="276.377"/>
		<polygon style="fill:#172F78;" points="303.249,143.607 286.646,99.211 422.539,115.003 422.477,115.548 287.474,99.859 
			303.763,143.416 		"/>
		<polygon style="opacity:0.6;fill:#172F78;" points="358.13,349.174 207.865,260.901 11.807,345.206 11.59,344.702 
			207.903,260.288 208.023,260.358 358.407,348.702 		"/>
		
			<rect x="61.882" y="102.312" transform="matrix(0.5077 -0.8616 0.8616 0.5077 -119.7023 139.4424)" style="opacity:0.6;fill:#172F78;" width="0.549" height="144.288"/>
	</g>
	
		<linearGradient id="SVGID_00000088105646252994969930000001566828906782837642_" gradientUnits="userSpaceOnUse" x1="300.0001" y1="350" x2="300.0001" y2="-9.094947e-13">
		<stop  offset="0" style="stop-color:#020230"/>
		<stop  offset="0.274" style="stop-color:#030534"/>
		<stop  offset="0.5554" style="stop-color:#070D40"/>
		<stop  offset="0.8393" style="stop-color:#0D1B55"/>
		<stop  offset="1" style="stop-color:#112564"/>
	</linearGradient>
	
		<rect x="0" style="opacity:0.8;fill:url(#SVGID_00000088105646252994969930000001566828906782837642_);" width="600" height="350"/>
</g>
<g>
	
		<radialGradient id="SVGID_00000168823898322857826500000016086134740722588852_" cx="152.7665" cy="-97.9849" r="78.8054" gradientTransform="matrix(1 0 0 0.4826 0 117.9607)" gradientUnits="userSpaceOnUse">
		<stop  offset="0" style="stop-color:#F8359E"/>
		<stop  offset="0.0428" style="stop-color:#E63192"/>
		<stop  offset="0.1941" style="stop-color:#AA246C"/>
		<stop  offset="0.3446" style="stop-color:#76194B"/>
		<stop  offset="0.4909" style="stop-color:#4B1030"/>
		<stop  offset="0.6322" style="stop-color:#2B091B"/>
		<stop  offset="0.7669" style="stop-color:#13040C"/>
		<stop  offset="0.8926" style="stop-color:#050103"/>
		<stop  offset="1" style="stop-color:#000000"/>
	</radialGradient>
	
		<ellipse style="opacity:0.6;fill:url(#SVGID_00000168823898322857826500000016086134740722588852_);" cx="152.766" cy="70.673" rx="78.801" ry="38.033"/>
	<g>
		<g>
			
				<linearGradient id="SVGID_00000088113612223808896510000009468724021885197440_" gradientUnits="userSpaceOnUse" x1="118.4181" y1="69.748" x2="188.8268" y2="69.748">
				<stop  offset="0" style="stop-color:#B6246E"/>
				<stop  offset="1" style="stop-color:#F9636B"/>
			</linearGradient>
			<path style="fill:url(#SVGID_00000088113612223808896510000009468724021885197440_);" d="M178.806,79.769h-50.367
				c-5.534,0-10.021-4.486-10.021-10.021l0,0c0-5.534,4.487-10.021,10.021-10.021h50.367c5.534,0,10.021,4.486,10.021,10.021l0,0
				C188.827,75.282,184.34,79.769,178.806,79.769z"/>
		</g>
		<g>
			<path style="fill:#03A7D3;" d="M264.383,79.769h-50.367c-5.534,0-10.021-4.486-10.021-10.021l0,0
				c0-5.534,4.486-10.021,10.021-10.021h50.367c5.534,0,10.021,4.486,10.021,10.021l0,0
				C274.404,75.282,269.918,79.769,264.383,79.769z"/>
		</g>
		<g>
			<path style="fill:#FFFFFF;" d="M219.325,73.359v-7.042h0.981v6.337h1.797v0.705H219.325z"/>
			<path style="fill:#FFFFFF;" d="M222.778,73.359v-7.042h2.727v0.726h-1.746v2.328h1.419v0.701h-1.419v2.582h1.767v0.705H222.778z"
				/>
			<path style="fill:#FFFFFF;" d="M225.93,73.359l1.503-7.042h0.947l1.503,7.042h-0.934l-0.323-1.775h-1.431l-0.335,1.775H225.93z
				 M227.323,70.882h1.176l-0.59-3.182L227.323,70.882z"/>
			<path style="fill:#FFFFFF;" d="M230.598,73.359v-7.042h1.415c0.713,0,1.236,0.146,1.569,0.438
				c0.333,0.291,0.499,0.767,0.499,1.427c0,0.906-0.291,1.454-0.871,1.644l1.006,3.534h-0.951l-0.926-3.305h-0.76v3.305H230.598z
				 M231.579,69.349h0.37c0.428,0,0.733-0.084,0.916-0.253c0.183-0.168,0.274-0.474,0.274-0.915c0-0.428-0.079-0.728-0.236-0.9
				c-0.157-0.173-0.454-0.259-0.89-0.259h-0.434V69.349z"/>
			<path style="fill:#FFFFFF;" d="M235.113,73.359v-7.042h0.667l2.001,4.676v-4.676h0.82v7.042h-0.629l-2.03-4.813v4.813H235.113z"
				/>
			<path style="fill:#FFFFFF;" d="M241.671,73.359l0.132-7.042h0.96l1.245,5.713l1.253-5.713h0.96l0.132,7.042h-0.794l-0.077-5.118
				l-1.193,5.118h-0.552l-1.185-5.118l-0.077,5.118H241.671z"/>
			<path style="fill:#FFFFFF;" d="M249.227,73.435c-0.351,0-0.652-0.052-0.903-0.157c-0.251-0.104-0.449-0.259-0.597-0.463
				c-0.147-0.204-0.255-0.441-0.323-0.713c-0.068-0.272-0.102-0.59-0.102-0.952v-2.667c0-0.733,0.149-1.289,0.448-1.667
				c0.299-0.378,0.791-0.567,1.476-0.567c0.682,0,1.174,0.191,1.474,0.571c0.3,0.381,0.45,0.936,0.45,1.663v2.672
				c0,0.733-0.15,1.297-0.452,1.69C250.398,73.239,249.907,73.435,249.227,73.435z M248.749,72.578
				c0.126,0.06,0.285,0.089,0.478,0.089c0.192,0,0.352-0.029,0.478-0.089c0.126-0.059,0.222-0.15,0.287-0.272
				c0.065-0.121,0.109-0.255,0.134-0.401c0.024-0.146,0.036-0.326,0.036-0.541v-3.084c0-0.212-0.012-0.39-0.036-0.531
				c-0.024-0.142-0.069-0.272-0.134-0.391c-0.065-0.119-0.161-0.206-0.287-0.261c-0.126-0.056-0.285-0.083-0.478-0.083
				c-0.193,0-0.352,0.027-0.478,0.083c-0.126,0.055-0.222,0.142-0.287,0.261c-0.065,0.119-0.11,0.249-0.134,0.391
				c-0.024,0.142-0.036,0.319-0.036,0.531v3.084c0,0.215,0.012,0.396,0.036,0.541c0.024,0.146,0.069,0.28,0.134,0.401
				C248.528,72.427,248.624,72.518,248.749,72.578z"/>
			<path style="fill:#FFFFFF;" d="M252.124,73.359v-7.042h1.415c0.713,0,1.236,0.146,1.569,0.438
				c0.333,0.291,0.499,0.767,0.499,1.427c0,0.906-0.29,1.454-0.871,1.644l1.006,3.534h-0.951l-0.926-3.305h-0.76v3.305H252.124z
				 M253.105,69.349h0.37c0.428,0,0.733-0.084,0.916-0.253c0.183-0.168,0.274-0.474,0.274-0.915c0-0.428-0.079-0.728-0.236-0.9
				c-0.157-0.173-0.454-0.259-0.89-0.259h-0.434V69.349z"/>
			<path style="fill:#FFFFFF;" d="M256.639,73.359v-7.042h2.727v0.726h-1.746v2.328h1.419v0.701h-1.419v2.582h1.767v0.705H256.639z"
				/>
		</g>
		<g>
			<path style="fill:#FFFFFF;" d="M136.195,73.359v-6.316h-1.287v-0.726h3.508v0.726h-1.24v6.316H136.195z"/>
			<path style="fill:#FFFFFF;" d="M138.956,73.359v-7.042h1.415c0.713,0,1.236,0.146,1.569,0.438
				c0.333,0.291,0.499,0.767,0.499,1.427c0,0.906-0.291,1.454-0.871,1.644l1.006,3.534h-0.951l-0.926-3.305h-0.76v3.305H138.956z
				 M139.937,69.349h0.37c0.428,0,0.733-0.084,0.916-0.253c0.183-0.168,0.274-0.474,0.274-0.915c0-0.428-0.079-0.728-0.236-0.9
				c-0.157-0.173-0.454-0.259-0.89-0.259h-0.434V69.349z"/>
			<path style="fill:#FFFFFF;" d="M144.542,73.359v-2.484l-1.521-4.558h0.914l1.075,3.394l1.061-3.394h0.926l-1.517,4.558v2.484
				H144.542z"/>
			<path style="fill:#FFFFFF;" d="M149.69,73.359v-7.042h0.964v7.042H149.69z"/>
			<path style="fill:#FFFFFF;" d="M152.519,73.359v-6.316h-1.287v-0.726h3.508v0.726h-1.24v6.316H152.519z"/>
			<path style="fill:#FFFFFF;" d="M157.267,73.359v-7.042h0.667l2.001,4.676v-4.676h0.82v7.042h-0.629l-2.03-4.813v4.813H157.267z"
				/>
			<path style="fill:#FFFFFF;" d="M163.651,73.435c-0.351,0-0.652-0.052-0.903-0.157c-0.251-0.104-0.449-0.259-0.597-0.463
				c-0.148-0.204-0.255-0.441-0.323-0.713c-0.068-0.272-0.102-0.59-0.102-0.952v-2.667c0-0.733,0.149-1.289,0.448-1.667
				c0.299-0.378,0.791-0.567,1.476-0.567c0.682,0,1.174,0.191,1.474,0.571c0.3,0.381,0.45,0.936,0.45,1.663v2.672
				c0,0.733-0.15,1.297-0.452,1.69C164.821,73.239,164.331,73.435,163.651,73.435z M163.173,72.578
				c0.126,0.06,0.285,0.089,0.478,0.089c0.192,0,0.352-0.029,0.478-0.089c0.126-0.059,0.222-0.15,0.287-0.272
				c0.065-0.121,0.109-0.255,0.134-0.401c0.024-0.146,0.036-0.326,0.036-0.541v-3.084c0-0.212-0.012-0.39-0.036-0.531
				c-0.024-0.142-0.069-0.272-0.134-0.391c-0.065-0.119-0.161-0.206-0.287-0.261c-0.126-0.056-0.285-0.083-0.478-0.083
				c-0.193,0-0.352,0.027-0.478,0.083c-0.126,0.055-0.222,0.142-0.287,0.261c-0.065,0.119-0.11,0.249-0.134,0.391
				c-0.024,0.142-0.036,0.319-0.036,0.531v3.084c0,0.215,0.012,0.396,0.036,0.541c0.024,0.146,0.069,0.28,0.134,0.401
				C162.952,72.427,163.047,72.518,163.173,72.578z"/>
			<path style="fill:#FFFFFF;" d="M167.456,73.359l-1.151-7.042h0.824l0.751,5.063l0.952-5.042h0.697l0.956,5.063l0.735-5.084h0.803
				l-1.13,7.042h-0.714l-0.981-5.216l-0.994,5.216H167.456z"/>
		</g>
	</g>
</g>
<g>
	<path style="opacity:0.8;fill:#172F78;" d="M229.994,280.062c0,1.028-0.833,1.861-1.861,1.861c-1.028,0-1.861-0.833-1.861-1.861
		c0-1.028,0.833-1.861,1.861-1.861C229.16,278.201,229.994,279.034,229.994,280.062z"/>
	<circle style="opacity:0.4;fill:#172F78;" cx="151.944" cy="305.166" r="3.368"/>
	<circle style="opacity:0.4;fill:#172F78;" cx="194.183" cy="182.896" r="1.354"/>
	<circle style="opacity:0.6;fill:#172F78;" cx="43.847" cy="151.333" r="1.354"/>
	<circle style="opacity:0.6;fill:#172F78;" cx="112.801" cy="131.986" r="2.008"/>
	<circle style="opacity:0.8;fill:#172F78;" cx="112.801" cy="131.986" r="0.831"/>
	<g>
		<path style="opacity:0.4;fill:#03A7D3;" d="M191.492,154.947c0,1.515-1.228,2.743-2.743,2.743c-1.515,0-2.743-1.228-2.743-2.743
			c0-1.515,1.228-2.743,2.743-2.743C190.264,152.204,191.492,153.432,191.492,154.947z"/>
		<path style="opacity:0.8;fill:#03A7D3;" d="M190.097,154.947c0,0.744-0.604,1.348-1.348,1.348s-1.348-0.603-1.348-1.348
			c0-0.745,0.604-1.348,1.348-1.348S190.097,154.203,190.097,154.947z"/>
	</g>
	<path style="opacity:0.4;fill:#03A7D3;" d="M293.463,265.717c0,0.821-0.666,1.487-1.488,1.487c-0.822,0-1.488-0.666-1.488-1.487
		c0-0.822,0.666-1.488,1.488-1.488C292.797,264.229,293.463,264.895,293.463,265.717z"/>
	<path style="opacity:0.4;fill:#03A7D3;" d="M281.489,183.821c0,0.459-0.372,0.831-0.831,0.831c-0.459,0-0.831-0.372-0.831-0.831
		c0-0.459,0.372-0.831,0.831-0.831C281.117,182.99,281.489,183.362,281.489,183.821z"/>
	<path style="opacity:0.4;fill:#03A7D3;" d="M168.178,250.703c0,0.459-0.372,0.831-0.831,0.831c-0.459,0-0.831-0.372-0.831-0.831
		c0-0.459,0.372-0.831,0.831-0.831C167.805,249.872,168.178,250.244,168.178,250.703z"/>
	
		<radialGradient id="SVGID_00000069355695738488676010000015212307120065133985_" cx="96.5564" cy="207.3546" r="65.8538" gradientUnits="userSpaceOnUse">
		<stop  offset="0" style="stop-color:#F8359E"/>
		<stop  offset="0.0428" style="stop-color:#E63192"/>
		<stop  offset="0.1941" style="stop-color:#AA246C"/>
		<stop  offset="0.3446" style="stop-color:#76194B"/>
		<stop  offset="0.4909" style="stop-color:#4B1030"/>
		<stop  offset="0.6322" style="stop-color:#2B091B"/>
		<stop  offset="0.7669" style="stop-color:#13040C"/>
		<stop  offset="0.8926" style="stop-color:#050103"/>
		<stop  offset="1" style="stop-color:#000000"/>
	</radialGradient>
	
		<circle style="opacity:0.6;fill:url(#SVGID_00000069355695738488676010000015212307120065133985_);" cx="96.556" cy="207.355" r="65.854"/>
	
		<radialGradient id="SVGID_00000023988674477198445020000007789913990250812297_" cx="264.2686" cy="182.3068" r="65.8537" gradientUnits="userSpaceOnUse">
		<stop  offset="0" style="stop-color:#F8359E"/>
		<stop  offset="0.0428" style="stop-color:#E63192"/>
		<stop  offset="0.1941" style="stop-color:#AA246C"/>
		<stop  offset="0.3446" style="stop-color:#76194B"/>
		<stop  offset="0.4909" style="stop-color:#4B1030"/>
		<stop  offset="0.6322" style="stop-color:#2B091B"/>
		<stop  offset="0.7669" style="stop-color:#13040C"/>
		<stop  offset="0.8926" style="stop-color:#050103"/>
		<stop  offset="1" style="stop-color:#000000"/>
	</radialGradient>
	
		<circle style="opacity:0.6;fill:url(#SVGID_00000023988674477198445020000007789913990250812297_);" cx="264.269" cy="182.307" r="65.854"/>
	
		<radialGradient id="SVGID_00000071531042262243308280000000342673356920600221_" cx="348.3138" cy="159.8519" r="65.8538" gradientUnits="userSpaceOnUse">
		<stop  offset="0" style="stop-color:#F8359E"/>
		<stop  offset="0.0428" style="stop-color:#E63192"/>
		<stop  offset="0.1941" style="stop-color:#AA246C"/>
		<stop  offset="0.3446" style="stop-color:#76194B"/>
		<stop  offset="0.4909" style="stop-color:#4B1030"/>
		<stop  offset="0.6322" style="stop-color:#2B091B"/>
		<stop  offset="0.7669" style="stop-color:#13040C"/>
		<stop  offset="0.8926" style="stop-color:#050103"/>
		<stop  offset="1" style="stop-color:#000000"/>
	</radialGradient>
	
		<circle style="opacity:0.6;fill:url(#SVGID_00000071531042262243308280000000342673356920600221_);" cx="348.314" cy="159.852" r="65.854"/>
	<g>
		<path style="opacity:0.6;fill:#172F78;" d="M72.331,253.335c7.321-2.124,15.983-3.32,25.227-3.244
			c1.22,0.01,2.428,0.042,3.623,0.095c8.118,0.741,11.005,9.314,6.11,13.065c-2.246,1.722-4.954,1.703-6.11,1.696
			c-1.195-0.053-2.403-0.085-3.623-0.095c-9.244-0.076-17.906,1.12-25.227,3.244c-7.393,1.801-7.829-5.712-5.244-10.307
			C67.956,256.242,69.572,254.215,72.331,253.335L72.331,253.335z"/>
		<path style="fill:#03A7D3;" d="M70.253,268.525c-1.956,0-3.066-0.836-3.684-1.652c-1.78-2.348-1.133-6.473,0.379-9.162
			c0.884-1.57,2.526-3.63,5.334-4.526l0.004-0.001c7.348-2.132,15.784-3.253,24.445-3.253c0.276,0,0.551,0.001,0.828,0.003
			c1.199,0.01,2.42,0.042,3.628,0.095c4.081,0.373,7.361,2.858,8.366,6.333c0.782,2.704-0.048,5.393-2.166,7.015
			c-2.289,1.755-5.035,1.728-6.207,1.729c-1.202-0.054-2.419-0.086-3.623-0.096c-0.271-0.003-0.544-0.004-0.815-0.004
			c-8.637,0-17.045,1.117-24.367,3.241C71.576,268.442,70.872,268.525,70.253,268.525z M72.377,253.486
			c-2.708,0.865-4.296,2.859-5.152,4.379c-1.463,2.602-2.102,6.576-0.403,8.817c1.085,1.431,2.976,1.864,5.472,1.26
			c7.344-2.131,15.783-3.252,24.449-3.252c0.273,0,0.544,0.001,0.818,0.003c1.208,0.01,2.429,0.042,3.628,0.096
			c1.126,0.011,3.803,0.025,6.007-1.663c2.012-1.542,2.8-4.101,2.055-6.678c-0.968-3.348-4.141-5.744-8.084-6.104
			c-1.197-0.053-2.414-0.084-3.61-0.094C88.636,250.158,79.929,251.296,72.377,253.486z"/>
	</g>
	<g>
		<path style="fill:#03A7D3;" d="M96.685,295.663c-1.439,0-2.877-0.316-3.973-0.949L66,279.292c-1.108-0.64-1.719-1.505-1.719-2.438
			c0-0.932,0.61-1.797,1.719-2.436l26.57-15.451c2.191-1.264,5.756-1.266,7.946,0l26.712,15.423
			c1.108,0.639,1.719,1.505,1.719,2.436c0,0.932-0.61,1.798-1.719,2.436l-26.57,15.451
			C99.563,295.346,98.123,295.663,96.685,295.663z M96.544,258.507c-1.349,0-2.697,0.297-3.725,0.889l-26.57,15.451
			c-0.949,0.548-1.471,1.261-1.471,2.007c0,0.747,0.522,1.46,1.47,2.008l26.712,15.422c2.054,1.185,5.396,1.185,7.449,0
			l26.57-15.451c0.949-0.547,1.471-1.26,1.471-2.007c0-0.747-0.522-1.46-1.47-2.007l-26.712-15.423
			C99.242,258.804,97.893,258.507,96.544,258.507z"/>
		<g>
			
				<linearGradient id="SVGID_00000119818224979863667360000006477663139819956625_" gradientUnits="userSpaceOnUse" x1="60.8035" y1="268.4103" x2="106.053" y2="268.4103">
				<stop  offset="0" style="stop-color:#01C8EF"/>
				<stop  offset="0.1297" style="stop-color:#04B1DD"/>
				<stop  offset="0.5466" style="stop-color:#0E6BA7"/>
				<stop  offset="0.8476" style="stop-color:#154085"/>
				<stop  offset="1" style="stop-color:#172F78"/>
			</linearGradient>
			<path style="fill:url(#SVGID_00000119818224979863667360000006477663139819956625_);" d="M128.83,268.396L128.83,268.396
				l-0.004-12.807l-16.184,2.159l-12.118-6.997c-2.125-1.227-5.572-1.227-7.697,0l-1.887,1.199l-26.276,3.506v12.957
				c0,0.007,0,0.014,0,0.022v0.061l0.01-0.002c0.03,0.781,0.551,1.556,1.582,2.152l26.712,15.422c2.126,1.227,5.572,1.227,7.697,0
				l26.571-15.451c1.029-0.594,1.548-1.366,1.581-2.145l0.013-0.002V268.396z"/>
			
				<radialGradient id="SVGID_00000064317582238466054450000015221141360672754074_" cx="52.7798" cy="234.4795" r="101.0514" gradientUnits="userSpaceOnUse">
				<stop  offset="0" style="stop-color:#01C8EF"/>
				<stop  offset="0.1396" style="stop-color:#03BAE4"/>
				<stop  offset="0.4033" style="stop-color:#0895C8"/>
				<stop  offset="0.76" style="stop-color:#115A9A"/>
				<stop  offset="1" style="stop-color:#172F78"/>
			</radialGradient>
			<path style="fill:url(#SVGID_00000064317582238466054450000015221141360672754074_);" d="M127.236,253.271l-26.712-15.422
				c-2.126-1.227-5.572-1.227-7.697,0L66.255,253.3c-2.126,1.227-2.126,3.217,0,4.444l26.712,15.422
				c2.125,1.227,5.572,1.227,7.697,0l26.571-15.451C129.361,256.488,129.361,254.498,127.236,253.271z"/>
			<path style="fill:#FFFFFF;" d="M127.236,256.939l-26.571,15.451c-2.126,1.227-5.572,1.227-7.697,0l-26.712-15.422
				c-0.891-0.515-1.404-1.164-1.547-1.834c-0.199,0.928,0.313,1.897,1.547,2.61l26.712,15.422c2.125,1.227,5.572,1.227,7.697,0
				l26.571-15.451c1.234-0.713,1.747-1.682,1.548-2.61C128.64,255.775,128.127,256.424,127.236,256.939z"/>
			<g>
				<polygon style="fill:#FFFFFF;" points="104.256,276.585 102.991,277.315 102.991,275.854 104.256,275.124 				"/>
				<polygon style="fill:#FFFFFF;" points="106.902,275.057 105.637,275.787 105.637,274.327 106.902,273.597 				"/>
				<polygon style="fill:#FFFFFF;" points="109.547,273.53 108.283,274.26 108.283,272.8 109.547,272.069 				"/>
				<polygon style="fill:#FFFFFF;" points="107.384,277.737 106.12,278.467 106.12,277.007 107.384,276.277 				"/>
				<polygon style="fill:#FFFFFF;" points="109.714,276.392 108.449,277.122 108.449,275.662 109.714,274.932 				"/>
				<polygon style="fill:#FFFFFF;" points="118.033,268.63 116.769,269.36 116.769,267.9 118.033,267.17 				"/>
				<polygon style="fill:#FFFFFF;" points="125.321,264.423 124.056,265.153 124.056,263.693 125.321,262.962 				"/>
				<polygon style="fill:#FFFFFF;" points="112.193,272.002 110.928,272.732 110.928,271.272 112.193,270.542 				"/>
			</g>
		</g>
		<path style="opacity:0.4;fill:#06033E;" d="M95.234,266.651l-17.972-10.376c-0.73-0.422-0.639-1.158,0.205-1.645l17.562-10.139
			c0.843-0.487,2.119-0.54,2.85-0.118l17.972,10.376c0.73,0.422,0.639,1.158-0.205,1.645l-17.562,10.139
			C97.241,267.02,95.965,267.073,95.234,266.651z"/>
		<path style="fill:#FFFFFF;" d="M88.163,277.882l-14.83-8.562c-0.354-0.204-0.641-0.753-0.641-1.225v-1.101
			c0-0.472,0.287-0.689,0.641-0.485l14.83,8.562c0.354,0.204,0.641,0.753,0.641,1.225v1.101
			C88.804,277.869,88.518,278.086,88.163,277.882z"/>
		<g>
			
				<linearGradient id="SVGID_00000069378106458162281460000005594807105003896457_" gradientUnits="userSpaceOnUse" x1="60.8035" y1="244.3833" x2="106.053" y2="244.3833">
				<stop  offset="0" style="stop-color:#01C8EF"/>
				<stop  offset="0.1297" style="stop-color:#04B1DD"/>
				<stop  offset="0.5466" style="stop-color:#0E6BA7"/>
				<stop  offset="0.8476" style="stop-color:#154085"/>
				<stop  offset="1" style="stop-color:#172F78"/>
			</linearGradient>
			<path style="fill:url(#SVGID_00000069378106458162281460000005594807105003896457_);" d="M128.83,244.369L128.83,244.369
				l-0.004-12.807l-16.184,2.159l-12.118-6.997c-2.125-1.227-5.572-1.227-7.697,0l-1.887,1.2l-26.276,3.506v12.957
				c0,0.007,0,0.014,0,0.022v0.061l0.01-0.002c0.03,0.781,0.551,1.556,1.582,2.152l26.712,15.422c2.126,1.227,5.572,1.227,7.697,0
				l26.571-15.451c1.029-0.594,1.548-1.367,1.581-2.145l0.013-0.002V244.369z"/>
			
				<radialGradient id="SVGID_00000146489275023709714530000000527496014117939616_" cx="52.7798" cy="210.4524" r="101.0514" gradientUnits="userSpaceOnUse">
				<stop  offset="0" style="stop-color:#01C8EF"/>
				<stop  offset="0.1396" style="stop-color:#03BAE4"/>
				<stop  offset="0.4033" style="stop-color:#0895C8"/>
				<stop  offset="0.76" style="stop-color:#115A9A"/>
				<stop  offset="1" style="stop-color:#172F78"/>
			</radialGradient>
			<path style="fill:url(#SVGID_00000146489275023709714530000000527496014117939616_);" d="M127.236,229.244l-26.712-15.422
				c-2.126-1.227-5.572-1.227-7.697,0l-26.571,15.451c-2.126,1.227-2.126,3.217,0,4.444l26.712,15.422
				c2.125,1.227,5.572,1.227,7.697,0l26.571-15.451C129.361,232.461,129.361,230.471,127.236,229.244z"/>
			<path style="opacity:0.4;fill:#06033E;" d="M114.512,230.177l-15.565-8.986c-1.239-0.715-3.246-0.715-4.485,0l-15.482,9.003
				c-1.239,0.715-1.239,1.874,0,2.589l15.565,8.986c1.239,0.715,3.246,0.715,4.485,0l15.482-9.003
				C115.75,232.052,115.75,230.893,114.512,230.177z"/>
			<path style="fill:#FFFFFF;" d="M127.236,232.912l-26.571,15.451c-2.126,1.227-5.572,1.227-7.697,0l-26.712-15.422
				c-0.891-0.515-1.404-1.164-1.547-1.834c-0.199,0.928,0.313,1.897,1.547,2.61l26.712,15.422c2.125,1.227,5.572,1.227,7.697,0
				l26.571-15.451c1.234-0.712,1.747-1.682,1.548-2.61C128.64,231.749,128.127,232.398,127.236,232.912z"/>
			<g>
				<polygon style="fill:#FFFFFF;" points="104.256,252.557 102.991,253.288 102.991,251.827 104.256,251.097 				"/>
				<polygon style="fill:#FFFFFF;" points="106.902,251.03 105.637,251.76 105.637,250.3 106.902,249.57 				"/>
				<polygon style="fill:#FFFFFF;" points="109.547,249.503 108.283,250.233 108.283,248.773 109.547,248.042 				"/>
				<polygon style="fill:#FFFFFF;" points="107.384,253.71 106.12,254.44 106.12,252.98 107.384,252.25 				"/>
				<polygon style="fill:#FFFFFF;" points="109.714,252.365 108.449,253.095 108.449,251.635 109.714,250.905 				"/>
				<polygon style="fill:#FFFFFF;" points="118.033,244.603 116.769,245.333 116.769,243.873 118.033,243.143 				"/>
				<polygon style="fill:#FFFFFF;" points="125.321,240.396 124.056,241.126 124.056,239.666 125.321,238.936 				"/>
				<polygon style="fill:#FFFFFF;" points="112.193,247.975 110.928,248.705 110.928,247.245 112.193,246.515 				"/>
			</g>
		</g>
		<g>
			
				<linearGradient id="SVGID_00000175324572326935311940000016895702919988121013_" gradientUnits="userSpaceOnUse" x1="60.8035" y1="220.3563" x2="106.053" y2="220.3563">
				<stop  offset="0" style="stop-color:#01C8EF"/>
				<stop  offset="0.1297" style="stop-color:#04B1DD"/>
				<stop  offset="0.5466" style="stop-color:#0E6BA7"/>
				<stop  offset="0.8476" style="stop-color:#154085"/>
				<stop  offset="1" style="stop-color:#172F78"/>
			</linearGradient>
			<path style="fill:url(#SVGID_00000175324572326935311940000016895702919988121013_);" d="M128.83,220.342L128.83,220.342
				l-0.004-12.807l-16.184,2.159l-12.118-6.997c-2.125-1.227-5.572-1.227-7.697,0l-1.887,1.199l-26.276,3.506v12.957
				c0,0.007,0,0.014,0,0.022v0.061l0.01-0.002c0.03,0.781,0.551,1.556,1.582,2.152l26.712,15.422c2.126,1.227,5.572,1.227,7.697,0
				l26.571-15.451c1.029-0.594,1.548-1.367,1.581-2.145l0.013-0.002V220.342z"/>
			
				<radialGradient id="SVGID_00000176751071645017204930000010791895359164758421_" cx="52.7798" cy="186.4254" r="101.0514" gradientUnits="userSpaceOnUse">
				<stop  offset="0" style="stop-color:#01C8EF"/>
				<stop  offset="0.1396" style="stop-color:#03BAE4"/>
				<stop  offset="0.4033" style="stop-color:#0895C8"/>
				<stop  offset="0.76" style="stop-color:#115A9A"/>
				<stop  offset="1" style="stop-color:#172F78"/>
			</radialGradient>
			<path style="fill:url(#SVGID_00000176751071645017204930000010791895359164758421_);" d="M127.236,205.217l-26.712-15.422
				c-2.126-1.227-5.572-1.227-7.697,0l-26.571,15.451c-2.126,1.227-2.126,3.217,0,4.444l26.712,15.422
				c2.125,1.227,5.572,1.227,7.697,0l26.571-15.451C129.361,208.434,129.361,206.444,127.236,205.217z"/>
			
				<radialGradient id="SVGID_00000087389797852778424060000013555547227383982757_" cx="61.6967" cy="192.5146" r="69.4764" gradientUnits="userSpaceOnUse">
				<stop  offset="0" style="stop-color:#F9636B"/>
				<stop  offset="1" style="stop-color:#B6246E"/>
			</radialGradient>
			<path style="fill:url(#SVGID_00000087389797852778424060000013555547227383982757_);" d="M127.236,205.217l-26.712-15.422
				c-2.126-1.227-5.572-1.227-7.697,0l-26.571,15.451c-2.126,1.227-2.126,3.217,0,4.444l26.712,15.422
				c2.125,1.227,5.572,1.227,7.697,0l26.571-15.451C129.361,208.434,129.361,206.444,127.236,205.217z"/>
			<path style="fill:#8B1E64;" d="M96.791,220.115c-0.98,0-1.959-0.22-2.723-0.66L76.37,209.236
				c-0.793-0.459-1.23-1.088-1.229-1.773c0-0.686,0.437-1.314,1.229-1.772l17.605-10.236c1.528-0.883,3.92-0.882,5.448-0.001
				l17.699,10.218c0.793,0.458,1.23,1.088,1.23,1.773c0,0.686-0.437,1.316-1.23,1.774l-17.604,10.236
				C98.752,219.894,97.772,220.115,96.791,220.115z M96.699,195.486c-0.861,0-1.721,0.189-2.376,0.568l-17.605,10.236
				c-0.57,0.329-0.883,0.745-0.884,1.172c0,0.427,0.313,0.844,0.883,1.172l17.699,10.219c1.311,0.756,3.443,0.756,4.753,0
				l17.604-10.236c0.57-0.329,0.884-0.746,0.884-1.173c0-0.427-0.314-0.844-0.883-1.172l-17.699-10.218
				C98.42,195.675,97.56,195.486,96.699,195.486z"/>
			<path style="fill:#FFFFFF;" d="M127.236,208.885l-26.571,15.451c-2.126,1.227-5.572,1.227-7.697,0l-26.712-15.422
				c-0.891-0.515-1.404-1.164-1.547-1.834c-0.199,0.928,0.313,1.897,1.547,2.61l26.712,15.422c2.125,1.227,5.572,1.227,7.697,0
				l26.571-15.451c1.234-0.712,1.747-1.682,1.548-2.61C128.64,207.721,128.127,208.37,127.236,208.885z"/>
			<g>
				<polygon style="fill:#FFFFFF;" points="104.256,228.531 102.991,229.261 102.991,227.8 104.256,227.07 				"/>
				<polygon style="fill:#FFFFFF;" points="106.902,227.003 105.637,227.733 105.637,226.273 106.902,225.543 				"/>
				<polygon style="fill:#FFFFFF;" points="109.547,225.476 108.283,226.206 108.283,224.745 109.547,224.015 				"/>
				<polygon style="fill:#FFFFFF;" points="107.384,229.683 106.12,230.413 106.12,228.953 107.384,228.223 				"/>
				<polygon style="fill:#FFFFFF;" points="109.714,228.338 108.449,229.068 108.449,227.608 109.714,226.878 				"/>
				<polygon style="fill:#FFFFFF;" points="118.033,220.576 116.769,221.306 116.769,219.846 118.033,219.116 				"/>
				<polygon style="fill:#FFFFFF;" points="125.321,216.369 124.056,217.099 124.056,215.639 125.321,214.908 				"/>
				<polygon style="fill:#FFFFFF;" points="112.193,223.948 110.928,224.678 110.928,223.218 112.193,222.488 				"/>
			</g>
		</g>
	</g>
	<g>
		<path style="fill:#03A7D3;" d="M180.541,295.663c-1.439,0-2.877-0.316-3.973-0.949l-26.712-15.422
			c-1.108-0.64-1.719-1.505-1.719-2.438c0-0.932,0.61-1.797,1.719-2.436l26.57-15.451c2.192-1.264,5.756-1.266,7.946,0
			l26.712,15.423c1.108,0.639,1.719,1.505,1.719,2.436c0,0.932-0.61,1.798-1.719,2.436l-26.57,15.451
			C183.419,295.346,181.98,295.663,180.541,295.663z M180.4,258.507c-1.349,0-2.697,0.296-3.725,0.889l-26.57,15.451
			c-0.949,0.548-1.471,1.261-1.471,2.007c0,0.747,0.522,1.46,1.47,2.008l26.712,15.422c2.054,1.185,5.395,1.185,7.449,0
			l26.57-15.451c0.949-0.547,1.471-1.26,1.471-2.007c0-0.747-0.522-1.46-1.47-2.007l-26.712-15.423
			C183.098,258.804,181.749,258.507,180.4,258.507z"/>
		<g>
			
				<linearGradient id="SVGID_00000118399129166464474930000003956379118397363385_" gradientUnits="userSpaceOnUse" x1="144.6596" y1="268.4103" x2="189.9091" y2="268.4103">
				<stop  offset="0" style="stop-color:#01C8EF"/>
				<stop  offset="0.1297" style="stop-color:#04B1DD"/>
				<stop  offset="0.5466" style="stop-color:#0E6BA7"/>
				<stop  offset="0.8476" style="stop-color:#154085"/>
				<stop  offset="1" style="stop-color:#172F78"/>
			</linearGradient>
			<path style="fill:url(#SVGID_00000118399129166464474930000003956379118397363385_);" d="M212.686,268.396L212.686,268.396
				l-0.004-12.807l-16.184,2.159l-12.118-6.997c-2.126-1.227-5.572-1.227-7.697,0l-1.887,1.199l-26.276,3.506v12.957
				c0,0.007,0,0.014,0,0.022v0.061l0.01-0.002c0.03,0.781,0.551,1.556,1.582,2.152l26.712,15.422c2.126,1.227,5.572,1.227,7.697,0
				l26.571-15.451c1.029-0.594,1.548-1.366,1.581-2.145l0.013-0.002V268.396z"/>
			
				<radialGradient id="SVGID_00000009554826930394289950000010389589669439190423_" cx="136.6359" cy="234.4795" r="101.0514" gradientUnits="userSpaceOnUse">
				<stop  offset="0" style="stop-color:#01C8EF"/>
				<stop  offset="0.1396" style="stop-color:#03BAE4"/>
				<stop  offset="0.4033" style="stop-color:#0895C8"/>
				<stop  offset="0.76" style="stop-color:#115A9A"/>
				<stop  offset="1" style="stop-color:#172F78"/>
			</radialGradient>
			<path style="fill:url(#SVGID_00000009554826930394289950000010389589669439190423_);" d="M211.092,253.271l-26.712-15.422
				c-2.126-1.227-5.572-1.227-7.697,0L150.111,253.3c-2.126,1.227-2.126,3.217,0,4.444l26.712,15.422
				c2.126,1.227,5.572,1.227,7.697,0l26.571-15.451C213.218,256.488,213.217,254.498,211.092,253.271z"/>
			<path style="fill:#FFFFFF;" d="M211.092,256.939l-26.571,15.451c-2.126,1.227-5.572,1.227-7.697,0l-26.712-15.422
				c-0.891-0.515-1.404-1.164-1.548-1.834c-0.199,0.928,0.313,1.897,1.548,2.61l26.712,15.422c2.126,1.227,5.572,1.227,7.697,0
				l26.571-15.451c1.234-0.713,1.747-1.682,1.548-2.61C212.496,255.775,211.983,256.424,211.092,256.939z"/>
			<g>
				<polygon style="fill:#FFFFFF;" points="188.112,276.585 186.848,277.315 186.848,275.854 188.112,275.124 				"/>
				<polygon style="fill:#FFFFFF;" points="190.758,275.057 189.493,275.787 189.493,274.327 190.758,273.597 				"/>
				<polygon style="fill:#FFFFFF;" points="193.403,273.53 192.139,274.26 192.139,272.8 193.403,272.069 				"/>
				<polygon style="fill:#FFFFFF;" points="191.24,277.737 189.976,278.467 189.976,277.007 191.24,276.277 				"/>
				<polygon style="fill:#FFFFFF;" points="193.57,276.392 192.305,277.122 192.305,275.662 193.57,274.932 				"/>
				<polygon style="fill:#FFFFFF;" points="201.889,268.63 200.625,269.36 200.625,267.9 201.889,267.17 				"/>
				<polygon style="fill:#FFFFFF;" points="209.177,264.423 207.913,265.153 207.913,263.693 209.177,262.962 				"/>
				<polygon style="fill:#FFFFFF;" points="196.049,272.002 194.784,272.732 194.784,271.272 196.049,270.542 				"/>
			</g>
		</g>
		<path style="opacity:0.4;fill:#06033E;" d="M179.09,266.651l-17.972-10.376c-0.73-0.422-0.639-1.158,0.205-1.645l17.562-10.139
			c0.844-0.487,2.119-0.54,2.85-0.118l17.972,10.376c0.73,0.422,0.639,1.158-0.205,1.645l-17.562,10.139
			C181.097,267.02,179.821,267.073,179.09,266.651z"/>
		<path style="fill:#FFFFFF;" d="M172.02,277.882l-14.83-8.562c-0.354-0.204-0.641-0.753-0.641-1.225v-1.101
			c0-0.472,0.287-0.689,0.641-0.485l14.83,8.562c0.354,0.204,0.641,0.753,0.641,1.225v1.101
			C172.661,277.869,172.374,278.086,172.02,277.882z"/>
		<g>
			
				<linearGradient id="SVGID_00000151516435270055999360000009551387284088261252_" gradientUnits="userSpaceOnUse" x1="144.6596" y1="244.3833" x2="189.9091" y2="244.3833">
				<stop  offset="0" style="stop-color:#01C8EF"/>
				<stop  offset="0.1297" style="stop-color:#04B1DD"/>
				<stop  offset="0.5466" style="stop-color:#0E6BA7"/>
				<stop  offset="0.8476" style="stop-color:#154085"/>
				<stop  offset="1" style="stop-color:#172F78"/>
			</linearGradient>
			<path style="fill:url(#SVGID_00000151516435270055999360000009551387284088261252_);" d="M212.686,244.369L212.686,244.369
				l-0.004-12.807l-16.184,2.159l-12.118-6.997c-2.126-1.227-5.572-1.227-7.697,0l-1.887,1.2l-26.276,3.506v12.957
				c0,0.007,0,0.014,0,0.022v0.061l0.01-0.002c0.03,0.781,0.551,1.556,1.582,2.152l26.712,15.422c2.126,1.227,5.572,1.227,7.697,0
				l26.571-15.451c1.029-0.594,1.548-1.367,1.581-2.145l0.013-0.002V244.369z"/>
			
				<radialGradient id="SVGID_00000091735990039102577290000004656357504865319562_" cx="136.6359" cy="210.4524" r="101.0514" gradientUnits="userSpaceOnUse">
				<stop  offset="0" style="stop-color:#01C8EF"/>
				<stop  offset="0.1396" style="stop-color:#03BAE4"/>
				<stop  offset="0.4033" style="stop-color:#0895C8"/>
				<stop  offset="0.76" style="stop-color:#115A9A"/>
				<stop  offset="1" style="stop-color:#172F78"/>
			</radialGradient>
			<path style="fill:url(#SVGID_00000091735990039102577290000004656357504865319562_);" d="M211.092,229.244l-26.712-15.422
				c-2.126-1.227-5.572-1.227-7.697,0l-26.571,15.451c-2.126,1.227-2.126,3.217,0,4.444l26.712,15.422
				c2.126,1.227,5.572,1.227,7.697,0l26.571-15.451C213.218,232.461,213.217,230.471,211.092,229.244z"/>
			<path style="fill:#FFFFFF;" d="M211.092,232.912l-26.571,15.451c-2.126,1.227-5.572,1.227-7.697,0l-26.712-15.422
				c-0.891-0.515-1.404-1.164-1.548-1.834c-0.199,0.928,0.313,1.897,1.548,2.61l26.712,15.422c2.126,1.227,5.572,1.227,7.697,0
				l26.571-15.451c1.234-0.712,1.747-1.682,1.548-2.61C212.496,231.749,211.983,232.398,211.092,232.912z"/>
			<g>
				<polygon style="fill:#FFFFFF;" points="188.112,252.557 186.848,253.288 186.848,251.827 188.112,251.097 				"/>
				<polygon style="fill:#FFFFFF;" points="190.758,251.03 189.493,251.76 189.493,250.3 190.758,249.57 				"/>
				<polygon style="fill:#FFFFFF;" points="193.403,249.503 192.139,250.233 192.139,248.773 193.403,248.042 				"/>
				<polygon style="fill:#FFFFFF;" points="191.24,253.71 189.976,254.44 189.976,252.98 191.24,252.25 				"/>
				<polygon style="fill:#FFFFFF;" points="193.57,252.365 192.305,253.095 192.305,251.635 193.57,250.905 				"/>
				<polygon style="fill:#FFFFFF;" points="201.889,244.603 200.625,245.333 200.625,243.873 201.889,243.143 				"/>
				<polygon style="fill:#FFFFFF;" points="209.177,240.396 207.913,241.126 207.913,239.666 209.177,238.936 				"/>
				<polygon style="fill:#FFFFFF;" points="196.049,247.975 194.784,248.705 194.784,247.245 196.049,246.515 				"/>
			</g>
		</g>
	</g>
	<g>
		<path style="fill:#03A7D3;" d="M264.397,295.663c-1.439,0-2.878-0.316-3.973-0.949l-26.712-15.422
			c-1.108-0.64-1.719-1.505-1.719-2.438c0-0.932,0.61-1.797,1.719-2.436l26.57-15.451c2.191-1.264,5.756-1.266,7.946,0
			l26.712,15.423c1.108,0.639,1.719,1.505,1.719,2.436c0,0.932-0.61,1.798-1.719,2.436l-26.57,15.451
			C267.275,295.346,265.836,295.663,264.397,295.663z M264.256,258.507c-1.349,0-2.697,0.296-3.725,0.889l-26.57,15.451
			c-0.949,0.548-1.471,1.261-1.471,2.007c0,0.747,0.522,1.46,1.47,2.008l26.712,15.422c2.054,1.186,5.396,1.185,7.45,0l26.57-15.451
			c0.949-0.547,1.471-1.26,1.471-2.007c0-0.747-0.522-1.46-1.47-2.007l-26.712-15.423
			C266.954,258.804,265.605,258.507,264.256,258.507z"/>
		<g>
			
				<linearGradient id="SVGID_00000145016512190074586410000003668707468633883036_" gradientUnits="userSpaceOnUse" x1="228.5158" y1="268.4103" x2="273.7653" y2="268.4103">
				<stop  offset="0" style="stop-color:#01C8EF"/>
				<stop  offset="0.1297" style="stop-color:#04B1DD"/>
				<stop  offset="0.5466" style="stop-color:#0E6BA7"/>
				<stop  offset="0.8476" style="stop-color:#154085"/>
				<stop  offset="1" style="stop-color:#172F78"/>
			</linearGradient>
			<path style="fill:url(#SVGID_00000145016512190074586410000003668707468633883036_);" d="M296.542,268.396L296.542,268.396
				l-0.004-12.807l-16.184,2.159l-12.118-6.997c-2.126-1.227-5.572-1.227-7.697,0l-1.887,1.199l-26.276,3.506v12.957
				c0,0.007,0,0.014,0,0.022v0.061l0.01-0.002c0.03,0.781,0.551,1.556,1.582,2.152l26.712,15.422c2.126,1.227,5.572,1.227,7.697,0
				l26.571-15.451c1.029-0.594,1.548-1.366,1.581-2.145l0.013-0.002V268.396z"/>
			
				<radialGradient id="SVGID_00000019647594122948904580000017880520905775543436_" cx="220.492" cy="234.4795" r="101.0514" gradientUnits="userSpaceOnUse">
				<stop  offset="0" style="stop-color:#01C8EF"/>
				<stop  offset="0.1396" style="stop-color:#03BAE4"/>
				<stop  offset="0.4033" style="stop-color:#0895C8"/>
				<stop  offset="0.76" style="stop-color:#115A9A"/>
				<stop  offset="1" style="stop-color:#172F78"/>
			</radialGradient>
			<path style="fill:url(#SVGID_00000019647594122948904580000017880520905775543436_);" d="M294.948,253.271l-26.712-15.422
				c-2.126-1.227-5.572-1.227-7.697,0L233.967,253.3c-2.126,1.227-2.126,3.217,0,4.444l26.712,15.422
				c2.126,1.227,5.572,1.227,7.697,0l26.571-15.451C297.074,256.488,297.074,254.498,294.948,253.271z"/>
			<path style="fill:#FFFFFF;" d="M294.948,256.939l-26.571,15.451c-2.126,1.227-5.572,1.227-7.697,0l-26.712-15.422
				c-0.891-0.515-1.404-1.164-1.548-1.834c-0.199,0.928,0.313,1.897,1.548,2.61l26.712,15.422c2.126,1.227,5.572,1.227,7.697,0
				l26.571-15.451c1.234-0.713,1.747-1.682,1.548-2.61C296.352,255.775,295.839,256.424,294.948,256.939z"/>
			<g>
				<polygon style="fill:#FFFFFF;" points="271.968,276.585 270.704,277.315 270.704,275.854 271.968,275.124 				"/>
				<polygon style="fill:#FFFFFF;" points="274.614,275.057 273.349,275.787 273.349,274.327 274.614,273.597 				"/>
				<polygon style="fill:#FFFFFF;" points="277.259,273.53 275.995,274.26 275.995,272.8 277.259,272.069 				"/>
				<polygon style="fill:#FFFFFF;" points="275.096,277.737 273.832,278.467 273.832,277.007 275.096,276.277 				"/>
				<polygon style="fill:#FFFFFF;" points="277.426,276.392 276.161,277.122 276.161,275.662 277.426,274.932 				"/>
				<polygon style="fill:#FFFFFF;" points="285.745,268.63 284.481,269.36 284.481,267.9 285.745,267.17 				"/>
				<polygon style="fill:#FFFFFF;" points="293.033,264.423 291.769,265.153 291.769,263.693 293.033,262.962 				"/>
				<polygon style="fill:#FFFFFF;" points="279.905,272.002 278.641,272.732 278.641,271.272 279.905,270.542 				"/>
			</g>
		</g>
		<path style="opacity:0.4;fill:#06033E;" d="M262.946,266.651l-17.972-10.376c-0.73-0.422-0.639-1.158,0.205-1.645l17.562-10.139
			c0.844-0.487,2.12-0.54,2.85-0.118l17.972,10.376c0.73,0.422,0.639,1.158-0.205,1.645l-17.562,10.139
			C264.953,267.02,263.677,267.073,262.946,266.651z"/>
		<path style="fill:#FFFFFF;" d="M255.876,277.882l-14.83-8.562c-0.354-0.204-0.641-0.753-0.641-1.225v-1.101
			c0-0.472,0.287-0.689,0.641-0.485l14.83,8.562c0.354,0.204,0.641,0.753,0.641,1.225v1.101
			C256.517,277.869,256.23,278.086,255.876,277.882z"/>
		<g>
			
				<linearGradient id="SVGID_00000139285575546746195910000014081790942545491899_" gradientUnits="userSpaceOnUse" x1="228.5158" y1="244.3833" x2="273.7653" y2="244.3833">
				<stop  offset="0" style="stop-color:#01C8EF"/>
				<stop  offset="0.1297" style="stop-color:#04B1DD"/>
				<stop  offset="0.5466" style="stop-color:#0E6BA7"/>
				<stop  offset="0.8476" style="stop-color:#154085"/>
				<stop  offset="1" style="stop-color:#172F78"/>
			</linearGradient>
			<path style="fill:url(#SVGID_00000139285575546746195910000014081790942545491899_);" d="M296.542,244.369L296.542,244.369
				l-0.004-12.807l-16.184,2.159l-12.118-6.997c-2.126-1.227-5.572-1.227-7.697,0l-1.887,1.2l-26.276,3.506v12.957
				c0,0.007,0,0.014,0,0.022v0.061l0.01-0.002c0.03,0.781,0.551,1.556,1.582,2.152l26.712,15.422c2.126,1.227,5.572,1.227,7.697,0
				l26.571-15.451c1.029-0.594,1.548-1.367,1.581-2.145l0.013-0.002V244.369z"/>
			
				<radialGradient id="SVGID_00000119817003556551579100000018173712439293994928_" cx="220.492" cy="210.4524" r="101.0514" gradientUnits="userSpaceOnUse">
				<stop  offset="0" style="stop-color:#01C8EF"/>
				<stop  offset="0.1396" style="stop-color:#03BAE4"/>
				<stop  offset="0.4033" style="stop-color:#0895C8"/>
				<stop  offset="0.76" style="stop-color:#115A9A"/>
				<stop  offset="1" style="stop-color:#172F78"/>
			</radialGradient>
			<path style="fill:url(#SVGID_00000119817003556551579100000018173712439293994928_);" d="M294.948,229.244l-26.712-15.422
				c-2.126-1.227-5.572-1.227-7.697,0l-26.571,15.451c-2.126,1.227-2.126,3.217,0,4.444l26.712,15.422
				c2.126,1.227,5.572,1.227,7.697,0l26.571-15.451C297.074,232.461,297.074,230.471,294.948,229.244z"/>
			<path style="opacity:0.4;fill:#06033E;" d="M282.224,230.177l-15.565-8.986c-1.239-0.715-3.247-0.715-4.485,0l-15.483,9.003
				c-1.239,0.715-1.239,1.874,0,2.589l15.565,8.986c1.238,0.715,3.247,0.715,4.485,0l15.483-9.003
				C283.462,232.052,283.462,230.893,282.224,230.177z"/>
			<path style="fill:#FFFFFF;" d="M294.948,232.912l-26.571,15.451c-2.126,1.227-5.572,1.227-7.697,0l-26.712-15.422
				c-0.891-0.515-1.404-1.164-1.548-1.834c-0.199,0.928,0.313,1.897,1.548,2.61l26.712,15.422c2.126,1.227,5.572,1.227,7.697,0
				l26.571-15.451c1.234-0.712,1.747-1.682,1.548-2.61C296.352,231.749,295.839,232.398,294.948,232.912z"/>
			<g>
				<polygon style="fill:#FFFFFF;" points="271.968,252.557 270.704,253.288 270.704,251.827 271.968,251.097 				"/>
				<polygon style="fill:#FFFFFF;" points="274.614,251.03 273.349,251.76 273.349,250.3 274.614,249.57 				"/>
				<polygon style="fill:#FFFFFF;" points="277.259,249.503 275.995,250.233 275.995,248.773 277.259,248.042 				"/>
				<polygon style="fill:#FFFFFF;" points="275.096,253.71 273.832,254.44 273.832,252.98 275.096,252.25 				"/>
				<polygon style="fill:#FFFFFF;" points="277.426,252.365 276.161,253.095 276.161,251.635 277.426,250.905 				"/>
				<polygon style="fill:#FFFFFF;" points="285.745,244.603 284.481,245.333 284.481,243.873 285.745,243.143 				"/>
				<polygon style="fill:#FFFFFF;" points="293.033,240.396 291.769,241.126 291.769,239.666 293.033,238.936 				"/>
				<polygon style="fill:#FFFFFF;" points="279.905,247.975 278.641,248.705 278.641,247.245 279.905,246.515 				"/>
			</g>
		</g>
		<g>
			
				<linearGradient id="SVGID_00000013190762075836870080000015250363246784521861_" gradientUnits="userSpaceOnUse" x1="228.5158" y1="220.3563" x2="273.7653" y2="220.3563">
				<stop  offset="0" style="stop-color:#01C8EF"/>
				<stop  offset="0.1297" style="stop-color:#04B1DD"/>
				<stop  offset="0.5466" style="stop-color:#0E6BA7"/>
				<stop  offset="0.8476" style="stop-color:#154085"/>
				<stop  offset="1" style="stop-color:#172F78"/>
			</linearGradient>
			<path style="fill:url(#SVGID_00000013190762075836870080000015250363246784521861_);" d="M296.542,220.342L296.542,220.342
				l-0.004-12.807l-16.184,2.159l-12.118-6.997c-2.126-1.227-5.572-1.227-7.697,0l-1.887,1.199l-26.276,3.506v12.957
				c0,0.007,0,0.014,0,0.022v0.061l0.01-0.002c0.03,0.781,0.551,1.556,1.582,2.152l26.712,15.422c2.126,1.227,5.572,1.227,7.697,0
				l26.571-15.451c1.029-0.594,1.548-1.367,1.581-2.145l0.013-0.002V220.342z"/>
			
				<radialGradient id="SVGID_00000164509167091559222270000000025208300095908007_" cx="220.492" cy="186.4254" r="101.0514" gradientUnits="userSpaceOnUse">
				<stop  offset="0" style="stop-color:#01C8EF"/>
				<stop  offset="0.1396" style="stop-color:#03BAE4"/>
				<stop  offset="0.4033" style="stop-color:#0895C8"/>
				<stop  offset="0.76" style="stop-color:#115A9A"/>
				<stop  offset="1" style="stop-color:#172F78"/>
			</radialGradient>
			<path style="fill:url(#SVGID_00000164509167091559222270000000025208300095908007_);" d="M294.948,205.217l-26.712-15.422
				c-2.126-1.227-5.572-1.227-7.697,0l-26.571,15.451c-2.126,1.227-2.126,3.217,0,4.444l26.712,15.422
				c2.126,1.227,5.572,1.227,7.697,0l26.571-15.451C297.074,208.434,297.074,206.444,294.948,205.217z"/>
			
				<radialGradient id="SVGID_00000017482897013909827460000001213372142949634216_" cx="229.409" cy="192.5146" r="69.4764" gradientUnits="userSpaceOnUse">
				<stop  offset="0" style="stop-color:#F9636B"/>
				<stop  offset="1" style="stop-color:#B6246E"/>
			</radialGradient>
			<path style="fill:url(#SVGID_00000017482897013909827460000001213372142949634216_);" d="M294.948,205.217l-26.712-15.422
				c-2.126-1.227-5.572-1.227-7.697,0l-26.571,15.451c-2.126,1.227-2.126,3.217,0,4.444l26.712,15.422
				c2.126,1.227,5.572,1.227,7.697,0l26.571-15.451C297.074,208.434,297.074,206.444,294.948,205.217z"/>
			<path style="fill:#8B1E64;" d="M284.66,205.972l-17.699-10.218c-1.408-0.813-3.692-0.813-5.1,0l-17.606,10.237
				c-1.408,0.813-1.408,2.131,0,2.945l17.699,10.219c1.408,0.813,3.692,0.813,5.1,0l17.606-10.237
				C286.069,208.103,286.069,206.785,284.66,205.972z"/>
			<path style="fill:#FFFFFF;" d="M294.948,208.885l-26.571,15.451c-2.126,1.227-5.572,1.227-7.697,0l-26.712-15.422
				c-0.891-0.515-1.404-1.164-1.548-1.834c-0.199,0.928,0.313,1.897,1.548,2.61l26.712,15.422c2.126,1.227,5.572,1.227,7.697,0
				l26.571-15.451c1.234-0.712,1.747-1.682,1.548-2.61C296.352,207.721,295.839,208.37,294.948,208.885z"/>
			<g>
				<polygon style="fill:#FFFFFF;" points="271.968,228.531 270.704,229.261 270.704,227.8 271.968,227.07 				"/>
				<polygon style="fill:#FFFFFF;" points="274.614,227.003 273.349,227.733 273.349,226.273 274.614,225.543 				"/>
				<polygon style="fill:#FFFFFF;" points="277.259,225.476 275.995,226.206 275.995,224.745 277.259,224.015 				"/>
				<polygon style="fill:#FFFFFF;" points="275.096,229.683 273.832,230.413 273.832,228.953 275.096,228.223 				"/>
				<polygon style="fill:#FFFFFF;" points="277.426,228.338 276.161,229.068 276.161,227.608 277.426,226.878 				"/>
				<polygon style="fill:#FFFFFF;" points="285.745,220.576 284.481,221.306 284.481,219.846 285.745,219.116 				"/>
				<polygon style="fill:#FFFFFF;" points="293.033,216.369 291.769,217.099 291.769,215.639 293.033,214.908 				"/>
				<polygon style="fill:#FFFFFF;" points="279.905,223.948 278.641,224.678 278.641,223.218 279.905,222.488 				"/>
			</g>
		</g>
		<g>
			
				<linearGradient id="SVGID_00000056405124744329867210000007354298214544993676_" gradientUnits="userSpaceOnUse" x1="228.5158" y1="196.6089" x2="273.7653" y2="196.6089">
				<stop  offset="0" style="stop-color:#01C8EF"/>
				<stop  offset="0.1297" style="stop-color:#04B1DD"/>
				<stop  offset="0.5466" style="stop-color:#0E6BA7"/>
				<stop  offset="0.8476" style="stop-color:#154085"/>
				<stop  offset="1" style="stop-color:#172F78"/>
			</linearGradient>
			<path style="fill:url(#SVGID_00000056405124744329867210000007354298214544993676_);" d="M296.542,196.595L296.542,196.595
				l-0.004-12.807l-16.184,2.159l-12.118-6.997c-2.126-1.227-5.572-1.227-7.697,0l-1.887,1.199l-26.276,3.506v12.957
				c0,0.007,0,0.014,0,0.022v0.061l0.01-0.002c0.03,0.781,0.551,1.556,1.582,2.152l26.712,15.422c2.126,1.227,5.572,1.227,7.697,0
				l26.571-15.451c1.029-0.594,1.548-1.366,1.581-2.145l0.013-0.002V196.595z"/>
			
				<radialGradient id="SVGID_00000068667146901483781370000010354512954366120892_" cx="220.492" cy="162.678" r="101.0514" gradientUnits="userSpaceOnUse">
				<stop  offset="0" style="stop-color:#01C8EF"/>
				<stop  offset="0.1396" style="stop-color:#03BAE4"/>
				<stop  offset="0.4033" style="stop-color:#0895C8"/>
				<stop  offset="0.76" style="stop-color:#115A9A"/>
				<stop  offset="1" style="stop-color:#172F78"/>
			</radialGradient>
			<path style="fill:url(#SVGID_00000068667146901483781370000010354512954366120892_);" d="M294.948,181.47l-26.712-15.422
				c-2.126-1.227-5.572-1.227-7.697,0l-26.571,15.451c-2.126,1.227-2.126,3.217,0,4.444l26.712,15.422
				c2.126,1.227,5.572,1.227,7.697,0l26.571-15.451C297.074,184.687,297.074,182.697,294.948,181.47z"/>
			
				<radialGradient id="SVGID_00000129180222994397809240000000035278541390431616_" cx="229.409" cy="168.7672" r="69.4764" gradientUnits="userSpaceOnUse">
				<stop  offset="0" style="stop-color:#F9636B"/>
				<stop  offset="1" style="stop-color:#B6246E"/>
			</radialGradient>
			<path style="fill:url(#SVGID_00000129180222994397809240000000035278541390431616_);" d="M294.948,181.47l-26.712-15.422
				c-2.126-1.227-5.572-1.227-7.697,0l-26.571,15.451c-2.126,1.227-2.126,3.217,0,4.444l26.712,15.422
				c2.126,1.227,5.572,1.227,7.697,0l26.571-15.451C297.074,184.687,297.074,182.697,294.948,181.47z"/>
			<path style="fill:#8B1E64;" d="M264.504,196.368c-0.98,0-1.96-0.221-2.723-0.661l-17.699-10.218
				c-0.793-0.458-1.23-1.088-1.23-1.774c0-0.685,0.437-1.315,1.23-1.773l17.604-10.236c1.528-0.881,3.921-0.882,5.448-0.001
				l17.699,10.219c0.794,0.459,1.23,1.088,1.229,1.773c0,0.686-0.436,1.314-1.229,1.772l-17.605,10.236
				C266.464,196.147,265.484,196.368,264.504,196.368z M264.411,171.739c-0.861,0-1.722,0.189-2.377,0.567l-17.605,10.236
				c-0.57,0.329-0.884,0.746-0.884,1.173c0,0.427,0.314,0.844,0.883,1.172l17.699,10.218c1.311,0.758,3.443,0.758,4.753,0
				l17.605-10.236c0.57-0.329,0.883-0.745,0.884-1.172c0-0.427-0.313-0.844-0.883-1.172l-17.699-10.219
				C266.132,171.928,265.272,171.739,264.411,171.739z"/>
			<path style="fill:#FFFFFF;" d="M294.948,185.138l-26.571,15.451c-2.126,1.227-5.572,1.227-7.697,0l-26.712-15.422
				c-0.891-0.515-1.404-1.164-1.548-1.834c-0.199,0.928,0.313,1.897,1.548,2.61l26.712,15.422c2.126,1.227,5.572,1.227,7.697,0
				l26.571-15.451c1.234-0.712,1.747-1.682,1.548-2.61C296.352,183.974,295.839,184.623,294.948,185.138z"/>
			<g>
				<polygon style="fill:#FFFFFF;" points="271.968,204.783 270.704,205.513 270.704,204.053 271.968,203.323 				"/>
				<polygon style="fill:#FFFFFF;" points="274.614,203.256 273.349,203.986 273.349,202.525 274.614,201.795 				"/>
				<polygon style="fill:#FFFFFF;" points="277.259,201.728 275.995,202.458 275.995,200.998 277.259,200.268 				"/>
				<polygon style="fill:#FFFFFF;" points="275.096,205.936 273.832,206.666 273.832,205.206 275.096,204.476 				"/>
				<polygon style="fill:#FFFFFF;" points="277.426,204.591 276.161,205.321 276.161,203.861 277.426,203.131 				"/>
				<polygon style="fill:#FFFFFF;" points="285.745,196.829 284.481,197.559 284.481,196.099 285.745,195.369 				"/>
				<polygon style="fill:#FFFFFF;" points="293.033,192.621 291.769,193.351 291.769,191.891 293.033,191.161 				"/>
				<polygon style="fill:#FFFFFF;" points="279.905,200.201 278.641,200.931 278.641,199.471 279.905,198.741 				"/>
			</g>
		</g>
	</g>
	<g>
		<path style="fill:#03A7D3;" d="M348.253,295.663c-1.438,0-2.877-0.316-3.973-0.949l-26.712-15.422
			c-1.108-0.64-1.718-1.505-1.718-2.438c0-0.932,0.609-1.797,1.718-2.436l26.57-15.451c2.189-1.264,5.755-1.267,7.946,0
			l26.712,15.423c1.108,0.639,1.719,1.505,1.719,2.436c0,0.932-0.61,1.798-1.719,2.436l-26.57,15.451
			C351.131,295.346,349.692,295.663,348.253,295.663z M348.112,258.507c-1.349,0-2.697,0.296-3.725,0.889l-26.57,15.451
			c-0.948,0.548-1.471,1.261-1.471,2.007c0,0.747,0.522,1.46,1.47,2.008l26.712,15.422c2.056,1.185,5.398,1.185,7.449,0
			l26.57-15.451c0.949-0.547,1.471-1.26,1.471-2.007c0-0.747-0.521-1.46-1.47-2.007l-26.712-15.423
			C350.81,258.804,349.461,258.507,348.112,258.507z"/>
		<g>
			
				<linearGradient id="SVGID_00000039831479038167626390000003350564671189236413_" gradientUnits="userSpaceOnUse" x1="312.3719" y1="268.4103" x2="357.6214" y2="268.4103">
				<stop  offset="0" style="stop-color:#01C8EF"/>
				<stop  offset="0.1297" style="stop-color:#04B1DD"/>
				<stop  offset="0.5466" style="stop-color:#0E6BA7"/>
				<stop  offset="0.8476" style="stop-color:#154085"/>
				<stop  offset="1" style="stop-color:#172F78"/>
			</linearGradient>
			<path style="fill:url(#SVGID_00000039831479038167626390000003350564671189236413_);" d="M380.398,268.396L380.398,268.396
				l-0.004-12.807l-16.184,2.159l-12.118-6.997c-2.126-1.227-5.572-1.227-7.697,0l-1.887,1.199l-26.276,3.506v12.957
				c0,0.007,0,0.014,0,0.022v0.061l0.01-0.002c0.03,0.781,0.551,1.556,1.582,2.152l26.712,15.422c2.126,1.227,5.572,1.227,7.697,0
				l26.571-15.451c1.029-0.594,1.548-1.366,1.581-2.145l0.013-0.002V268.396z"/>
			
				<radialGradient id="SVGID_00000075861084647471506240000009509099752304204943_" cx="304.3481" cy="234.4795" r="101.0514" gradientUnits="userSpaceOnUse">
				<stop  offset="0" style="stop-color:#01C8EF"/>
				<stop  offset="0.1396" style="stop-color:#03BAE4"/>
				<stop  offset="0.4033" style="stop-color:#0895C8"/>
				<stop  offset="0.76" style="stop-color:#115A9A"/>
				<stop  offset="1" style="stop-color:#172F78"/>
			</radialGradient>
			<path style="fill:url(#SVGID_00000075861084647471506240000009509099752304204943_);" d="M378.804,253.271l-26.712-15.422
				c-2.126-1.227-5.572-1.227-7.697,0L317.823,253.3c-2.126,1.227-2.126,3.217,0,4.444l26.712,15.422
				c2.126,1.227,5.572,1.227,7.697,0l26.571-15.451C380.93,256.488,380.93,254.498,378.804,253.271z"/>
			<path style="fill:#FFFFFF;" d="M378.804,256.939l-26.571,15.451c-2.126,1.227-5.572,1.227-7.697,0l-26.712-15.422
				c-0.891-0.515-1.404-1.164-1.548-1.834c-0.199,0.928,0.313,1.897,1.548,2.61l26.712,15.422c2.126,1.227,5.572,1.227,7.697,0
				l26.571-15.451c1.234-0.713,1.747-1.682,1.548-2.61C380.208,255.775,379.695,256.424,378.804,256.939z"/>
			<g>
				<polygon style="fill:#FFFFFF;" points="355.824,276.585 354.56,277.315 354.56,275.854 355.824,275.124 				"/>
				<polygon style="fill:#FFFFFF;" points="358.47,275.057 357.205,275.787 357.205,274.327 358.47,273.597 				"/>
				<polygon style="fill:#FFFFFF;" points="361.116,273.53 359.851,274.26 359.851,272.8 361.116,272.069 				"/>
				<polygon style="fill:#FFFFFF;" points="358.953,277.737 357.688,278.467 357.688,277.007 358.953,276.277 				"/>
				<polygon style="fill:#FFFFFF;" points="361.282,276.392 360.017,277.122 360.017,275.662 361.282,274.932 				"/>
				<polygon style="fill:#FFFFFF;" points="369.601,268.63 368.337,269.36 368.337,267.9 369.601,267.17 				"/>
				<polygon style="fill:#FFFFFF;" points="376.889,264.423 375.625,265.153 375.625,263.693 376.889,262.962 				"/>
				<polygon style="fill:#FFFFFF;" points="363.761,272.002 362.497,272.732 362.497,271.272 363.761,270.542 				"/>
			</g>
		</g>
		<path style="opacity:0.4;fill:#06033E;" d="M346.802,266.651l-17.972-10.376c-0.73-0.422-0.639-1.158,0.205-1.645l17.562-10.139
			c0.844-0.487,2.12-0.54,2.85-0.118l17.972,10.376c0.73,0.422,0.639,1.158-0.205,1.645l-17.562,10.139
			C348.809,267.02,347.533,267.073,346.802,266.651z"/>
		<path style="fill:#FFFFFF;" d="M339.732,277.882l-14.83-8.562c-0.354-0.204-0.641-0.753-0.641-1.225v-1.101
			c0-0.472,0.287-0.689,0.641-0.485l14.83,8.562c0.354,0.204,0.641,0.753,0.641,1.225v1.101
			C340.373,277.869,340.086,278.086,339.732,277.882z"/>
		<g>
			
				<linearGradient id="SVGID_00000005973144179704933560000017045761268722647714_" gradientUnits="userSpaceOnUse" x1="312.3719" y1="244.3833" x2="357.6214" y2="244.3833">
				<stop  offset="0" style="stop-color:#01C8EF"/>
				<stop  offset="0.1297" style="stop-color:#04B1DD"/>
				<stop  offset="0.5466" style="stop-color:#0E6BA7"/>
				<stop  offset="0.8476" style="stop-color:#154085"/>
				<stop  offset="1" style="stop-color:#172F78"/>
			</linearGradient>
			<path style="fill:url(#SVGID_00000005973144179704933560000017045761268722647714_);" d="M380.398,244.369L380.398,244.369
				l-0.004-12.807l-16.184,2.159l-12.118-6.997c-2.126-1.227-5.572-1.227-7.697,0l-1.887,1.2l-26.276,3.506v12.957
				c0,0.007,0,0.014,0,0.022v0.061l0.01-0.002c0.03,0.781,0.551,1.556,1.582,2.152l26.712,15.422c2.126,1.227,5.572,1.227,7.697,0
				l26.571-15.451c1.029-0.594,1.548-1.367,1.581-2.145l0.013-0.002V244.369z"/>
			
				<radialGradient id="SVGID_00000114776539434168026130000006055824876971123373_" cx="304.3481" cy="210.4524" r="101.0514" gradientUnits="userSpaceOnUse">
				<stop  offset="0" style="stop-color:#01C8EF"/>
				<stop  offset="0.1396" style="stop-color:#03BAE4"/>
				<stop  offset="0.4033" style="stop-color:#0895C8"/>
				<stop  offset="0.76" style="stop-color:#115A9A"/>
				<stop  offset="1" style="stop-color:#172F78"/>
			</radialGradient>
			<path style="fill:url(#SVGID_00000114776539434168026130000006055824876971123373_);" d="M378.804,229.244l-26.712-15.422
				c-2.126-1.227-5.572-1.227-7.697,0l-26.571,15.451c-2.126,1.227-2.126,3.217,0,4.444l26.712,15.422
				c2.126,1.227,5.572,1.227,7.697,0l26.571-15.451C380.93,232.461,380.93,230.471,378.804,229.244z"/>
			<path style="opacity:0.4;fill:#06033E;" d="M366.08,230.177l-15.565-8.986c-1.238-0.715-3.246-0.715-4.485,0l-15.483,9.003
				c-1.238,0.715-1.238,1.874,0,2.589l15.565,8.986c1.239,0.715,3.247,0.715,4.485,0l15.483-9.003
				C367.319,232.052,367.319,230.893,366.08,230.177z"/>
			<path style="fill:#FFFFFF;" d="M378.804,232.912l-26.571,15.451c-2.126,1.227-5.572,1.227-7.697,0l-26.712-15.422
				c-0.891-0.515-1.404-1.164-1.548-1.834c-0.199,0.928,0.313,1.897,1.548,2.61l26.712,15.422c2.126,1.227,5.572,1.227,7.697,0
				l26.571-15.451c1.234-0.712,1.747-1.682,1.548-2.61C380.208,231.749,379.695,232.398,378.804,232.912z"/>
			<g>
				<polygon style="fill:#FFFFFF;" points="355.824,252.557 354.56,253.288 354.56,251.827 355.824,251.097 				"/>
				<polygon style="fill:#FFFFFF;" points="358.47,251.03 357.205,251.76 357.205,250.3 358.47,249.57 				"/>
				<polygon style="fill:#FFFFFF;" points="361.116,249.503 359.851,250.233 359.851,248.773 361.116,248.042 				"/>
				<polygon style="fill:#FFFFFF;" points="358.953,253.71 357.688,254.44 357.688,252.98 358.953,252.25 				"/>
				<polygon style="fill:#FFFFFF;" points="361.282,252.365 360.017,253.095 360.017,251.635 361.282,250.905 				"/>
				<polygon style="fill:#FFFFFF;" points="369.601,244.603 368.337,245.333 368.337,243.873 369.601,243.143 				"/>
				<polygon style="fill:#FFFFFF;" points="376.889,240.396 375.625,241.126 375.625,239.666 376.889,238.936 				"/>
				<polygon style="fill:#FFFFFF;" points="363.761,247.975 362.497,248.705 362.497,247.245 363.761,246.515 				"/>
			</g>
		</g>
		<g>
			
				<linearGradient id="SVGID_00000119836223366705775630000005975023139058918549_" gradientUnits="userSpaceOnUse" x1="312.3719" y1="220.3563" x2="357.6214" y2="220.3563">
				<stop  offset="0" style="stop-color:#01C8EF"/>
				<stop  offset="0.1297" style="stop-color:#04B1DD"/>
				<stop  offset="0.5466" style="stop-color:#0E6BA7"/>
				<stop  offset="0.8476" style="stop-color:#154085"/>
				<stop  offset="1" style="stop-color:#172F78"/>
			</linearGradient>
			<path style="fill:url(#SVGID_00000119836223366705775630000005975023139058918549_);" d="M380.398,220.342L380.398,220.342
				l-0.004-12.807l-16.184,2.159l-12.118-6.997c-2.126-1.227-5.572-1.227-7.697,0l-1.887,1.199l-26.276,3.506v12.957
				c0,0.007,0,0.014,0,0.022v0.061l0.01-0.002c0.03,0.781,0.551,1.556,1.582,2.152l26.712,15.422c2.126,1.227,5.572,1.227,7.697,0
				l26.571-15.451c1.029-0.594,1.548-1.367,1.581-2.145l0.013-0.002V220.342z"/>
			
				<radialGradient id="SVGID_00000177445589550974347510000011202991041718727084_" cx="304.3481" cy="186.4254" r="101.0514" gradientUnits="userSpaceOnUse">
				<stop  offset="0" style="stop-color:#01C8EF"/>
				<stop  offset="0.1396" style="stop-color:#03BAE4"/>
				<stop  offset="0.4033" style="stop-color:#0895C8"/>
				<stop  offset="0.76" style="stop-color:#115A9A"/>
				<stop  offset="1" style="stop-color:#172F78"/>
			</radialGradient>
			<path style="fill:url(#SVGID_00000177445589550974347510000011202991041718727084_);" d="M378.804,205.217l-26.712-15.422
				c-2.126-1.227-5.572-1.227-7.697,0l-26.571,15.451c-2.126,1.227-2.126,3.217,0,4.444l26.712,15.422
				c2.126,1.227,5.572,1.227,7.697,0l26.571-15.451C380.93,208.434,380.93,206.444,378.804,205.217z"/>
			
				<radialGradient id="SVGID_00000078043823145619660240000008077324679543490489_" cx="313.2651" cy="192.5146" r="69.4764" gradientUnits="userSpaceOnUse">
				<stop  offset="0" style="stop-color:#F9636B"/>
				<stop  offset="1" style="stop-color:#B6246E"/>
			</radialGradient>
			<path style="fill:url(#SVGID_00000078043823145619660240000008077324679543490489_);" d="M378.804,205.217l-26.712-15.422
				c-2.126-1.227-5.572-1.227-7.697,0l-26.571,15.451c-2.126,1.227-2.126,3.217,0,4.444l26.712,15.422
				c2.126,1.227,5.572,1.227,7.697,0l26.571-15.451C380.93,208.434,380.93,206.444,378.804,205.217z"/>
			<path style="fill:#8B1E64;" d="M368.516,205.972l-17.699-10.218c-1.408-0.813-3.692-0.813-5.1,0l-17.606,10.237
				c-1.408,0.813-1.408,2.131,0,2.945l17.699,10.219c1.408,0.813,3.692,0.813,5.1,0l17.606-10.237
				C369.925,208.103,369.925,206.785,368.516,205.972z"/>
			<path style="fill:#FFFFFF;" d="M378.804,208.885l-26.571,15.451c-2.126,1.227-5.572,1.227-7.697,0l-26.712-15.422
				c-0.891-0.515-1.404-1.164-1.548-1.834c-0.199,0.928,0.313,1.897,1.548,2.61l26.712,15.422c2.126,1.227,5.572,1.227,7.697,0
				l26.571-15.451c1.234-0.712,1.747-1.682,1.548-2.61C380.208,207.721,379.695,208.37,378.804,208.885z"/>
			<g>
				<polygon style="fill:#FFFFFF;" points="355.824,228.531 354.56,229.261 354.56,227.8 355.824,227.07 				"/>
				<polygon style="fill:#FFFFFF;" points="358.47,227.003 357.205,227.733 357.205,226.273 358.47,225.543 				"/>
				<polygon style="fill:#FFFFFF;" points="361.116,225.476 359.851,226.206 359.851,224.745 361.116,224.015 				"/>
				<polygon style="fill:#FFFFFF;" points="358.953,229.683 357.688,230.413 357.688,228.953 358.953,228.223 				"/>
				<polygon style="fill:#FFFFFF;" points="361.282,228.338 360.017,229.068 360.017,227.608 361.282,226.878 				"/>
				<polygon style="fill:#FFFFFF;" points="369.601,220.576 368.337,221.306 368.337,219.846 369.601,219.116 				"/>
				<polygon style="fill:#FFFFFF;" points="376.889,216.369 375.625,217.099 375.625,215.639 376.889,214.908 				"/>
				<polygon style="fill:#FFFFFF;" points="363.761,223.948 362.497,224.678 362.497,223.218 363.761,222.488 				"/>
			</g>
		</g>
		<g>
			
				<linearGradient id="SVGID_00000088096163770465850180000010121477708417724859_" gradientUnits="userSpaceOnUse" x1="312.3719" y1="196.7818" x2="357.6214" y2="196.7818">
				<stop  offset="0" style="stop-color:#01C8EF"/>
				<stop  offset="0.1297" style="stop-color:#04B1DD"/>
				<stop  offset="0.5466" style="stop-color:#0E6BA7"/>
				<stop  offset="0.8476" style="stop-color:#154085"/>
				<stop  offset="1" style="stop-color:#172F78"/>
			</linearGradient>
			<path style="fill:url(#SVGID_00000088096163770465850180000010121477708417724859_);" d="M380.398,196.768L380.398,196.768
				l-0.004-12.807l-16.184,2.159l-12.118-6.997c-2.126-1.227-5.572-1.227-7.697,0l-1.887,1.199l-26.276,3.506v12.957
				c0,0.007,0,0.014,0,0.022v0.061l0.01-0.002c0.03,0.781,0.551,1.556,1.582,2.152l26.712,15.422c2.126,1.227,5.572,1.227,7.697,0
				l26.571-15.451c1.029-0.594,1.548-1.366,1.581-2.145l0.013-0.002V196.768z"/>
			
				<radialGradient id="SVGID_00000177482937961290848310000016984482637352764094_" cx="304.3481" cy="162.8509" r="101.0514" gradientUnits="userSpaceOnUse">
				<stop  offset="0" style="stop-color:#F9636B"/>
				<stop  offset="1" style="stop-color:#B6246E"/>
			</radialGradient>
			<path style="fill:url(#SVGID_00000177482937961290848310000016984482637352764094_);" d="M378.804,181.643l-26.712-15.422
				c-2.126-1.227-5.572-1.227-7.697,0l-26.571,15.451c-2.126,1.227-2.126,3.217,0,4.444l26.712,15.422
				c2.126,1.227,5.572,1.227,7.697,0l26.571-15.451C380.93,184.859,380.93,182.87,378.804,181.643z"/>
			<path style="fill:#8B1E64;" d="M366.08,182.576l-15.565-8.986c-1.238-0.715-3.246-0.715-4.485,0l-15.483,9.003
				c-1.238,0.715-1.238,1.874,0,2.589l15.565,8.986c1.239,0.715,3.247,0.715,4.485,0l15.483-9.003
				C367.319,184.45,367.319,183.291,366.08,182.576z"/>
			<path style="fill:#FFFFFF;" d="M378.804,185.311l-26.571,15.451c-2.126,1.227-5.572,1.227-7.697,0l-26.712-15.422
				c-0.891-0.515-1.404-1.164-1.548-1.834c-0.199,0.928,0.313,1.897,1.548,2.61l26.712,15.422c2.126,1.227,5.572,1.227,7.697,0
				l26.571-15.451c1.234-0.712,1.747-1.682,1.548-2.61C380.208,184.147,379.695,184.796,378.804,185.311z"/>
			<g>
				<polygon style="fill:#FFFFFF;" points="355.824,204.956 354.56,205.686 354.56,204.226 355.824,203.496 				"/>
				<polygon style="fill:#FFFFFF;" points="358.47,203.428 357.205,204.159 357.205,202.698 358.47,201.968 				"/>
				<polygon style="fill:#FFFFFF;" points="361.116,201.901 359.851,202.631 359.851,201.171 361.116,200.441 				"/>
				<polygon style="fill:#FFFFFF;" points="358.953,206.109 357.688,206.839 357.688,205.379 358.953,204.648 				"/>
				<polygon style="fill:#FFFFFF;" points="361.282,204.764 360.017,205.494 360.017,204.034 361.282,203.303 				"/>
				<polygon style="fill:#FFFFFF;" points="369.601,197.002 368.337,197.732 368.337,196.272 369.601,195.542 				"/>
				<polygon style="fill:#FFFFFF;" points="376.889,192.794 375.625,193.524 375.625,192.064 376.889,191.334 				"/>
				<polygon style="fill:#FFFFFF;" points="363.761,200.374 362.497,201.104 362.497,199.643 363.761,198.913 				"/>
			</g>
		</g>
		<g>
			
				<linearGradient id="SVGID_00000131365588506884488680000004064766611189592980_" gradientUnits="userSpaceOnUse" x1="312.3719" y1="172.7547" x2="357.6214" y2="172.7547">
				<stop  offset="0" style="stop-color:#01C8EF"/>
				<stop  offset="0.1297" style="stop-color:#04B1DD"/>
				<stop  offset="0.5466" style="stop-color:#0E6BA7"/>
				<stop  offset="0.8476" style="stop-color:#154085"/>
				<stop  offset="1" style="stop-color:#172F78"/>
			</linearGradient>
			<path style="fill:url(#SVGID_00000131365588506884488680000004064766611189592980_);" d="M380.398,172.741L380.398,172.741
				l-0.004-12.807l-16.184,2.159l-12.118-6.997c-2.126-1.227-5.572-1.227-7.697,0l-1.887,1.2l-26.276,3.506v12.957
				c0,0.007,0,0.014,0,0.022v0.061l0.01-0.002c0.03,0.781,0.551,1.556,1.582,2.152l26.712,15.422c2.126,1.227,5.572,1.227,7.697,0
				l26.571-15.451c1.029-0.594,1.548-1.367,1.581-2.145l0.013-0.002V172.741z"/>
			
				<radialGradient id="SVGID_00000166654079838770542800000005783176345105469830_" cx="304.3481" cy="138.8238" r="101.0514" gradientUnits="userSpaceOnUse">
				<stop  offset="0" style="stop-color:#01C8EF"/>
				<stop  offset="0.1396" style="stop-color:#03BAE4"/>
				<stop  offset="0.4033" style="stop-color:#0895C8"/>
				<stop  offset="0.76" style="stop-color:#115A9A"/>
				<stop  offset="1" style="stop-color:#172F78"/>
			</radialGradient>
			<path style="fill:url(#SVGID_00000166654079838770542800000005783176345105469830_);" d="M378.804,157.616l-26.712-15.422
				c-2.126-1.227-5.572-1.227-7.697,0l-26.571,15.451c-2.126,1.227-2.126,3.217,0,4.444l26.712,15.422
				c2.126,1.227,5.572,1.227,7.697,0l26.571-15.451C380.93,160.832,380.93,158.843,378.804,157.616z"/>
			
				<radialGradient id="SVGID_00000170240357897317688800000006143305825310042275_" cx="313.2651" cy="144.913" r="69.4764" gradientUnits="userSpaceOnUse">
				<stop  offset="0" style="stop-color:#F9636B"/>
				<stop  offset="1" style="stop-color:#B6246E"/>
			</radialGradient>
			<path style="fill:url(#SVGID_00000170240357897317688800000006143305825310042275_);" d="M378.804,157.616l-26.712-15.422
				c-2.126-1.227-5.572-1.227-7.697,0l-26.571,15.451c-2.126,1.227-2.126,3.217,0,4.444l26.712,15.422
				c2.126,1.227,5.572,1.227,7.697,0l26.571-15.451C380.93,160.832,380.93,158.843,378.804,157.616z"/>
			<path style="fill:#8B1E64;" d="M348.36,172.513c-0.98,0-1.96-0.22-2.724-0.66l-17.699-10.219
				c-0.793-0.459-1.229-1.088-1.229-1.773c0-0.686,0.438-1.314,1.229-1.772l17.604-10.236c1.529-0.883,3.922-0.882,5.449-0.001
				l17.699,10.218c0.793,0.458,1.229,1.088,1.229,1.774c0,0.685-0.436,1.315-1.229,1.773l-17.605,10.236
				C350.32,172.294,349.34,172.513,348.36,172.513z M348.268,147.884c-0.861,0-1.722,0.189-2.377,0.568l-17.604,10.236
				c-0.57,0.329-0.884,0.745-0.884,1.172c0,0.427,0.313,0.844,0.883,1.172l17.699,10.219c1.309,0.756,3.441,0.756,4.752,0
				l17.605-10.236c0.57-0.329,0.884-0.746,0.884-1.173c0-0.427-0.313-0.844-0.883-1.172l-17.699-10.218
				C349.989,148.074,349.128,147.884,348.268,147.884z"/>
			<path style="fill:#FFFFFF;" d="M378.804,161.283l-26.571,15.451c-2.126,1.227-5.572,1.227-7.697,0l-26.712-15.422
				c-0.891-0.515-1.404-1.164-1.548-1.834c-0.199,0.928,0.313,1.897,1.548,2.61l26.712,15.422c2.126,1.227,5.572,1.227,7.697,0
				l26.571-15.451c1.234-0.712,1.747-1.682,1.548-2.61C380.208,160.12,379.695,160.769,378.804,161.283z"/>
			<g>
				<polygon style="fill:#FFFFFF;" points="355.824,180.929 354.56,181.659 354.56,180.199 355.824,179.469 				"/>
				<polygon style="fill:#FFFFFF;" points="358.47,179.402 357.205,180.132 357.205,178.671 358.47,177.941 				"/>
				<polygon style="fill:#FFFFFF;" points="361.116,177.874 359.851,178.604 359.851,177.144 361.116,176.414 				"/>
				<polygon style="fill:#FFFFFF;" points="358.953,182.082 357.688,182.812 357.688,181.352 358.953,180.621 				"/>
				<polygon style="fill:#FFFFFF;" points="361.282,180.737 360.017,181.467 360.017,180.007 361.282,179.277 				"/>
				<polygon style="fill:#FFFFFF;" points="369.601,172.975 368.337,173.705 368.337,172.245 369.601,171.514 				"/>
				<polygon style="fill:#FFFFFF;" points="376.889,168.767 375.625,169.497 375.625,168.037 376.889,167.307 				"/>
				<polygon style="fill:#FFFFFF;" points="363.761,176.347 362.497,177.077 362.497,175.617 363.761,174.886 				"/>
			</g>
		</g>
	</g>
	<path style="fill:#11203C;" d="M180.459,243.812c-0.993,0-1.986-0.224-2.76-0.671L160,232.923
		c-0.816-0.472-1.266-1.123-1.266-1.836c0-0.713,0.45-1.364,1.266-1.836l17.605-10.237c1.549-0.893,3.973-0.893,5.521,0
		l17.699,10.219c0.817,0.472,1.267,1.124,1.266,1.836c0,0.713-0.45,1.364-1.266,1.835l-17.605,10.237
		C182.446,243.589,181.452,243.812,180.459,243.812z M180.366,219.192c-0.853,0-1.706,0.184-2.34,0.549l-17.605,10.237
		c-0.547,0.315-0.847,0.709-0.847,1.109c0,0.4,0.3,0.794,0.846,1.109l17.699,10.218c1.268,0.732,3.411,0.732,4.68,0l17.604-10.237
		c0.547-0.315,0.848-0.709,0.848-1.108c0-0.399-0.301-0.794-0.847-1.109l-17.699-10.219
		C182.072,219.376,181.219,219.192,180.366,219.192z"/>
	<polygon style="fill:#03A7D3;" points="179.889,191.431 179.777,191.4 96.488,167.546 96.625,167.068 179.803,190.89 
		264.319,133.789 348.206,93.773 348.421,94.222 264.565,134.219 	"/>
	<g>
		<path style="opacity:0.4;fill:#03A7D3;" d="M102.218,167.368c0,3.127-2.535,5.661-5.661,5.661c-3.127,0-5.661-2.535-5.661-5.661
			c0-3.127,2.535-5.661,5.661-5.661C99.683,161.706,102.218,164.241,102.218,167.368z"/>
		<path style="opacity:0.8;fill:#03A7D3;" d="M99.338,167.368c0,1.536-1.245,2.782-2.782,2.782c-1.536,0-2.782-1.245-2.782-2.782
			c0-1.536,1.245-2.782,2.782-2.782C98.093,164.586,99.338,165.831,99.338,167.368z"/>
	</g>
	<g>
		<path style="opacity:0.4;fill:#03A7D3;" d="M185.507,191.161c0,3.127-2.535,5.661-5.661,5.661s-5.661-2.535-5.661-5.661
			s2.535-5.661,5.661-5.661S185.507,188.034,185.507,191.161z"/>
		<circle style="opacity:0.8;fill:#03A7D3;" cx="179.846" cy="191.161" r="2.782"/>
	</g>
	<g>
		<path style="opacity:0.4;fill:#03A7D3;" d="M270.12,133.994c0,3.127-2.535,5.661-5.661,5.661c-3.127,0-5.661-2.535-5.661-5.661
			c0-3.127,2.535-5.661,5.661-5.661C267.585,128.333,270.12,130.868,270.12,133.994z"/>
		<path style="opacity:0.8;fill:#03A7D3;" d="M267.241,133.994c0,1.536-1.246,2.782-2.782,2.782c-1.536,0-2.782-1.245-2.782-2.782
			c0-1.536,1.245-2.782,2.782-2.782C265.995,131.212,267.241,132.458,267.241,133.994z"/>
	</g>
	<g>
		<path style="opacity:0.4;fill:#03A7D3;" d="M353.975,93.998c0,3.127-2.535,5.661-5.661,5.661c-3.127,0-5.661-2.535-5.661-5.661
			s2.535-5.661,5.661-5.661C351.44,88.337,353.975,90.871,353.975,93.998z"/>
		<path style="opacity:0.8;fill:#03A7D3;" d="M351.096,93.998c0,1.536-1.245,2.782-2.782,2.782c-1.536,0-2.782-1.245-2.782-2.782
			c0-1.536,1.245-2.782,2.782-2.782C349.85,91.216,351.096,92.462,351.096,93.998z"/>
	</g>
	<g>
		<rect x="264.21" y="139.656" style="opacity:0.4;fill:#03A7D3;" width="0.497" height="14.737"/>
	</g>
	<g>
		<rect x="96.308" y="173.029" style="opacity:0.4;fill:#03A7D3;" width="0.497" height="11.197"/>
	</g>
	<g>
		<rect x="179.597" y="196.822" style="opacity:0.4;fill:#03A7D3;" width="0.497" height="6.301"/>
		<rect x="179.597" y="206.441" style="opacity:0.4;fill:#03A7D3;" width="0.497" height="3.15"/>
	</g>
	<g>
		<rect x="348.066" y="99.66" style="opacity:0.4;fill:#03A7D3;" width="0.496" height="25.452"/>
	</g>
	<g>
		<rect x="348.066" y="128.333" style="opacity:0.4;fill:#03A7D3;" width="0.496" height="7.763"/>
	</g>
</g>
<g>
	<path style="opacity:0.6;fill:#172F78;" d="M452.861,81.542c9.442-2.739,20.612-4.281,32.535-4.184
		c1.573,0.013,3.131,0.054,4.672,0.123c10.469,0.956,14.192,12.012,7.88,16.849c-2.897,2.22-6.389,2.197-7.88,2.187
		c-1.541-0.069-3.099-0.11-4.672-0.123c-11.922-0.098-23.092,1.444-32.535,4.184c-9.534,2.323-10.097-7.366-6.763-13.293
		C447.219,85.291,449.302,82.677,452.861,81.542L452.861,81.542z"/>
	<path style="fill:#03A7D3;" d="M450.182,101.132c-2.522,0-3.954-1.079-4.752-2.131c-2.295-3.028-1.461-8.349,0.49-11.816
		c1.139-2.025,3.257-4.682,6.879-5.838l0.005-0.001c9.478-2.75,20.359-4.196,31.532-4.196c0.354,0,0.707,0.001,1.062,0.004
		c1.542,0.013,3.116,0.055,4.678,0.124c5.263,0.48,9.494,3.686,10.789,8.166c1.009,3.487-0.062,6.954-2.793,9.048
		c-2.953,2.262-6.503,2.224-8.005,2.229c-1.548-0.069-3.117-0.11-4.673-0.122c-11.529-0.089-22.736,1.349-32.477,4.175
		C451.887,101.024,450.979,101.132,450.182,101.132z M452.92,81.737c-3.494,1.116-5.542,3.688-6.645,5.647
		c-1.888,3.355-2.712,8.48-0.52,11.371c1.399,1.846,3.84,2.409,7.058,1.624c9.47-2.747,20.351-4.193,31.523-4.193
		c0.354,0,0.707,0.001,1.062,0.004c1.56,0.013,3.134,0.054,4.678,0.123c1.462,0.003,4.907,0.032,7.748-2.146
		c2.595-1.988,3.61-5.288,2.649-8.61c-1.248-4.318-5.34-7.409-10.425-7.873c-1.548-0.068-3.116-0.11-4.654-0.122
		C473.871,77.468,462.66,78.911,452.92,81.737z"/>
</g>
<g>
	<path style="opacity:0.6;fill:#172F78;" d="M487.85,140.385c-1.503,0.04-3.02,0.055-4.549,0.042
		c-11.968-0.098-23.057-1.835-32.311-4.748c-9.244-2.47-9.803,7.203-6.576,13.178c2.297,4.254,5.406,5.419,6.576,5.858
		c9.255,2.913,20.343,4.65,32.311,4.748c1.529,0.012,3.046-0.002,4.549-0.042c10.862-0.8,13.706-11.233,8.63-16.102
		C495.063,141.96,492.416,140.348,487.85,140.385L487.85,140.385z"/>
	<g>
		<g style="opacity:0.3;">
			<path style="fill:#03A7D3;" d="M544.094,128.526l-0.165-0.33c-0.153-0.305-0.338-0.75-0.548-1.322
				c-2.019-5.895-7.918-11.241-17.06-15.463c-6.355-3.609-7.894-8.825-8.262-10.901l0,0c-0.434-2.449,0.059-5.922,2.162-7.755
				c1.541-1.344,3.642-1.598,6.247-0.759c9.269,4.28,15.242,9.708,17.296,15.706c0.432,1.693,0.769,3.018,0.773,9.002v10.149
				c-0.001,0.89-0.001,0.942-0.253,1.357L544.094,128.526z M518.46,100.439c0.357,2.019,1.857,7.094,8.047,10.61
				c9.231,4.262,15.203,9.689,17.258,15.688c0.124,0.337,0.238,0.629,0.342,0.87c0.023-0.143,0.023-0.35,0.023-0.754v-10.149
				c-0.004-5.934-0.335-7.236-0.754-8.886c-2.013-5.874-7.912-11.22-17.054-15.443c-2.438-0.785-4.406-0.557-5.832,0.688
				C518.505,94.791,518.047,98.098,518.46,100.439L518.46,100.439z"/>
			<path style="fill:#03A7D3;" d="M424.566,131.334l-0.407-0.018V112.28c0-0.169,0.003-0.339,0.01-0.508
				c0.117-3.154,1.318-6.241,3.57-9.176l0.088-0.09c0.432-0.428,1.023-1.013,1.635-1.101c0.818-0.122,1.548,0.296,2.109,1.193
				c1.875,2.998,1.706,11.585-3.502,19.271C425.026,125.99,424.823,128.348,424.566,131.334z M429.725,101.794
				c-0.066,0-0.135,0.005-0.204,0.015c-0.48,0.069-1.015,0.6-1.406,0.987l-0.071,0.07c-2.181,2.845-3.353,5.854-3.468,8.921
				c-0.005,0.164-0.008,0.328-0.008,0.493v15.828c0.39-1.849,1.192-3.797,3.169-6.473c5.107-7.538,5.307-15.914,3.489-18.819
				C430.927,102.337,430.431,101.794,429.725,101.794z"/>
		</g>
		<g>
			<g>
				<path style="fill:#03A7D3;" d="M428.902,141.238c-0.501,0-1.16-0.266-1.882-1.252c-2.478-3.384-2.717-6.684-2.86-8.655
					l-0.001-19.051h0.408c0,2.876,0.936,5.714,2.786,8.437c4.061,6.717,4.54,13.346,4.185,16.205l-0.202-0.025l0.202,0.025
					c-0.292,2.345-1.165,3.981-2.279,4.271C429.151,141.22,429.032,141.238,428.902,141.238z M424.567,115.6v15.716
					c0.139,1.913,0.373,5.14,2.781,8.43c0.427,0.582,1.085,1.233,1.808,1.053c0.935-0.243,1.711-1.784,1.978-3.928l0,0
					c0.35-2.808-0.126-9.322-4.124-15.935C425.832,119.202,425.016,117.417,424.567,115.6z"/>
				<path style="fill:#03A7D3;" d="M484.363,159.671c-0.355,0-0.71-0.001-1.064-0.004c-11.589-0.095-22.783-1.739-32.371-4.757
					c-1.201-0.451-4.362-1.637-6.695-5.956c-1.927-3.569-2.711-8.962-0.369-11.927c1.03-1.305,3.113-2.629,7.179-1.545
					c9.557,3.008,20.71,4.646,32.261,4.741c1.51,0.013,3.039-0.001,4.541-0.043h0.004c0.053,0,0.104,0,0.156,0
					c4.539,0,7.188,1.622,8.616,2.991c2.374,2.277,3.134,5.901,1.935,9.233c-1.489,4.137-5.485,6.835-10.69,7.219
					C486.697,159.655,485.524,159.671,484.363,159.671z M448.273,135.491c-1.761,0-3.152,0.602-4.09,1.788
					c-2.233,2.829-1.456,8.026,0.409,11.481c2.26,4.185,5.316,5.332,6.468,5.764c9.54,3.002,20.693,4.641,32.243,4.734
					c1.498,0.013,3.029-0.001,4.541-0.042c5.03-0.37,8.895-2.969,10.327-6.949c1.145-3.181,0.426-6.636-1.832-8.801
					c-1.374-1.318-3.932-2.879-8.335-2.879c-0.05,0-0.1,0-0.15,0.001c-1.508,0.04-3.039,0.054-4.555,0.043
					c-11.591-0.096-22.784-1.741-32.371-4.758C449.971,135.618,449.083,135.491,448.273,135.491z"/>
				<path style="fill:#03A7D3;" d="M522.17,152.712c-1.852,0-3.388-0.676-4.466-1.993c-2.079-2.539-2.129-7.148-0.117-10.958
					c2.266-4.293,5.788-6.169,7.114-6.875c9.487-4.069,15.806-9.311,18.288-15.166c0.272-0.583,0.513-1.026,0.718-1.325l0.052-0.075
					l0.46-0.059l0.056,0.155c0.164,0.463,0.232,0.655,0.254,2.935v5.858c-0.054,8.261-0.54,9.772-1.157,11.686
					c-2.531,5.973-8.924,11.289-18.493,15.394C523.92,152.572,523.013,152.712,522.17,152.712z M543.958,116.754
					c-0.173,0.275-0.374,0.654-0.597,1.131c-2.522,5.947-8.914,11.264-18.483,15.368c-1.281,0.683-4.724,2.516-6.932,6.697
					c-1.938,3.672-1.907,8.092,0.073,10.511c1.031,1.26,3.035,2.531,6.721,1.445c9.448-4.054,15.767-9.295,18.249-15.15
					c0.6-1.866,1.079-3.352,1.131-11.548v-5.856C544.104,117.515,544.059,117.086,543.958,116.754z"/>
			</g>
		</g>
	</g>
</g>
<radialGradient id="SVGID_00000175297788699069877720000016274664069621146250_" cx="482.9081" cy="77.3538" r="65.8538" gradientUnits="userSpaceOnUse">
	<stop  offset="0" style="stop-color:#F8359E"/>
	<stop  offset="0.0428" style="stop-color:#E63192"/>
	<stop  offset="0.1941" style="stop-color:#AA246C"/>
	<stop  offset="0.3446" style="stop-color:#76194B"/>
	<stop  offset="0.4909" style="stop-color:#4B1030"/>
	<stop  offset="0.6322" style="stop-color:#2B091B"/>
	<stop  offset="0.7669" style="stop-color:#13040C"/>
	<stop  offset="0.8926" style="stop-color:#050103"/>
	<stop  offset="1" style="stop-color:#000000"/>
</radialGradient>
<circle style="opacity:0.6;fill:url(#SVGID_00000175297788699069877720000016274664069621146250_);" cx="482.908" cy="77.354" r="65.854"/>
<g>
	<path style="fill:#03A7D3;" d="M483.103,143.516c-2.074,0-4.147-0.456-5.726-1.367l-38.504-22.229
		c-1.598-0.923-2.477-2.17-2.477-3.513c0-1.344,0.88-2.591,2.478-3.514l38.299-22.271c3.158-1.824,8.297-1.823,11.453-0.001
		l38.504,22.23c1.598,0.923,2.477,2.17,2.477,3.513c0,1.344-0.879,2.591-2.477,3.514l-38.3,22.269
		C487.252,143.06,485.178,143.516,483.103,143.516z M482.901,89.961c-1.945,0-3.889,0.428-5.369,1.282l-38.299,22.271
		c-1.367,0.789-2.12,1.816-2.12,2.894c0,1.076,0.752,2.104,2.118,2.892l38.504,22.229c2.96,1.71,7.775,1.712,10.737,0l38.3-22.269
		c1.367-0.789,2.119-1.816,2.119-2.894c0-1.076-0.752-2.104-2.118-2.892l-38.504-22.23
		C486.789,90.388,484.845,89.961,482.901,89.961z"/>
	
		<linearGradient id="SVGID_00000052825344685572638210000000937912853888440509_" gradientUnits="userSpaceOnUse" x1="431.1951" y1="103.5509" x2="496.4186" y2="103.5509">
		<stop  offset="0" style="stop-color:#01C8EF"/>
		<stop  offset="0.1297" style="stop-color:#04B1DD"/>
		<stop  offset="0.5466" style="stop-color:#0E6BA7"/>
		<stop  offset="0.8476" style="stop-color:#154085"/>
		<stop  offset="1" style="stop-color:#172F78"/>
	</linearGradient>
	<path style="fill:url(#SVGID_00000052825344685572638210000000937912853888440509_);" d="M529.25,103.531L529.25,103.531
		l-0.006-18.46l-23.328,3.112l-17.467-10.086c-3.064-1.769-8.031-1.769-11.095,0l-2.72,1.729l-37.875,5.053v18.677
		c0,0.01,0,0.021,0,0.031v0.088l0.014-0.002c0.043,1.126,0.794,2.243,2.281,3.102l38.504,22.23c3.064,1.769,8.031,1.769,11.095,0
		l38.3-22.272c1.483-0.856,2.232-1.97,2.279-3.092l0.018-0.002V103.531z"/>
	
		<radialGradient id="SVGID_00000150812809473311252850000014805566590111161526_" cx="419.6296" cy="54.6423" r="145.6572" gradientUnits="userSpaceOnUse">
		<stop  offset="0" style="stop-color:#01C8EF"/>
		<stop  offset="0.1396" style="stop-color:#03BAE4"/>
		<stop  offset="0.4033" style="stop-color:#0895C8"/>
		<stop  offset="0.76" style="stop-color:#115A9A"/>
		<stop  offset="1" style="stop-color:#172F78"/>
	</radialGradient>
	<path style="fill:url(#SVGID_00000150812809473311252850000014805566590111161526_);" d="M526.952,81.729l-38.503-22.23
		c-3.064-1.769-8.031-1.769-11.095,0l-38.3,22.271c-3.064,1.769-3.064,4.637,0,6.406l38.503,22.23c3.064,1.769,8.031,1.769,11.095,0
		l38.3-22.271C530.016,86.366,530.016,83.498,526.952,81.729z"/>
	
		<radialGradient id="SVGID_00000079457119778342769290000012829960973830190992_" cx="432.4826" cy="63.4194" r="100.1444" gradientUnits="userSpaceOnUse">
		<stop  offset="0" style="stop-color:#F9636B"/>
		<stop  offset="1" style="stop-color:#B6246E"/>
	</radialGradient>
	<path style="fill:url(#SVGID_00000079457119778342769290000012829960973830190992_);" d="M526.952,81.729l-38.503-22.23
		c-3.064-1.769-8.031-1.769-11.095,0l-38.3,22.271c-3.064,1.769-3.064,4.637,0,6.406l38.503,22.23c3.064,1.769,8.031,1.769,11.095,0
		l38.3-22.271C530.016,86.366,530.016,83.498,526.952,81.729z"/>
	<path style="fill:#8B1E64;" d="M483.069,103.204c-1.412,0-2.824-0.317-3.925-0.954l-25.512-14.729
		c-1.144-0.659-1.772-1.566-1.772-2.555s0.629-1.896,1.772-2.555l25.376-14.757c2.203-1.271,5.651-1.271,7.853,0l25.512,14.729
		c1.143,0.659,1.773,1.566,1.773,2.555c0,0.988-0.63,1.896-1.773,2.555l-25.377,14.756
		C485.896,102.885,484.482,103.204,483.069,103.204z M482.935,67.703c-1.241,0-2.481,0.272-3.426,0.817l-25.376,14.757
		c-0.821,0.475-1.273,1.074-1.273,1.689c0,0.615,0.452,1.215,1.272,1.689l25.512,14.729c1.888,1.092,4.961,1.093,6.851,0
		l25.377-14.756c0.821-0.474,1.273-1.074,1.273-1.689c0-0.615-0.452-1.216-1.273-1.689L486.361,68.52
		C485.417,67.975,484.176,67.703,482.935,67.703z"/>
	<path style="fill:#FFFFFF;" d="M526.952,87.016l-38.3,22.271c-3.064,1.769-8.031,1.769-11.095,0l-38.503-22.23
		c-1.285-0.742-2.023-1.677-2.231-2.644c-0.287,1.338,0.452,2.735,2.231,3.762l38.503,22.23c3.064,1.769,8.031,1.769,11.095,0
		l38.3-22.271c1.779-1.027,2.518-2.424,2.231-3.762C528.975,85.339,528.237,86.274,526.952,87.016z"/>
	<g>
		<polygon style="fill:#FFFFFF;" points="493.828,115.333 492.005,116.386 492.005,114.281 493.828,113.229 		"/>
		<polygon style="fill:#FFFFFF;" points="497.642,113.132 495.819,114.184 495.819,112.079 497.642,111.027 		"/>
		<polygon style="fill:#FFFFFF;" points="501.455,110.93 499.632,111.982 499.632,109.878 501.455,108.825 		"/>
		<polygon style="fill:#FFFFFF;" points="498.337,116.995 496.514,118.047 496.514,115.942 498.337,114.89 		"/>
		<polygon style="fill:#FFFFFF;" points="501.695,115.056 499.872,116.109 499.872,114.004 501.695,112.951 		"/>
		<polygon style="fill:#FFFFFF;" points="513.687,103.868 511.864,104.92 511.864,102.816 513.687,101.763 		"/>
		<polygon style="fill:#FFFFFF;" points="524.192,97.803 522.369,98.855 522.369,96.751 524.192,95.698 		"/>
		<polygon style="fill:#FFFFFF;" points="505.268,108.728 503.446,109.781 503.446,107.676 505.268,106.623 		"/>
	</g>
</g>
<radialGradient id="SVGID_00000079450498531796974310000004036478331994241208_" cx="482.9081" cy="252.25" r="95.5919" gradientUnits="userSpaceOnUse">
	<stop  offset="0" style="stop-color:#01C8EF"/>
	<stop  offset="0.0776" style="stop-color:#01A4CC"/>
	<stop  offset="0.184" style="stop-color:#0179A3"/>
	<stop  offset="0.2959" style="stop-color:#02547F"/>
	<stop  offset="0.4122" style="stop-color:#023663"/>
	<stop  offset="0.5346" style="stop-color:#021F4C"/>
	<stop  offset="0.6654" style="stop-color:#020F3C"/>
	<stop  offset="0.8108" style="stop-color:#020533"/>
	<stop  offset="1" style="stop-color:#020230"/>
</radialGradient>
<circle style="opacity:0.3;fill:url(#SVGID_00000079450498531796974310000004036478331994241208_);" cx="482.908" cy="252.25" r="95.592"/>
<g>
	<g>
		<path style="opacity:0.6;fill:#172F78;" d="M534.028,236.206l-44.14-25.484c-1.835-1.059-3.322,0.065-3.322,2.512v12.356
			c0,2.447,1.487,5.289,3.322,6.348l44.14,25.484c1.835,1.059,3.322-0.065,3.322-2.512v-12.356
			C537.351,240.107,535.863,237.265,534.028,236.206z"/>
		<path style="fill:#03A7D3;" d="M535.35,258.178c-0.476,0-0.985-0.149-1.5-0.446l-44.14-25.483
			c-1.931-1.115-3.502-4.102-3.502-6.659v-12.356c0-1.417,0.484-2.51,1.327-2.996c0.72-0.415,1.618-0.352,2.532,0.174l44.14,25.484
			c1.931,1.115,3.502,4.102,3.502,6.658v12.357c0,1.418-0.484,2.511-1.328,2.997C536.067,258.089,535.719,258.178,535.35,258.178z
			 M488.569,210.683c-0.247,0-0.475,0.058-0.676,0.174c-0.616,0.355-0.969,1.222-0.969,2.376v12.356c0,2.329,1.41,5.038,3.143,6.038
			l44.14,25.483c0.684,0.396,1.327,0.457,1.816,0.176c0.616-0.355,0.969-1.222,0.969-2.377v-12.357c0-2.328-1.41-5.037-3.143-6.037
			l-44.14-25.484C489.309,210.799,488.92,210.683,488.569,210.683z"/>
	</g>
	<g>
		<path style="opacity:0.6;fill:#172F78;" d="M432.138,236.206l44.14-25.484c1.835-1.059,3.322,0.065,3.322,2.512v12.356
			c0,2.447-1.488,5.289-3.322,6.348l-44.14,25.484c-1.835,1.059-3.322-0.065-3.322-2.512v-12.356
			C428.816,240.107,430.304,237.265,432.138,236.206z"/>
		<path style="fill:#03A7D3;" d="M430.817,258.178c-0.369,0-0.718-0.09-1.031-0.272c-0.844-0.486-1.328-1.579-1.328-2.997v-12.357
			c0-2.557,1.571-5.543,3.502-6.658l44.14-25.484c0.914-0.527,1.811-0.591,2.532-0.174c0.843,0.486,1.327,1.579,1.327,2.996v12.356
			c0,2.557-1.571,5.544-3.502,6.659l-44.14,25.483C431.803,258.029,431.293,258.178,430.817,258.178z M432.317,236.516
			c-1.732,1-3.143,3.709-3.143,6.037v12.357c0,1.155,0.353,2.021,0.969,2.377c0.489,0.282,1.132,0.221,1.816-0.176l44.14-25.483
			c1.732-1,3.143-3.709,3.143-6.038v-12.356c0-1.154-0.353-2.021-0.969-2.376c-0.486-0.281-1.132-0.222-1.816,0.175L432.317,236.516
			z"/>
	</g>
	<g>
		<path style="fill:#03A7D3;" d="M483.01,275.651c-2.074,0-4.147-0.455-5.727-1.366l-38.503-22.229
			c-1.598-0.923-2.478-2.17-2.478-3.514c0-1.343,0.88-2.591,2.478-3.514l38.299-22.269c3.158-1.824,8.298-1.823,11.454-0.001
			l38.503,22.229c1.598,0.922,2.477,2.17,2.477,3.513c0.001,1.344-0.879,2.592-2.477,3.515l-38.299,22.27
			C487.158,275.195,485.083,275.651,483.01,275.651z M482.807,222.096c-1.944,0-3.889,0.427-5.369,1.282l-38.299,22.27
			c-1.367,0.79-2.12,1.817-2.119,2.894c0,1.077,0.752,2.105,2.118,2.893l38.503,22.229c2.961,1.709,7.777,1.709,10.738,0
			l38.299-22.27c1.367-0.79,2.119-1.817,2.119-2.895c0-1.076-0.753-2.104-2.118-2.892l-38.503-22.23
			C486.695,222.523,484.751,222.096,482.807,222.096z"/>
		<g>
			
				<linearGradient id="SVGID_00000081606839109960077450000011918837725091078077_" gradientUnits="userSpaceOnUse" x1="431.2895" y1="236.3701" x2="496.5129" y2="236.3701">
				<stop  offset="0" style="stop-color:#01C8EF"/>
				<stop  offset="0.1297" style="stop-color:#04B1DD"/>
				<stop  offset="0.5466" style="stop-color:#0E6BA7"/>
				<stop  offset="0.8476" style="stop-color:#154085"/>
				<stop  offset="1" style="stop-color:#172F78"/>
			</linearGradient>
			<path style="fill:url(#SVGID_00000081606839109960077450000011918837725091078077_);" d="M529.344,236.35L529.344,236.35
				l-0.006-18.46l-23.328,3.112l-17.467-10.086c-3.064-1.769-8.031-1.769-11.095,0l-2.72,1.729l-37.875,5.053v18.677
				c0,0.01,0,0.021,0,0.031v0.088l0.014-0.002c0.044,1.125,0.794,2.243,2.281,3.102l38.503,22.23c3.064,1.769,8.031,1.769,11.095,0
				l38.3-22.271c1.482-0.856,2.232-1.97,2.279-3.092l0.018-0.002V236.35z"/>
			
				<radialGradient id="SVGID_00000098213579852616179870000009369869184391142307_" cx="419.724" cy="187.4616" r="145.6572" gradientUnits="userSpaceOnUse">
				<stop  offset="0" style="stop-color:#01C8EF"/>
				<stop  offset="0.1396" style="stop-color:#03BAE4"/>
				<stop  offset="0.4033" style="stop-color:#0895C8"/>
				<stop  offset="0.76" style="stop-color:#115A9A"/>
				<stop  offset="1" style="stop-color:#172F78"/>
			</radialGradient>
			<path style="fill:url(#SVGID_00000098213579852616179870000009369869184391142307_);" d="M527.046,214.548l-38.503-22.23
				c-3.064-1.769-8.031-1.769-11.095,0l-38.3,22.271c-3.064,1.769-3.064,4.637,0,6.406l38.503,22.23
				c3.064,1.769,8.031,1.769,11.095,0l38.3-22.271C530.11,219.185,530.11,216.317,527.046,214.548z"/>
			<path style="fill:#FFFFFF;" d="M527.046,219.835l-38.3,22.271c-3.064,1.769-8.031,1.769-11.095,0l-38.503-22.23
				c-1.285-0.742-2.023-1.678-2.231-2.644c-0.287,1.338,0.452,2.735,2.231,3.762l38.503,22.23c3.064,1.768,8.031,1.769,11.095,0
				l38.3-22.271c1.779-1.027,2.518-2.424,2.231-3.762C529.07,218.158,528.331,219.094,527.046,219.835z"/>
			<g>
				<polygon style="fill:#FFFFFF;" points="493.923,248.152 492.1,249.205 492.1,247.1 493.923,246.048 				"/>
				<polygon style="fill:#FFFFFF;" points="497.736,245.951 495.913,247.003 495.913,244.898 497.736,243.846 				"/>
				<polygon style="fill:#FFFFFF;" points="501.549,243.749 499.727,244.801 499.727,242.697 501.549,241.645 				"/>
				<polygon style="fill:#FFFFFF;" points="498.432,249.814 496.609,250.866 496.609,248.762 498.432,247.709 				"/>
				<polygon style="fill:#FFFFFF;" points="501.789,247.876 499.966,248.928 499.966,246.823 501.789,245.771 				"/>
				<polygon style="fill:#FFFFFF;" points="513.781,236.687 511.958,237.74 511.958,235.635 513.781,234.583 				"/>
				<polygon style="fill:#FFFFFF;" points="524.286,230.622 522.463,231.675 522.463,229.57 524.286,228.518 				"/>
				<polygon style="fill:#FFFFFF;" points="505.363,241.548 503.54,242.6 503.54,240.495 505.363,239.443 				"/>
			</g>
		</g>
		<path style="fill:#FFFFFF;" d="M470.727,250.023l-21.376-12.342c-0.51-0.295-0.924-1.085-0.924-1.765v-1.587
			c0-0.68,0.414-0.993,0.924-0.699l21.376,12.342c0.51,0.295,0.924,1.085,0.924,1.765v1.587
			C471.651,250.004,471.237,250.317,470.727,250.023z"/>
	</g>
	<g>
		<path style="opacity:0.6;fill:#172F78;" d="M489.888,276.47l44.14-25.484c1.835-1.059,3.322,0.065,3.322,2.512v12.356
			c0,2.447-1.487,5.289-3.322,6.348l-44.14,25.484c-1.835,1.059-3.322-0.065-3.322-2.512v-12.356
			C486.566,280.372,488.054,277.53,489.888,276.47z"/>
		<path style="fill:#03A7D3;" d="M488.567,298.443c-0.369,0-0.718-0.09-1.031-0.271c-0.844-0.487-1.328-1.579-1.328-2.997v-12.356
			c0-2.557,1.571-5.543,3.502-6.658l44.14-25.484c0.914-0.528,1.813-0.591,2.531-0.175c0.844,0.487,1.328,1.579,1.328,2.997v12.356
			c0,2.558-1.571,5.544-3.502,6.658l-44.14,25.484C489.553,298.294,489.043,298.443,488.567,298.443z M490.067,276.781
			c-1.732,1-3.143,3.709-3.143,6.037v12.356c0,1.155,0.353,2.021,0.969,2.377c0.487,0.281,1.131,0.221,1.816-0.176l44.14-25.484
			c1.732-0.999,3.143-3.708,3.143-6.037v-12.356c0-1.155-0.354-2.021-0.969-2.377c-0.487-0.28-1.131-0.22-1.816,0.176
			L490.067,276.781z"/>
	</g>
	<g>
		<path style="opacity:0.6;fill:#172F78;" d="M476.278,276.749l-44.14-25.484c-1.835-1.059-3.322,0.065-3.322,2.512v12.356
			c0,2.447,1.487,5.289,3.322,6.348l44.14,25.484c1.835,1.059,3.322-0.065,3.322-2.512v-12.356
			C479.601,280.651,478.113,277.809,476.278,276.749z"/>
		<path style="fill:#03A7D3;" d="M477.6,298.722c-0.476,0-0.985-0.149-1.5-0.446l-44.14-25.484
			c-1.931-1.115-3.502-4.102-3.502-6.658v-12.356c0-1.418,0.484-2.51,1.328-2.997c0.718-0.415,1.617-0.353,2.531,0.175l44.14,25.484
			c1.931,1.114,3.502,4.101,3.502,6.658v12.356c0,1.418-0.484,2.51-1.328,2.997C478.317,298.632,477.969,298.722,477.6,298.722z
			 M430.819,251.226c-0.247,0-0.475,0.058-0.676,0.174c-0.615,0.355-0.969,1.222-0.969,2.377v12.356c0,2.328,1.41,5.037,3.143,6.037
			l44.14,25.484c0.686,0.396,1.33,0.457,1.816,0.176c0.615-0.355,0.969-1.222,0.969-2.377v-12.356c0-2.329-1.41-5.038-3.143-6.037
			l-44.14-25.484C431.558,251.343,431.17,251.226,430.819,251.226z"/>
	</g>
	<path style="opacity:0.6;fill:#172F78;" d="M527.046,204.799l-38.503-22.23c-3.064-1.769-8.031-1.769-11.095,0l-38.3,22.271
		c-3.064,1.769-3.064,4.637,0,6.406l38.503,22.23c3.064,1.769,8.031,1.769,11.095,0l38.3-22.271
		C530.11,209.436,530.11,206.568,527.046,204.799z"/>
	<path style="fill:#03A7D3;" d="M483.198,235.153c-2.074,0-4.148-0.456-5.727-1.367l-38.503-22.23
		c-1.598-0.923-2.477-2.171-2.477-3.514c0-1.343,0.879-2.591,2.477-3.514l38.3-22.27c3.158-1.821,8.295-1.823,11.453-0.001
		l38.503,22.229c1.598,0.923,2.477,2.171,2.477,3.514c0,1.343-0.88,2.591-2.477,3.514l-38.299,22.27
		C487.347,234.697,485.272,235.153,483.198,235.153z M482.995,181.597c-1.944,0-3.888,0.428-5.368,1.282l-38.3,22.27
		c-1.367,0.79-2.119,1.817-2.119,2.894c0,1.076,0.752,2.104,2.118,2.893l38.503,22.229c2.961,1.711,7.777,1.711,10.738,0
		l38.299-22.27c1.367-0.79,2.12-1.817,2.12-2.893c0-1.076-0.753-2.104-2.119-2.893l-38.503-22.229
		C486.884,182.025,484.94,181.597,482.995,181.597z"/>
</g>
<g>
	<circle style="opacity:0.4;fill:#03A7D3;" cx="546.5" cy="190.576" r="4.167"/>
	<circle style="opacity:0.8;fill:#03A7D3;" cx="546.5" cy="190.576" r="2.047"/>
</g>
<g>
	<path style="opacity:0.4;fill:#03A7D3;" d="M418.961,246.048c0,3.354-2.719,6.073-6.073,6.073c-3.354,0-6.073-2.719-6.073-6.073
		c0-3.354,2.719-6.073,6.073-6.073C416.242,239.975,418.961,242.694,418.961,246.048z"/>
	<circle style="opacity:0.8;fill:#03A7D3;" cx="412.888" cy="246.048" r="2.984"/>
</g>
<g>
	<path style="opacity:0.4;fill:#03A7D3;" d="M453.025,49.844c0,2.54-2.059,4.598-4.598,4.598c-2.54,0-4.598-2.059-4.598-4.598
		s2.059-4.598,4.598-4.598C450.966,45.246,453.025,47.305,453.025,49.844z"/>
	<path style="opacity:0.8;fill:#03A7D3;" d="M450.686,49.844c0,1.248-1.012,2.259-2.26,2.259s-2.259-1.012-2.259-2.259
		c0-1.248,1.012-2.26,2.259-2.26S450.686,48.596,450.686,49.844z"/>
</g>
</svg>
