<?xml version="1.0" encoding="utf-8"?>
<!-- Generator: Adobe Illustrator 27.5.0, SVG Export Plug-In . SVG Version: 6.00 Build 0)  -->
<svg version="1.1" xmlns="http://www.w3.org/2000/svg" xmlns:xlink="http://www.w3.org/1999/xlink" x="0px" y="0px"
	 viewBox="0 0 650 500" style="enable-background:new 0 0 650 500;" xml:space="preserve">
<g id="BACKGROUND">
	<rect style="fill:#FFFFFF;" width="650" height="500"/>
</g>
<g id="OBJECTS">
	<g>
		<defs>
			<rect id="SVGID_1_" width="650" height="500"/>
		</defs>
		<clipPath id="SVGID_00000064325029816325806940000002321366106041970586_">
			<use xlink:href="#SVGID_1_"  style="overflow:visible;"/>
		</clipPath>
		<path style="clip-path:url(#SVGID_00000064325029816325806940000002321366106041970586_);fill:#99B9FC;" d="M560.924,20.82
			c-6.218-4.62-13.508-7.336-21.103-8.657c-3.779-0.647-7.567-0.942-11.355-0.998c-2.569,0.185-5.128,0.36-7.697,0.545
			c-3.234,0.222-6.468,0.453-9.702,0.684c-7.161,0.998-14.285,2.421-21.316,3.687c-16.65,3.003-34.335,5.377-50.578-0.739
			c-2.846-1.072-5.636-2.393-8.297-3.927c-5.701-1.903-11.125-4.583-16.031-8.297c-6.052-4.592-10.866-10.45-13.684-17.528
			c-2.753-6.911-3.446-14.83-1.478-22.037c1.857-6.819,6.218-12.658,12.132-16.511c5.571-3.631,12.233-5.294,18.812-5.701
			c6.819-0.416,13.795,0.554,20.309,2.559c7.882,2.412,15.282,6.292,22.517,10.164c7.309,3.899,14.589,7.992,22.36,10.912
			c8.371,3.151,17.158,4.685,26.093,4.823c18.461,0.296,36.515-4.611,54.209-9.286c16.493-4.352,33.3-8.464,50.458-8.556
			c15.846-0.083,31.831,3.714,44.618,13.425c11.55,8.778,19.773,21.122,24.845,34.612c10.349,27.543,8.057,62.053-10.348,85.762
			c-8.981,11.559-22,19.625-36.497,22.046c-14.035,2.338-28.329-0.73-39.333-9.96c-9.443-7.909-15.356-19.108-20.355-30.14
			c-5.193-11.448-9.6-23.404-16.622-33.9C569.609,28.904,565.664,24.349,560.924,20.82z"/>
		<path style="clip-path:url(#SVGID_00000064325029816325806940000002321366106041970586_);fill:#99B9FC;" d="M195.521,486.528
			c4.84,8.71,5.13,19.31-0.16,27.9c-5.02,8.15-13.82,13.3-22.85,15.84c-10.89,3.06-22.08,1.89-33.01-0.36
			c-12.73-2.61-25.18-6.52-38.26-7.02c-27.08-1.03-53.36,8.52-80.47,7.29c-11.55-0.53-22.98-3.08-33.1-8.82
			c-8.95-5.07-16.88-12.63-21.08-22.13c-4.46-10.09-4.7-21.79-0.6-32.05c4.21-10.54,12.46-18.57,22.95-22.81
			c9.45-3.81,20.09-3.87,29.64-0.38c8.05,2.93,15.03,7.95,21.44,13.53c6.09,4.06,11.98,8.44,18.3,12.12
			c5.22,3.02,10.7,5.49,16.61,6.77c6.28,1.37,12.78,1.38,19.15,0.74c13.18-1.34,25.81-5.69,38.68-8.59
			c12.55-2.84,26.15-4.65,38.71-0.87C181.341,470.658,190.481,477.448,195.521,486.528z"/>
		<path style="clip-path:url(#SVGID_00000064325029816325806940000002321366106041970586_);fill:#99B9FC;" d="M693.681,468.588
			c3.95,7.27,6.04,15.74,5.15,24.02c-0.91,8.48-4.57,16.33-10.08,22.8c-5.41,6.36-12.69,11.26-20.7,13.67
			c-3.91,1.18-8.06,1.75-12.14,1.58c-4.8-0.2-9.46-1.45-14-2.95c-8.65-2.87-17.56-6.72-26.72-4.75c-7.18,1.54-13.46,5.58-19.4,9.78
			c-12.43,8.77-25.83,20.2-42.2,16.9c-8.27-1.67-15.56-6.93-20.42-13.74c-5-7.01-6.87-15.67-5.31-24.12
			c1.52-8.26,6.33-15.99,12.82-21.27c3.4-2.76,7.19-4.93,11.35-6.33c4.62-1.54,9.59-1.99,14.43-2.15c9.46-0.29,19.86,0.99,28.6-3.46
			c8.43-4.29,13.81-12.52,19.68-19.61c5.61-6.78,12.71-13.81,21.82-15.15c3.01-0.44,6.2-0.31,9.21,0.45c2.3-0.38,4.63-0.58,6.98-0.6
			C669.681,443.528,685.661,453.848,693.681,468.588z"/>
	</g>
	<g>
		<defs>
			<path id="SVGID_00000149379503470388386380000009559551683021019786_" d="M385.245,257.675l-29.841,94.683h-27.982
				c-0.977,1.514-2.037,3.001-3.166,4.473c-5.024,6.565-11.121,12.291-18.251,16.517c-7.722,4.556-16.393,7.034-25.326,7.612
				c-20.302,1.335-39.654-6.799-58.153-14.026c-18.21-7.116-37.961-14.191-57.685-9.676c-17.054,3.909-31.905,14.053-48.89,18.182
				c-8.437,2.051-17.164,2.395-25.629,0.289c-8.479-2.12-16.269-6.469-22.945-12.071c-14.177-11.892-22.023-29.648-25.34-47.541
				c-6.799-36.695,1.858-76.143,22.835-106.947c8.534-12.539,19.049-23.647,30.997-32.937c2.891-2.491,5.864-4.859,8.947-7.102
				c0,0,0.606-58.841,46.481-63.246c35.883-3.427,53.391,26.111,59.309,39.159c20.343,3.29,40.012,10.832,56.942,22.559
				c28.616,19.834,48.863,49.537,61.071,81.814c1.018,2.698,2.009,5.451,2.932,8.258H385.245z"/>
		</defs>
		<clipPath id="SVGID_00000056402038099960338750000014678820952291699620_">
			<use xlink:href="#SVGID_00000149379503470388386380000009559551683021019786_"  style="overflow:visible;"/>
		</clipPath>
		<path style="clip-path:url(#SVGID_00000056402038099960338750000014678820952291699620_);fill:#99B9FC;" d="M324.255,356.826
			c-5.024,6.565-11.121,12.291-18.251,16.517c-7.722,4.556-16.393,7.033-25.326,7.611c-20.302,1.335-39.654-6.799-58.153-14.026
			c-18.21-7.116-37.961-14.191-57.685-9.676c-17.054,3.909-31.905,14.053-48.89,18.182c-8.437,2.051-17.164,2.395-25.629,0.289
			c-8.479-2.12-16.269-6.469-22.945-12.071c-14.177-11.892-22.022-29.648-25.34-47.541c-6.799-36.695,1.858-76.143,22.835-106.947
			c8.534-12.539,19.05-23.647,30.997-32.938c7.969-6.882,16.723-12.869,26.083-17.659c15.237-7.804,31.823-12.567,48.807-14.48
			c33.584-3.785,68.903,4.184,96.789,23.509c28.616,19.834,48.863,49.537,61.071,81.814
			C341.502,283.463,347.999,325.856,324.255,356.826z"/>
		<g style="clip-path:url(#SVGID_00000056402038099960338750000014678820952291699620_);">
			<path style="fill:#E5A840;" d="M200.159,354.065c2.89,13.998,6.799,34.328,7.157,43.013h-47.059
				c0.922-8.795,0.853-33.006,0.785-41.76C179.665,354.918,196.278,354.23,200.159,354.065z"/>
			<path style="fill:#5B7ADE;" d="M202.788,347.444c-0.702,4.143-1.776,6.579-1.776,6.579s-0.289,0.014-0.853,0.041
				c-3.882,0.165-20.495,0.853-39.118,1.253c-16.118,0.33-33.749,0.468-45.931-0.138c-7.584-0.372-13.062-1.032-14.741-2.106
				c-7.928-5.079-7.735-13.97-14.728-63.136c-3.4-24.005-1.432-37.603,1.486-45.243c3.042-8.024,7.13-9.483,7.13-9.483
				c13.489-5.065,19.889,14.356,39.599,0.964c3.964-2.698,6.621-6.483,8.368-10.819c1.597,4.377,5.065,14.604,8.176,28.836
				c1.376,6.318,2.684,13.447,3.73,21.197c3.111,23.137,5.382,38.98,6.359,45.71c16.008,2.753,40.521,4.611,40.521,4.611
				c0.138,0.441,0.275,0.867,0.399,1.294c2.519,8.369,2.202,15.581,1.39,20.44H202.788z"/>
			<path style="fill:#5B7ADE;" d="M243.296,374.807l5.161,22.27h-41.141c-0.358-8.685-4.267-29.015-7.157-43.013
				c0.564-0.027,0.853-0.041,0.853-0.041s1.074-2.436,1.776-6.579h0.014l2.436-0.619h0.014c0.055,1.06,0.316,2.216,0.922,3.372
				h31.41L243.296,374.807z"/>
			<path style="fill:#5B7ADE;" d="M161.042,355.317c0.069,8.754,0.138,32.965-0.785,41.76h-50.886l5.74-41.898
				C127.292,355.785,144.924,355.648,161.042,355.317z"/>
			<path style="fill:#34468A;" d="M136.046,117.791c7.364-5.368,16.641-8.066,25.739-7.46l0.069,0.44
				c-0.509,0.083-1.005,0.207-1.5,0.344c-29.139,8.038-31.616,33.832-31.822,38.223c-3.647,1.886-6.276,7.336-6.276,13.778
				c0,7.997,4.074,14.494,9.112,14.494c0,0,4.005,0.84,7.24-2.051l2.712,6.662c0.014,0.014,0.014,0.027,0.014,0.041
				c0.317,1.074,7.653,26.234,0.895,43.095c-1.748,4.336-4.404,8.121-8.368,10.819c-19.71,13.392-26.11-6.029-39.599-0.964
				c0,0-4.088,1.459-7.13,9.483c-3.716-0.963-6.662-4.542-7.377-8.424c-0.826-4.528,0.812-9.194,3.317-13.062
				c2.491-3.868,5.808-7.116,8.795-10.626c2.987-3.496,5.726-7.405,6.703-11.906c1.308-6.001-0.578-12.691,2.23-18.155
				c2.519-4.886,8.08-7.336,11.755-11.41c3.647-4.06,5.272-9.538,6.139-14.92c0.853-5.395,1.06-10.887,2.381-16.173
				C123.287,131.169,128.682,123.159,136.046,117.791z"/>
			<path style="fill:#E5A840;" d="M150.402,254.193c0,0,6.414,12.553,21.912,14.012c15.127,1.404,18.334-16.393,18.485-17.26
				c4.528,26.331,10.887,65.613,10.213,74.766c0,0-24.514-1.858-40.521-4.611c-0.977-6.731-3.248-22.573-6.359-45.71
				C153.086,267.64,151.779,260.51,150.402,254.193z"/>
			<path style="fill:#FFFFFF;" d="M135.716,148.994c-2.326-0.798-4.349-0.372-4.349-0.372c-0.991,0-1.941,0.248-2.835,0.716
				c0.206-4.391,2.684-30.185,31.822-38.223c0.495-0.138,0.991-0.261,1.5-0.344c3.221-0.633,6.579-0.427,9.607,0.853
				c0.289,0.11,0.564,0.248,0.853,0.385c0,0-36.64,0.729-36.599,36.97V148.994z"/>
			<path style="fill:#FFFFFF;" d="M378.762,260.084l-28.905,90.113h-26.592c1.638-2.657,2.959-5.161,3.441-6.318
				c1.074-2.546-0.385-6.951-1.018-10.323c-0.647-3.386-1.666-3.097-1.666-3.097s-0.124-4.501-2.299-4.749
				c-2.161-0.261-4.583,3.51-4.583,3.51s-1.597-2.106-3.964-0.895c-2.354,1.211-2.161,8.671-2.161,8.671
				c-8.424,0.633-12.112,11.603-12.112,11.603c-6.51-1.844-16.2,1.597-16.2,1.597h-45.119h-31.41
				c-0.606-1.156-0.867-2.312-0.922-3.372c-0.151-2.629,0.922-4.666,0.922-4.666h20.536h21.747h15.691l28.905-82.075H378.762z"/>
			<path style="fill:#FFFFFF;" d="M323.265,350.197c-1.996,3.235-4.473,6.676-6.51,8.107c-3.014,2.12-21.637,3.331-28.409,3.703
				l-5.643-11.81c0,0,9.69-3.441,16.2-1.597c0,0,3.689-10.97,12.112-11.603c0,0-0.193-7.46,2.161-8.671
				c2.367-1.211,3.964,0.895,3.964,0.895s2.422-3.771,4.583-3.51c2.175,0.248,2.299,4.749,2.299,4.749s1.019-0.289,1.666,3.097
				c0.633,3.372,2.092,7.777,1.018,10.323C326.225,345.036,324.903,347.541,323.265,350.197z"/>
			<path style="fill:#5B7ADE;" d="M288.346,362.007l0.661,1.39c0,0-33.254,9.786-45.711,11.41l-5.712-24.61h45.119L288.346,362.007z
				"/>
			<path style="fill:#FFFFFF;" d="M252.477,321.692c0,0,12.181,16.517,11.672,20.467h-15.691c0,0-5.23-2.863-6.194-5.161
				l-14.411,2.588l-1.142,2.574h-20.536c0,0-1.074,2.037-0.922,4.666h-0.014l-2.436,0.619c0.812-4.859,1.129-12.071-1.39-20.44
				c0,0,20.646-4.804,29.372-6.841c5.891-1.376,13.2-1.886,17.673-0.936C250.618,319.682,252.119,320.48,252.477,321.692z"/>
			<path style="fill:#5B7ADE;" d="M190.8,250.944c-2.436-14.136-4.336-24.528-4.336-24.528c-1.363-3.207-2.312-6.345-2.945-9.222
				c0.289,0.055,9.869,1.831,17.535,11.906c0,0,23.385,2.959,32.098,12.044c8.699,9.098,15.306,78.056,15.306,78.056v0.027
				c-4.473-0.95-11.782-0.44-17.673,0.936c-8.726,2.037-29.372,6.841-29.372,6.841c-0.124-0.427-0.262-0.853-0.399-1.294
				C201.687,316.558,195.328,277.275,190.8,250.944z"/>
			<path style="fill:#5B7ADE;" d="M248.457,342.159H226.71l1.142-2.574l14.411-2.588
				C243.227,339.296,248.457,342.159,248.457,342.159z"/>
			<path style="fill:#34468A;" d="M199.856,128.086c2.395,4.583-5.354,14.149-5.354,14.149
				c-2.684-14.727-19.517-17.411-19.517-17.411s-11.534,3.001-14.604,14.989c-2.368,9.291-13.599,14.521-18.554,16.407h-0.014
				c-1.28-4.556-3.84-6.469-6.098-7.226v-0.014c-0.041-36.241,36.599-36.97,36.599-36.97
				C178.247,115.162,197.475,123.489,199.856,128.086z"/>
			<path style="fill:#FFFFFF;" d="M197.558,168.071c2.863,12.209-5.864,30.432-15.347,34.713c-1.005,0.454-2.01,0.743-3.014,0.867
				c-8.892,1.046-23.605-3.441-33.199-14.618c-1.748-2.037-3.317-4.294-4.666-6.772c0-0.014,0-0.028-0.014-0.041l-2.712-6.662
				c2.202-1.954,4.047-5.63,4.047-12.443c0-2.794-0.316-5.065-0.84-6.896h0.014c4.955-1.886,16.186-7.116,18.554-16.407
				c3.069-11.989,14.604-14.989,14.604-14.989s16.833,2.684,19.517,17.411C197.186,156.963,194.406,154.582,197.558,168.071z"/>
			<path style="fill:#FFFFFF;" d="M145.998,189.033c0.275,0.785,9.91,26.744,36.778,24.28c0.193,1.225,0.427,2.519,0.729,3.882
				c0,0,0,0,0.014,0c0.633,2.877,1.583,6.015,2.945,9.222c0,0,1.899,10.392,4.336,24.528c-0.151,0.867-3.358,18.664-18.485,17.26
				c-15.498-1.459-21.912-14.012-21.912-14.012c-3.111-14.232-6.579-24.459-8.176-28.836c6.758-16.861-0.578-42.022-0.895-43.095
				C142.681,184.739,144.25,186.996,145.998,189.033z"/>
			<path style="fill:#34468A;" d="M182.211,202.784c0,0-0.385,4.322,0.564,10.529c-26.868,2.464-36.502-23.495-36.778-24.28
				c9.594,11.176,24.307,15.664,33.199,14.618C180.201,203.527,181.206,203.238,182.211,202.784z"/>
			<path style="fill:#FFFFFF;" d="M141.813,156.22c0.523,1.831,0.84,4.102,0.84,6.896c0,6.813-1.844,10.488-4.047,12.443
				c-3.235,2.89-7.24,2.051-7.24,2.051c5.038,0,9.126-6.497,9.126-14.494c0-8.011-4.088-14.494-9.126-14.494
				c0,0,2.023-0.427,4.349,0.372C137.973,149.751,140.533,151.664,141.813,156.22z"/>
			<path style="fill:#E5A840;" d="M128.531,149.338c0.895-0.468,1.844-0.716,2.835-0.716c5.038,0,9.126,6.483,9.126,14.494
				c0,7.997-4.088,14.494-9.126,14.494c-5.038,0-9.112-6.497-9.112-14.494C122.255,156.674,124.884,151.224,128.531,149.338z"/>
			<g>
				<path style="fill:#34468A;" d="M128.531,149.838c-0.094,0-0.187-0.026-0.269-0.079c-0.151-0.096-0.239-0.266-0.23-0.445
					c0.237-5.042,2.904-30.603,32.189-38.682c0.415-0.116,0.968-0.261,1.553-0.356c3.469-0.682,6.893-0.378,9.882,0.886
					c0.238,0.091,0.484,0.208,0.735,0.329l0.138,0.066c0.21,0.1,0.323,0.33,0.274,0.557c-0.049,0.227-0.247,0.39-0.479,0.395
					c-0.362,0.007-36.149,1.148-36.109,36.47c0,0.162-0.078,0.32-0.209,0.414c-0.131,0.094-0.301,0.125-0.453,0.073
					c-2.159-0.741-4.066-0.359-4.086-0.355c-0.033,0.007-0.068,0.011-0.102,0.011c-0.893,0-1.769,0.222-2.604,0.659
					C128.69,149.819,128.611,149.838,128.531,149.838z M165.354,110.924c-1.117,0-2.256,0.112-3.404,0.338
					c-0.553,0.09-1.071,0.226-1.463,0.335c-27.283,7.526-30.925,30.548-31.407,36.947c0.725-0.274,1.475-0.415,2.237-0.421
					c0.319-0.059,1.942-0.313,3.902,0.2c0.345-30.598,27.124-35.785,34.958-36.645C168.652,111.176,167.028,110.924,165.354,110.924
					z"/>
			</g>
			<g>
				<path style="fill:#34468A;" d="M349.857,350.697h-26.592c-0.182,0-0.349-0.098-0.436-0.256
					c-0.088-0.158-0.084-0.353,0.011-0.507c1.625-2.636,2.942-5.139,3.404-6.248c0.778-1.843,0.075-4.948-0.545-7.689
					c-0.184-0.813-0.363-1.605-0.503-2.349c-0.479-2.512-1.118-2.696-1.125-2.697c-0.147,0.042-0.264,0.008-0.388-0.084
					c-0.125-0.091-0.156-0.241-0.161-0.395c-0.03-1.055-0.436-4.104-1.855-4.265c-1.517-0.189-3.477,2.308-4.105,3.283
					c-0.089,0.137-0.238,0.223-0.401,0.229c-0.159,0.004-0.319-0.067-0.418-0.198c-0.054-0.069-1.383-1.752-3.338-0.751
					c-1.51,0.776-1.96,5.45-1.889,8.213c0.007,0.267-0.197,0.491-0.462,0.512c-8,0.601-11.641,11.157-11.676,11.264
					c-0.085,0.253-0.353,0.396-0.61,0.322c-6.279-1.781-15.801,1.553-15.896,1.587c-0.054,0.018-0.11,0.028-0.168,0.028h-76.528
					c-0.186,0-0.356-0.103-0.443-0.268c-0.584-1.116-0.913-2.32-0.978-3.579c-0.157-2.732,0.933-4.836,0.979-4.925
					c0.087-0.164,0.257-0.267,0.442-0.267h57.621l28.787-81.741c0.07-0.2,0.26-0.334,0.472-0.334h85.71
					c0.16,0,0.31,0.076,0.404,0.205c0.094,0.129,0.12,0.296,0.072,0.447l-28.905,90.113
					C350.267,350.557,350.075,350.697,349.857,350.697z M324.155,349.697h25.338l28.584-89.113h-84.67l-28.787,81.741
					c-0.07,0.2-0.26,0.334-0.472,0.334h-57.655c-0.265,0.614-0.853,2.219-0.742,4.138c0.053,1.016,0.298,1.989,0.732,2.9h76.134
					c1.001-0.347,9.659-3.233,15.971-1.696c0.79-2.074,4.461-10.564,11.921-11.457c-0.006-1.79,0.158-7.489,2.438-8.662
					c1.77-0.908,3.288-0.201,4.131,0.546c0.804-1.107,2.734-3.453,4.705-3.213c2.189,0.248,2.629,3.605,2.718,4.832
					c0.048,0.022,0.098,0.048,0.148,0.079c0.671,0.414,1.185,1.536,1.528,3.337c0.138,0.733,0.314,1.515,0.496,2.314
					c0.685,3.028,1.394,6.159,0.492,8.296C326.748,345.08,325.648,347.213,324.155,349.697z"/>
			</g>
			<g>
				<path style="fill:#34468A;" d="M288.346,362.507c-0.192,0-0.368-0.11-0.451-0.284l-5.644-11.81
					c-0.061-0.128-0.065-0.275-0.011-0.407c0.054-0.131,0.161-0.232,0.295-0.279c0.393-0.141,9.49-3.324,16.053-1.726
					c0.79-2.074,4.461-10.564,11.921-11.457c-0.006-1.79,0.158-7.489,2.438-8.662c1.77-0.908,3.288-0.201,4.131,0.546
					c0.804-1.107,2.734-3.453,4.705-3.213c2.189,0.248,2.629,3.605,2.718,4.832c0.048,0.022,0.098,0.048,0.148,0.079
					c0.671,0.414,1.185,1.536,1.528,3.337c0.138,0.733,0.314,1.515,0.496,2.314c0.685,3.028,1.394,6.159,0.492,8.296
					c-0.462,1.108-1.747,3.581-3.476,6.387l0,0c-1.78,2.884-4.379,6.657-6.649,8.253c-3.087,2.172-21.077,3.376-28.668,3.793
					C288.364,362.507,288.355,362.507,288.346,362.507z M283.398,350.493l5.254,10.996c11.986-0.669,25.487-1.957,27.814-3.595
					c1.663-1.169,3.927-3.995,6.373-7.96c1.625-2.636,2.942-5.139,3.404-6.248c0.778-1.843,0.075-4.948-0.545-7.689
					c-0.184-0.813-0.363-1.605-0.503-2.349c-0.479-2.512-1.118-2.696-1.125-2.697c-0.147,0.042-0.264,0.008-0.388-0.084
					c-0.125-0.091-0.156-0.241-0.161-0.395c-0.03-1.055-0.436-4.104-1.855-4.265c-1.517-0.189-3.477,2.308-4.105,3.283
					c-0.089,0.137-0.238,0.223-0.401,0.229c-0.159,0.004-0.319-0.067-0.418-0.198c-0.054-0.069-1.383-1.752-3.338-0.751
					c-1.51,0.776-1.96,5.45-1.889,8.213c0.007,0.267-0.197,0.491-0.462,0.512c-7.991,0.6-11.641,11.157-11.677,11.264
					c-0.085,0.252-0.354,0.394-0.61,0.322C293.337,347.541,285.49,349.823,283.398,350.493z M323.265,350.197h0.01H323.265z"/>
			</g>
			<g>
				<path style="fill:#34468A;" d="M248.457,397.577c-0.227,0-0.433-0.156-0.487-0.387l-10.873-46.88
					c-0.034-0.148,0.001-0.305,0.096-0.425c0.095-0.119,0.239-0.189,0.392-0.189h45.119c0.192,0,0.368,0.11,0.451,0.284l5.644,11.81
					c0.119,0.249,0.014,0.548-0.235,0.667c-0.251,0.118-0.548,0.014-0.667-0.235l-5.508-11.525h-44.174l10.731,46.267
					c0.062,0.27-0.105,0.538-0.374,0.601C248.532,397.573,248.494,397.577,248.457,397.577z"/>
			</g>
			<g>
				<path style="fill:#34468A;" d="M202.802,347.944c-0.223,0-0.427-0.15-0.484-0.377c-0.068-0.268,0.094-0.54,0.361-0.607
					l2.06-0.523c-0.034-2.53,0.949-4.427,0.993-4.511c0.087-0.164,0.257-0.267,0.442-0.267h20.211l1.011-2.277
					c0.067-0.151,0.206-0.26,0.369-0.289l14.411-2.588c0.231-0.038,0.459,0.082,0.549,0.299c0.716,1.708,4.37,4.023,5.862,4.855
					h15.07c-0.321-3.676-8.368-15.313-11.582-19.671c-0.035-0.047-0.061-0.1-0.077-0.155c-0.278-0.942-1.538-1.674-3.643-2.116
					c-4.154-0.88-11.333-0.497-17.456,0.935c-8.727,2.037-29.373,6.841-29.373,6.841l-0.227-0.975c0,0,20.645-4.804,29.372-6.841
					c6.35-1.483,13.539-1.862,17.891-0.939c2.465,0.519,3.934,1.435,4.367,2.724c1.472,1.999,12.23,16.775,11.716,20.761
					c-0.032,0.25-0.245,0.436-0.496,0.436h-15.691c-0.084,0-0.167-0.022-0.24-0.061c-0.209-0.114-4.894-2.698-6.233-5.042
					l-13.781,2.475l-1.035,2.332c-0.08,0.181-0.259,0.297-0.457,0.297h-20.217c-0.265,0.614-0.853,2.219-0.742,4.138
					c0.008,0.137-0.041,0.272-0.135,0.371c-0.08,0.085-0.185,0.138-0.299,0.153l-2.392,0.607
					C202.884,347.94,202.843,347.944,202.802,347.944z"/>
			</g>
			<g>
				<path style="fill:#34468A;" d="M248.457,342.659H226.71c-0.169,0-0.327-0.086-0.419-0.228c-0.092-0.142-0.107-0.32-0.038-0.476
					l1.143-2.574c0.067-0.151,0.206-0.26,0.369-0.289l14.411-2.588c0.231-0.038,0.459,0.082,0.549,0.299
					c0.735,1.752,4.561,4.143,5.973,4.917c0.2,0.109,0.301,0.341,0.244,0.563C248.885,342.505,248.686,342.659,248.457,342.659z
					 M227.479,341.659h19.167c-1.548-0.985-3.799-2.594-4.662-4.104l-13.781,2.475L227.479,341.659z"/>
			</g>
			<g>
				<path style="fill:#34468A;" d="M186.464,226.917c-0.194,0-0.379-0.114-0.46-0.305c-1.259-2.962-2.251-6.058-2.951-9.204
					c-0.016-0.033-0.029-0.068-0.037-0.105c-0.275-1.241-0.516-2.521-0.735-3.913c-0.948-6.198-0.584-10.472-0.568-10.651
					c0.016-0.18,0.128-0.337,0.292-0.411c8.917-4.025,17.998-21.642,15.066-34.143c-1.657-7.092-1.686-9.805-1.721-12.947
					c-0.03-2.771-0.064-5.912-1.34-12.913c-2.479-13.602-17.585-16.727-19-16.989c-1.126,0.333-11.338,3.637-14.145,14.601
					c-2.372,9.307-13.38,14.608-18.45,16.592c0.49,1.897,0.738,4.11,0.738,6.587c0,6.023-1.418,10.335-4.215,12.816
					c-0.207,0.182-0.523,0.165-0.706-0.042c-0.183-0.207-0.165-0.523,0.042-0.706c2.574-2.283,3.879-6.344,3.879-12.068
					c0-2.581-0.276-4.855-0.821-6.758c-0.043-0.151-0.013-0.314,0.082-0.439c0.072-0.095,0.175-0.161,0.29-0.186
					c4.744-1.812,15.88-6.963,18.193-16.042c3.106-12.135,14.844-15.319,14.962-15.35c0.067-0.018,0.137-0.021,0.205-0.01
					c0.172,0.027,17.215,2.912,19.931,17.816c1.292,7.085,1.326,10.271,1.356,13.082c0.033,3.082,0.063,5.745,1.694,12.729
					c2.772,11.82-5.379,30.385-15.355,35.156c-0.063,1.055-0.213,4.946,0.58,10.125c0.21,1.329,0.439,2.556,0.7,3.744
					c0.016,0.033,0.029,0.069,0.037,0.106c0.688,3.122,1.669,6.195,2.917,9.134c0.108,0.254-0.01,0.548-0.265,0.655
					C186.596,226.904,186.53,226.917,186.464,226.917z"/>
			</g>
			<g>
				<path style="fill:#34468A;" d="M132.771,178.227c-0.869,0-1.444-0.115-1.507-0.128c-0.251-0.052-0.421-0.286-0.395-0.541
					c0.027-0.254,0.241-0.448,0.498-0.448c4.756,0,8.625-6.277,8.625-13.994c0-7.716-3.869-13.994-8.625-13.994
					c-0.256,0-0.471-0.193-0.497-0.448c-0.027-0.254,0.144-0.488,0.394-0.541c0.087-0.018,2.186-0.445,4.615,0.388
					c2.16,0.724,5.029,2.625,6.417,7.564c0.569,1.991,0.858,4.358,0.858,7.031c0,6.023-1.418,10.335-4.215,12.816
					C136.775,177.865,134.311,178.227,132.771,178.227z M135.178,149.348c3.417,2.304,5.813,7.608,5.813,13.768
					c0,6.156-2.394,11.457-5.808,13.764c1.004-0.287,2.09-0.801,3.089-1.694c2.575-2.284,3.88-6.345,3.88-12.069
					c0-2.581-0.276-4.855-0.821-6.758c-1.005-3.578-3.002-5.96-5.775-6.89C135.43,149.424,135.303,149.384,135.178,149.348z"/>
			</g>
			<g>
				<path style="fill:#34468A;" d="M131.367,178.109c-5.3,0-9.612-6.726-9.612-14.994c0-6.481,2.63-12.195,6.544-14.221
					c0.979-0.513,2.012-0.773,3.067-0.773c5.308,0,9.625,6.726,9.625,14.994C140.992,171.383,136.674,178.109,131.367,178.109z
					 M131.367,149.122c-0.893,0-1.769,0.222-2.604,0.659c-0.001,0.001-0.002,0.001-0.003,0.001
					c-3.592,1.857-6.006,7.215-6.006,13.334c0,7.716,3.863,13.994,8.612,13.994c4.756,0,8.625-6.277,8.625-13.994
					C139.992,155.4,136.123,149.122,131.367,149.122z M128.531,149.338h0.01H128.531z"/>
			</g>
			<g>
				<path style="fill:#34468A;" d="M176.349,204.318c-3.721,0-8.842-0.843-15.12-3.535c-10.555-4.525-15.435-11.177-15.638-11.458
					c-0.161-0.224-0.111-0.536,0.113-0.698c0.225-0.161,0.537-0.11,0.698,0.113c0.048,0.066,4.937,6.714,15.221,11.124
					c10.124,4.34,17.72,3.86,20.354,2.476c0.245-0.128,0.547-0.034,0.675,0.21c0.128,0.245,0.034,0.547-0.21,0.675
					C181.375,203.787,179.303,204.318,176.349,204.318z"/>
			</g>
			<g>
				<path style="fill:#34468A;" d="M133.796,173.723c-0.11,0-0.222-0.037-0.314-0.112c-0.214-0.174-0.248-0.489-0.073-0.703
					c2.333-2.877,3.648-6.501,3.703-10.205c0.055-3.704-1.151-7.365-3.396-10.311c-0.167-0.22-0.125-0.533,0.094-0.701
					c0.221-0.169,0.533-0.124,0.701,0.094c2.381,3.122,3.66,7.005,3.602,10.932c-0.059,3.927-1.453,7.77-3.926,10.82
					C134.086,173.659,133.941,173.723,133.796,173.723z"/>
			</g>
			<g>
				<path style="fill:#34468A;" d="M302.07,342.659h-37.921c-0.276,0-0.5-0.224-0.5-0.5c0-0.276,0.224-0.5,0.5-0.5h37.921
					c0.276,0,0.5,0.224,0.5,0.5C302.57,342.436,302.346,342.659,302.07,342.659z"/>
			</g>
			<g>
				<path style="fill:#34468A;" d="M351.641,344.379h-24.935c-0.276,0-0.5-0.224-0.5-0.5c0-0.276,0.224-0.5,0.5-0.5h24.935
					c0.276,0,0.5,0.224,0.5,0.5C352.141,344.155,351.918,344.379,351.641,344.379z"/>
			</g>
			<g>
				<path style="fill:#34468A;" d="M256.031,342.258c-0.122,0-0.243-0.044-0.339-0.133c-1.467-1.352-2.487-3.122-3.474-4.833
					c-1.297-2.248-2.522-4.373-4.645-5.513c-1.708-0.917-3.675-1.012-5.758-1.111c-1.982-0.095-4.032-0.193-5.871-1.06
					c-0.25-0.117-0.357-0.415-0.239-0.665c0.117-0.25,0.414-0.355,0.665-0.239c1.659,0.781,3.521,0.87,5.493,0.965
					c2.102,0.102,4.277,0.206,6.184,1.229c2.374,1.274,3.729,3.623,5.038,5.895c0.95,1.646,1.931,3.348,3.286,4.598
					c0.203,0.186,0.216,0.503,0.029,0.706C256.3,342.204,256.166,342.258,256.031,342.258z"/>
			</g>
			<g>
				<path style="fill:#34468A;" d="M261.906,342.213c-0.168,0-0.332-0.085-0.427-0.238l-9.024-14.698
					c-1.116-1.818-2.172-3.381-3.789-4.076c-1.302-0.559-2.853-0.469-4.22-0.391l-7.788,0.453c-0.291,0.026-0.513-0.194-0.528-0.47
					c-0.016-0.275,0.194-0.513,0.47-0.528l7.789-0.453c1.478-0.086,3.153-0.184,4.673,0.471c1.887,0.81,3.04,2.505,4.247,4.471
					l9.024,14.698c0.145,0.235,0.071,0.543-0.165,0.688C262.085,342.19,261.995,342.213,261.906,342.213z"/>
			</g>
			<g>
				<path style="fill:#34468A;" d="M305.6,352.862c-0.044,0-0.087-0.006-0.131-0.018c-0.267-0.071-0.424-0.346-0.352-0.612
					c0.655-2.43,2.102-4.513,3.502-6.526c1.218-1.753,2.478-3.565,3.166-5.563c0.168-0.486,0.344-1.114,0.213-1.665
					c-0.096-0.406-0.452-0.839-0.863-0.839c-0.006,0-0.013,0-0.018,0c-0.272,0-0.496-0.219-0.5-0.492
					c-0.004-0.275,0.216-0.503,0.492-0.508c0.968-0.018,1.676,0.817,1.862,1.608c0.189,0.802-0.029,1.608-0.241,2.222
					c-0.733,2.128-2.033,3.998-3.29,5.807c-1.413,2.033-2.747,3.954-3.357,6.216C306.023,352.716,305.821,352.862,305.6,352.862z"/>
			</g>
			<g>
				<path style="fill:#34468A;" d="M310.03,356.261c-0.07,0-0.142-0.015-0.21-0.046c-0.25-0.116-0.36-0.413-0.244-0.664
					c0.847-1.83,2.149-3.39,3.409-4.897c1.306-1.563,2.539-3.039,3.325-4.804c1.32-2.958,1.192-6.429,1.079-9.491
					c-0.087-2.364-0.178-4.809-0.815-7.103c-0.074-0.266,0.081-0.542,0.348-0.615c0.267-0.077,0.541,0.081,0.615,0.348
					c0.67,2.407,0.763,4.911,0.852,7.333c0.116,3.171,0.249,6.766-1.165,9.937c-0.844,1.891-2.18,3.49-3.472,5.036
					c-1.218,1.458-2.478,2.966-3.27,4.676C310.4,356.154,310.219,356.261,310.03,356.261z"/>
			</g>
			<g>
				<path style="fill:#34468A;" d="M314.216,356.069c-0.102,0-0.206-0.031-0.295-0.097c-0.223-0.162-0.271-0.476-0.108-0.698
					l4.317-5.91c1.185-1.623,2.412-3.302,3.27-5.138c2.046-4.375,1.96-9.523,1.884-14.064c-0.005-0.276,0.216-0.504,0.491-0.509
					c0.285,0.011,0.504,0.216,0.509,0.491c0.078,4.65,0.166,9.92-1.978,14.505c-0.899,1.923-2.155,3.642-3.37,5.304l-4.317,5.91
					C314.521,355.998,314.369,356.069,314.216,356.069z"/>
			</g>
			<g>
				<path style="fill:#34468A;" d="M83.491,236.392c-0.102,0-0.204-0.031-0.293-0.095c-4.085-2.954-4.484-8.872-2.768-13.192
					c1.622-4.083,4.748-7.297,7.771-10.404l0.684-0.705c3.009-3.107,6.305-6.794,7.338-11.237c0.62-2.666,0.407-5.524,0.2-8.288
					c-0.246-3.296-0.5-6.706,0.629-9.888c1.175-3.312,3.844-6.315,8.162-9.18c1.107-0.735,2.261-1.434,3.376-2.11
					c2.292-1.389,4.662-2.826,6.685-4.61c3.416-3.014,5.237-6.713,4.996-10.148c-0.02-0.275,0.188-0.515,0.463-0.534
					c0.283-0.024,0.515,0.188,0.534,0.463c0.264,3.749-1.68,7.747-5.332,10.969c-2.09,1.844-4.499,3.304-6.828,4.715
					c-1.107,0.671-2.252,1.365-3.342,2.088c-4.13,2.741-6.672,5.581-7.772,8.681c-1.059,2.984-0.823,6.139-0.574,9.479
					c0.211,2.839,0.431,5.774-0.224,8.589c-1.091,4.691-4.492,8.502-7.593,11.706l-0.686,0.706
					c-2.954,3.038-6.009,6.178-7.558,10.076c-1.574,3.96-1.246,9.358,2.424,12.012c0.224,0.162,0.274,0.475,0.112,0.698
					C83.799,236.32,83.646,236.392,83.491,236.392z"/>
			</g>
			<g>
				<path style="fill:#34468A;" d="M129.981,356.073c-6.849,0-12.248-0.112-14.923-0.396c-0.274-0.029-0.474-0.275-0.444-0.55
					c0.029-0.274,0.27-0.475,0.55-0.444c12.046,1.277,79.948-0.961,85.479-1.147c4.353-13.905,0.697-25.413,0.011-27.353
					c-3.421-0.284-33.283-2.815-43.82-5.15c-1.254-0.278-2.526-0.573-3.818-0.874c-10.193-2.368-21.746-5.051-36.136-1.679
					c-0.271,0.069-0.538-0.103-0.601-0.372c-0.063-0.268,0.104-0.538,0.373-0.6c14.618-3.428,26.291-0.716,36.591,1.678
					c1.289,0.3,2.557,0.594,3.808,0.871c11.061,2.45,43.675,5.129,44.003,5.156c0.189,0.016,0.354,0.137,0.424,0.313
					c0.051,0.128,5.051,12.972,0.012,28.651c-0.064,0.2-0.248,0.339-0.459,0.347C200.453,354.543,155.305,356.073,129.981,356.073z"
					/>
			</g>
			<g>
				<path style="fill:#34468A;" d="M130.412,316.887c-0.24,0-0.452-0.173-0.493-0.418l-5.994-35.891
					c-0.045-0.273,0.138-0.529,0.411-0.575c0.272-0.045,0.53,0.138,0.576,0.411l5.994,35.891c0.045,0.272-0.138,0.529-0.411,0.575
					C130.467,316.885,130.439,316.887,130.412,316.887z"/>
			</g>
			<g>
				<path style="fill:#34468A;" d="M233.257,320.151c-0.065,0-0.132-0.014-0.196-0.041c-0.253-0.107-0.371-0.401-0.264-0.655
					c0.02-0.046,1.966-4.804,2.34-19.458c0.375-14.665-16.084-41.417-16.251-41.685c-0.145-0.235-0.073-0.543,0.162-0.689
					c0.235-0.146,0.543-0.073,0.688,0.161c0.685,1.107,16.782,27.274,16.4,42.238c-0.381,14.911-2.337,19.633-2.42,19.826
					C233.635,320.038,233.45,320.151,233.257,320.151z"/>
			</g>
			<g>
				<path style="fill:#34468A;" d="M191.918,354.334c-0.276,0-0.5-0.224-0.5-0.5c-0.008-9.837-1.313-19.64-3.877-29.137
					c-0.072-0.267,0.086-0.541,0.353-0.612c0.264-0.07,0.541,0.085,0.613,0.352c2.587,9.581,3.903,19.471,3.911,29.397
					C192.418,354.109,192.195,354.334,191.918,354.334L191.918,354.334z"/>
			</g>
			<g>
				<path style="fill:#34468A;" d="M278.24,367.087c-0.255,0-0.474-0.194-0.497-0.454c-0.514-5.581-1.649-11.115-3.374-16.447
					c-0.085-0.263,0.059-0.545,0.322-0.63c0.265-0.084,0.544,0.06,0.629,0.321c1.748,5.403,2.898,11.01,3.419,16.664
					c0.025,0.275-0.177,0.518-0.452,0.544C278.27,367.086,278.255,367.087,278.24,367.087z"/>
			</g>
			<g>
				<path style="fill:#34468A;" d="M151.3,319.749c-0.179,0-0.352-0.096-0.441-0.265l-12.693-23.767
					c-0.063-0.116-0.076-0.253-0.038-0.38l4.93-16.367l-15.114-16.052c-0.079-0.085-0.127-0.194-0.135-0.311
					c-0.478-7.366,5.87-30.191,6.14-31.16c0.074-0.266,0.351-0.42,0.616-0.347c0.266,0.074,0.421,0.35,0.347,0.616
					c-0.065,0.233-6.468,23.253-6.115,30.648l15.187,16.129c0.122,0.13,0.166,0.315,0.114,0.487l-4.954,16.446l12.596,23.585
					c0.13,0.243,0.038,0.546-0.206,0.677C151.46,319.731,151.38,319.749,151.3,319.749z"/>
			</g>
			<g>
				<path style="fill:#34468A;" d="M206.972,326.211c-0.041,0-0.083-0.005-0.125-0.016c-0.268-0.068-0.429-0.341-0.36-0.608
					l8.954-34.988l-10.591-12.975c-0.115-0.141-0.144-0.333-0.077-0.502l6.81-17.081c-1.517-6.789-10.899-30.516-10.994-30.756
					c-0.102-0.257,0.024-0.548,0.281-0.649c0.255-0.104,0.547,0.023,0.649,0.28c0.393,0.993,9.647,24.397,11.074,31.063
					c0.021,0.097,0.012,0.197-0.025,0.29l-6.758,16.95l10.564,12.942c0.101,0.123,0.137,0.286,0.097,0.44l-9.017,35.232
					C207.398,326.061,207.195,326.211,206.972,326.211z"/>
			</g>
			<g>
				<path style="fill:#34468A;" d="M271.101,336.886c-0.049,0-0.1-0.008-0.15-0.023c-0.263-0.082-0.41-0.363-0.327-0.626
					l4.806-15.298c0.082-0.264,0.36-0.416,0.627-0.327c0.263,0.082,0.41,0.363,0.327,0.626l-4.806,15.298
					C271.51,336.749,271.314,336.886,271.101,336.886z"/>
			</g>
			<g>
				<path style="fill:#34468A;" d="M274.611,337.675c-0.042,0-0.085-0.005-0.128-0.017c-0.267-0.07-0.426-0.344-0.356-0.611
					l2.072-7.853c0.071-0.267,0.348-0.428,0.611-0.355c0.267,0.07,0.426,0.344,0.356,0.611l-2.072,7.853
					C275.035,337.526,274.832,337.675,274.611,337.675z"/>
			</g>
			<g>
				<path style="fill:#34468A;" d="M157.289,188.334c-1.176,0-2.352-0.031-3.523-0.105c-4.527-0.288-8.332-1.187-11.632-2.747
					c-3.894-1.842-7.039-4.691-8.854-8.024c-0.132-0.243-0.043-0.546,0.2-0.678c0.244-0.133,0.546-0.042,0.678,0.2
					c1.715,3.148,4.7,5.847,8.404,7.598c3.184,1.505,6.87,2.373,11.268,2.653c3.908,0.249,7.899-0.001,11.761-0.242
					c0.289-0.022,0.513,0.192,0.53,0.468c0.017,0.276-0.192,0.513-0.468,0.53C162.91,188.158,160.099,188.334,157.289,188.334z"/>
			</g>
			<ellipse style="fill:#34468A;" cx="161.342" cy="160.15" rx="3.157" ry="4.161"/>
			<ellipse style="fill:#34468A;" cx="187.643" cy="160.15" rx="3.157" ry="4.161"/>
			<g>
				<path style="fill:#34468A;" d="M156.133,155.693c-0.298,0-0.593-0.133-0.79-0.387c-0.338-0.437-0.259-1.065,0.177-1.403
					c2.555-1.982,5.753-3.019,8.976-2.927c0.552,0.016,0.986,0.477,0.97,1.029c-0.016,0.552-0.472,1-1.029,0.97
					c-2.745-0.087-5.534,0.833-7.691,2.508C156.563,155.625,156.347,155.693,156.133,155.693z"/>
			</g>
			<g>
				<path style="fill:#34468A;" d="M193.085,155.085c-0.265,0-0.53-0.105-0.726-0.313c-1.823-1.925-4.596-2.956-7.229-2.686
					c-0.542,0.061-1.04-0.344-1.096-0.894c-0.056-0.549,0.345-1.04,0.894-1.096c3.241-0.327,6.644,0.936,8.883,3.301
					c0.38,0.401,0.362,1.034-0.038,1.414C193.579,154.994,193.332,155.085,193.085,155.085z"/>
			</g>
			<g>
				<path style="fill:#34468A;" d="M175.447,181.037c-0.237,0-0.447-0.168-0.491-0.41c-0.05-0.271,0.13-0.532,0.401-0.582
					c2.691-0.495,5.2-2.15,6.713-4.429c0.602-0.905,0.823-1.653,0.676-2.287c-0.153-0.662-0.723-1.212-1.275-1.744l-0.159-0.154
					c-3.949-3.841-6.133-9.419-5.844-14.921c0.014-0.275,0.234-0.487,0.526-0.473c0.276,0.015,0.487,0.25,0.473,0.526
					c-0.274,5.218,1.797,10.508,5.542,14.152l0.156,0.151c0.626,0.604,1.336,1.289,1.556,2.238c0.212,0.916-0.056,1.919-0.817,3.066
					c-1.684,2.537-4.369,4.308-7.365,4.859C175.507,181.035,175.476,181.037,175.447,181.037z"/>
			</g>
			<g>
				<path style="fill:#34468A;" d="M175.703,187.179c-0.013,0-0.026,0-0.04-0.001c-2.348-0.184-4.663-1.083-6.52-2.533
					c-1.856-1.448-3.291-3.476-4.041-5.71c-0.088-0.262,0.053-0.545,0.315-0.633c0.262-0.088,0.545,0.054,0.633,0.315
					c0.688,2.05,2.004,3.911,3.707,5.24c1.704,1.33,3.829,2.155,5.983,2.324c0.275,0.021,0.481,0.262,0.459,0.538
					C176.18,186.981,175.961,187.179,175.703,187.179z"/>
			</g>
			<path style="fill:#E5A840;" d="M170.277,190.195h-7.348c-0.873,0-1.587-0.714-1.587-1.587v-2.118
				c0-0.873,0.714-1.587,1.587-1.587h7.348c0.873,0,1.587,0.714,1.587,1.587v2.118C171.864,189.481,171.15,190.195,170.277,190.195z
				"/>
			<path style="fill:#99B9FC;" d="M159.514,172.114c0,3.363-2.726,6.089-6.089,6.089c-3.363,0-6.089-2.726-6.089-6.089
				c0-3.363,2.726-6.089,6.089-6.089C156.788,166.026,159.514,168.752,159.514,172.114z"/>
			<g>
				<path style="fill:#34468A;" d="M122.028,252.165c-0.239,0-0.451-0.172-0.492-0.416c-0.822-4.808-2.504-9.371-4.999-13.565
					c-0.141-0.237-0.063-0.544,0.174-0.685c0.237-0.141,0.543-0.064,0.686,0.174c2.558,4.3,4.283,8.979,5.126,13.908
					c0.047,0.271-0.136,0.53-0.408,0.577C122.084,252.163,122.055,252.165,122.028,252.165z"/>
			</g>
			<g>
				<path style="fill:#34468A;" d="M222.068,258.18c-0.093,0-0.187-0.025-0.271-0.08c-0.232-0.15-0.298-0.459-0.148-0.691
					l5.645-8.737c0.149-0.231,0.459-0.3,0.691-0.148c0.232,0.149,0.298,0.459,0.148,0.691l-5.646,8.737
					C222.393,258.099,222.232,258.18,222.068,258.18z"/>
			</g>
			<g>
				<path style="fill:#34468A;" d="M224.498,259.005c-0.148,0-0.294-0.065-0.393-0.19c-0.171-0.217-0.134-0.531,0.082-0.702
					l6.638-5.239c0.217-0.17,0.532-0.133,0.702,0.083c0.171,0.217,0.134,0.531-0.083,0.702l-6.637,5.239
					C224.716,258.97,224.606,259.005,224.498,259.005z"/>
			</g>
			<g>
				<path style="fill:#34468A;" d="M104.812,334.517c-0.101,0-0.203-0.03-0.291-0.094c-0.224-0.162-0.275-0.475-0.114-0.698
					l9.213-12.797c0.161-0.225,0.473-0.275,0.698-0.114c0.224,0.162,0.275,0.475,0.114,0.698l-9.213,12.797
					C105.121,334.444,104.968,334.517,104.812,334.517z"/>
			</g>
			<g>
				<path style="fill:#34468A;" d="M102.073,325.982c-0.162,0-0.321-0.078-0.417-0.224c-0.153-0.229-0.09-0.54,0.14-0.693
					l8.621-5.723c0.23-0.152,0.54-0.09,0.693,0.141c0.153,0.229,0.09,0.54-0.14,0.693l-8.621,5.723
					C102.264,325.954,102.168,325.982,102.073,325.982z"/>
			</g>
		</g>
	</g>
	<g>
		<path style="fill:#FFFFFF;" d="M318.95,148.25c0,26.195-21.239,42.389-47.446,42.389c-7.826,0-15.208-1.441-21.719-4.172h-0.013
			l-22.2,6.233l12.238-11.934c-9.671-7.345-15.752-18.496-15.752-32.516c0-26.207,21.252-42.389,47.446-42.389
			C297.711,105.861,318.95,122.043,318.95,148.25z"/>
		<g>
			<path style="fill:#34468A;" d="M227.572,193.2c-0.175,0-0.342-0.092-0.433-0.25c-0.114-0.198-0.08-0.448,0.084-0.608
				l11.825-11.532c-9.994-7.808-15.491-19.348-15.491-32.56c0-25.253,19.716-42.89,47.946-42.89s47.946,17.637,47.946,42.89
				c0,25.253-19.716,42.89-47.946,42.89c-7.816,0-15.136-1.395-21.756-4.146l-22.04,6.188
				C227.662,193.195,227.617,193.2,227.572,193.2z M271.504,106.36c-27.641,0-46.946,17.226-46.946,41.89
				c0,13.094,5.524,24.5,15.555,32.118c0.116,0.088,0.188,0.222,0.197,0.367c0.009,0.145-0.046,0.287-0.15,0.389l-10.834,10.565
				l20.311-5.703c0.107-0.03,0.238-0.023,0.341,0.021c6.539,2.743,13.781,4.133,21.526,4.133c27.641,0,46.946-17.226,46.946-41.89
				C318.45,123.586,299.145,106.36,271.504,106.36z"/>
		</g>
	</g>
	<g>
		<g>
			<path style="fill:#34468A;" d="M320.471,430.589c-0.174,0-0.343-0.091-0.435-0.254c-0.137-0.24-0.052-0.545,0.189-0.681
				c0.009-0.006,0.922-0.524,2.533-1.551c0.231-0.146,0.541-0.08,0.69,0.153c0.148,0.232,0.08,0.542-0.153,0.69
				c-1.636,1.042-2.54,1.556-2.578,1.577C320.64,430.569,320.555,430.589,320.471,430.589z"/>
		</g>
		<g>
			<path style="fill:#34468A;" d="M328.052,425.646c-0.156,0-0.311-0.074-0.409-0.212c-0.158-0.225-0.104-0.538,0.121-0.697
				c1.605-1.13,3.247-2.333,4.881-3.576c0.221-0.166,0.534-0.124,0.7,0.096c0.168,0.22,0.125,0.533-0.095,0.7
				c-1.644,1.25-3.295,2.461-4.91,3.599C328.253,425.616,328.152,425.646,328.052,425.646z M337.717,418.309
				c-0.146,0-0.289-0.063-0.388-0.184c-0.175-0.214-0.142-0.529,0.072-0.703c1.539-1.252,3.099-2.56,4.635-3.89
				c0.208-0.181,0.524-0.158,0.705,0.051c0.181,0.209,0.158,0.524-0.051,0.705c-1.544,1.336-3.111,2.651-4.658,3.909
				C337.939,418.272,337.828,418.309,337.717,418.309z M346.889,410.371c-0.135,0-0.27-0.055-0.368-0.162
				c-0.187-0.203-0.174-0.52,0.03-0.706c1.468-1.35,2.946-2.749,4.395-4.159c0.197-0.191,0.514-0.188,0.707,0.01
				c0.192,0.197,0.189,0.514-0.01,0.707c-1.454,1.416-2.94,2.822-4.416,4.179C347.132,410.327,347.01,410.371,346.889,410.371z
				 M355.574,401.907c-0.125,0-0.251-0.047-0.348-0.141c-0.198-0.192-0.204-0.509-0.012-0.707c1.402-1.448,2.797-2.931,4.145-4.405
				c0.185-0.204,0.503-0.219,0.706-0.032c0.204,0.186,0.219,0.503,0.032,0.706c-1.355,1.482-2.756,2.972-4.164,4.427
				C355.835,401.857,355.705,401.907,355.574,401.907z M363.752,392.958c-0.116,0-0.233-0.04-0.326-0.121
				c-0.209-0.181-0.232-0.496-0.053-0.705c1.314-1.524,2.621-3.084,3.883-4.636c0.175-0.215,0.49-0.245,0.703-0.072
				c0.214,0.174,0.247,0.489,0.072,0.703c-1.267,1.559-2.58,3.126-3.9,4.657C364.032,392.9,363.892,392.958,363.752,392.958z
				 M371.399,383.552c-0.106,0-0.213-0.033-0.304-0.103c-0.22-0.168-0.261-0.483-0.094-0.701c1.223-1.596,2.435-3.228,3.607-4.853
				c0.161-0.225,0.475-0.276,0.697-0.113c0.225,0.161,0.275,0.474,0.113,0.697c-1.177,1.633-2.395,3.272-3.623,4.876
				C371.698,383.484,371.55,383.552,371.399,383.552z M378.484,373.72c-0.097,0-0.194-0.027-0.28-0.086
				c-0.228-0.155-0.289-0.466-0.134-0.694c1.122-1.657,2.237-3.358,3.314-5.055c0.146-0.232,0.456-0.303,0.689-0.154
				c0.233,0.148,0.303,0.457,0.154,0.69c-1.082,1.705-2.202,3.414-3.33,5.08C378.802,373.643,378.644,373.72,378.484,373.72z
				 M384.977,363.487c-0.087,0-0.175-0.022-0.255-0.07c-0.238-0.141-0.317-0.447-0.175-0.685c1.026-1.729,2.038-3.493,3.007-5.243
				c0.134-0.242,0.437-0.328,0.68-0.195c0.241,0.134,0.329,0.439,0.195,0.68c-0.974,1.759-1.99,3.532-3.022,5.269
				C385.314,363.401,385.147,363.487,384.977,363.487z M390.848,352.889c-0.077,0-0.155-0.018-0.228-0.056
				c-0.246-0.126-0.343-0.428-0.216-0.673c0.919-1.785,1.823-3.606,2.686-5.414c0.119-0.249,0.415-0.353,0.667-0.235
				c0.249,0.119,0.354,0.418,0.235,0.667c-0.867,1.815-1.776,3.646-2.7,5.439C391.204,352.79,391.029,352.889,390.848,352.889z
				 M396.07,341.955c-0.067,0-0.136-0.014-0.202-0.042c-0.252-0.112-0.367-0.407-0.256-0.66c0.809-1.833,1.601-3.706,2.355-5.566
				c0.103-0.256,0.393-0.381,0.65-0.275c0.256,0.104,0.38,0.395,0.275,0.65c-0.758,1.869-1.554,3.752-2.365,5.595
				C396.445,341.844,396.261,341.955,396.07,341.955z M400.621,330.728c-0.058,0-0.116-0.01-0.174-0.031
				c-0.259-0.096-0.391-0.384-0.295-0.643c0.703-1.896,1.38-3.814,2.014-5.697c0.088-0.262,0.372-0.405,0.633-0.314
				c0.262,0.088,0.402,0.371,0.315,0.633c-0.636,1.894-1.316,3.82-2.023,5.727C401.015,330.603,400.824,330.728,400.621,330.728z
				 M404.487,319.247c-0.048,0-0.097-0.007-0.146-0.021c-0.264-0.08-0.413-0.359-0.333-0.624c0.589-1.939,1.15-3.893,1.668-5.807
				c0.073-0.266,0.346-0.423,0.613-0.352c0.267,0.072,0.424,0.347,0.352,0.613c-0.52,1.923-1.084,3.887-1.676,5.836
				C404.9,319.108,404.702,319.247,404.487,319.247z M407.66,307.557c-0.038,0-0.077-0.004-0.116-0.014
				c-0.269-0.064-0.435-0.334-0.37-0.602c0.467-1.944,0.912-3.929,1.323-5.897c0.056-0.271,0.317-0.447,0.592-0.387
				c0.271,0.057,0.443,0.321,0.387,0.592c-0.413,1.978-0.86,3.971-1.329,5.924C408.092,307.402,407.886,307.557,407.66,307.557z
				 M410.14,295.7c-0.029,0-0.059-0.003-0.089-0.008c-0.272-0.049-0.453-0.309-0.404-0.58c0.348-1.944,0.678-3.95,0.98-5.963
				c0.041-0.275,0.3-0.465,0.568-0.42c0.273,0.041,0.461,0.295,0.42,0.568c-0.304,2.022-0.635,4.037-0.984,5.99
				C410.589,295.53,410.378,295.7,410.14,295.7z M411.934,283.722c-0.02,0-0.041-0.001-0.062-0.004
				c-0.273-0.033-0.469-0.282-0.436-0.556c0.239-1.982,0.455-4.004,0.642-6.009c0.026-0.275,0.271-0.464,0.544-0.452
				c0.275,0.025,0.478,0.27,0.452,0.544c-0.188,2.015-0.404,4.046-0.646,6.037C412.399,283.535,412.183,283.722,411.934,283.722z
				 M413.055,271.661c-0.011,0-0.021,0-0.033-0.001c-0.275-0.019-0.483-0.256-0.466-0.532c0.13-1.982,0.236-4.012,0.315-6.035
				c0.011-0.275,0.208-0.488,0.52-0.48c0.276,0.012,0.491,0.244,0.48,0.52c-0.08,2.032-0.187,4.071-0.317,6.062
				C413.537,271.458,413.317,271.661,413.055,271.661z M413.527,259.558c-0.002,0-0.004,0-0.006,0
				c-0.276-0.004-0.498-0.23-0.494-0.506c0.013-1.003,0.02-2.011,0.02-3.024c0-1.013-0.007-2.02-0.02-3.023
				c-0.004-0.275,0.218-0.502,0.494-0.506c0.27-0.034,0.502,0.218,0.506,0.494c0.013,1.007,0.02,2.019,0.02,3.035
				c0,1.018-0.007,2.029-0.02,3.036C414.023,259.338,413.801,259.558,413.527,259.558z M413.371,247.443
				c-0.268,0-0.489-0.211-0.5-0.48c-0.078-2.021-0.185-4.052-0.315-6.034c-0.019-0.275,0.19-0.514,0.466-0.532
				c0.293-0.031,0.514,0.191,0.532,0.466c0.132,1.992,0.238,4.031,0.317,6.061c0.011,0.276-0.205,0.509-0.481,0.52
				C413.384,247.443,413.377,247.443,413.371,247.443z M412.576,235.358c-0.255,0-0.473-0.194-0.497-0.454
				c-0.188-2.017-0.403-4.038-0.643-6.008c-0.033-0.275,0.162-0.524,0.436-0.557c0.267-0.042,0.523,0.162,0.557,0.436
				c0.241,1.98,0.458,4.011,0.646,6.037c0.025,0.274-0.177,0.518-0.452,0.544C412.607,235.357,412.592,235.358,412.576,235.358z
				 M411.121,223.333c-0.243,0-0.456-0.178-0.493-0.426c-0.302-2.013-0.632-4.019-0.98-5.962c-0.049-0.272,0.132-0.532,0.404-0.581
				c0.265-0.052,0.53,0.132,0.58,0.404c0.351,1.954,0.682,3.969,0.984,5.991c0.041,0.273-0.148,0.528-0.42,0.569
				C411.171,223.331,411.146,223.333,411.121,223.333z M408.985,211.41c-0.232,0-0.44-0.162-0.488-0.398
				c-0.412-1.972-0.858-3.955-1.323-5.896c-0.064-0.269,0.102-0.539,0.369-0.603c0.276-0.064,0.54,0.102,0.604,0.37
				c0.468,1.95,0.915,3.943,1.329,5.924c0.057,0.271-0.116,0.536-0.387,0.592C409.053,211.406,409.019,211.41,408.985,211.41z
				 M406.16,199.63c-0.221,0-0.422-0.146-0.482-0.369c-0.522-1.921-1.083-3.875-1.669-5.808c-0.08-0.264,0.069-0.544,0.333-0.624
				c0.269-0.081,0.544,0.069,0.624,0.333c0.589,1.942,1.152,3.905,1.677,5.836c0.072,0.266-0.085,0.541-0.352,0.613
				C406.247,199.625,406.203,199.63,406.16,199.63z M402.64,188.039c-0.209,0-0.403-0.132-0.474-0.34
				c-0.637-1.89-1.313-3.807-2.014-5.697c-0.096-0.259,0.036-0.547,0.295-0.643c0.261-0.098,0.547,0.036,0.643,0.295
				c0.704,1.9,1.385,3.827,2.023,5.725c0.088,0.262-0.053,0.546-0.314,0.634C402.747,188.031,402.693,188.039,402.64,188.039z
				 M398.43,176.68c-0.197,0-0.385-0.118-0.463-0.312c-0.762-1.876-1.554-3.749-2.355-5.566c-0.112-0.252,0.003-0.547,0.255-0.659
				c0.251-0.111,0.549,0.003,0.659,0.255c0.807,1.826,1.603,3.708,2.367,5.594c0.104,0.256-0.02,0.547-0.275,0.651
				C398.556,176.668,398.493,176.68,398.43,176.68z M393.541,165.594c-0.187,0-0.365-0.105-0.451-0.284
				c-0.866-1.813-1.771-3.635-2.687-5.414c-0.127-0.246-0.03-0.547,0.216-0.673c0.246-0.126,0.546-0.03,0.673,0.215
				c0.921,1.788,1.829,3.618,2.7,5.44c0.119,0.249,0.014,0.548-0.235,0.667C393.687,165.578,393.613,165.594,393.541,165.594z
				 M387.992,154.823c-0.176,0-0.346-0.093-0.438-0.258c-0.973-1.755-1.984-3.52-3.008-5.243c-0.142-0.238-0.064-0.544,0.175-0.686
				c0.236-0.14,0.544-0.063,0.684,0.175c1.028,1.732,2.046,3.505,3.023,5.27c0.134,0.241,0.046,0.546-0.195,0.68
				C388.158,154.803,388.074,154.823,387.992,154.823z M381.807,144.402c-0.166,0-0.328-0.082-0.423-0.232
				c-1.079-1.7-2.195-3.401-3.315-5.056c-0.154-0.229-0.095-0.54,0.134-0.694c0.228-0.154,0.539-0.095,0.694,0.134
				c1.126,1.663,2.247,3.372,3.331,5.08c0.148,0.233,0.079,0.542-0.154,0.691C381.991,144.377,381.898,144.402,381.807,144.402z
				 M375.013,134.365c-0.155,0-0.308-0.072-0.405-0.208c-1.174-1.627-2.387-3.261-3.607-4.854c-0.167-0.219-0.126-0.533,0.094-0.701
				c0.219-0.168,0.534-0.127,0.7,0.093c1.227,1.601,2.445,3.242,3.624,4.877c0.162,0.224,0.111,0.537-0.113,0.698
				C375.218,134.334,375.115,134.365,375.013,134.365z M367.642,124.742c-0.145,0-0.289-0.063-0.388-0.185
				c-1.271-1.562-2.576-3.122-3.884-4.636c-0.18-0.209-0.157-0.525,0.053-0.705c0.207-0.179,0.523-0.157,0.705,0.052
				c1.313,1.522,2.626,3.089,3.901,4.659c0.175,0.214,0.142,0.529-0.072,0.704C367.865,124.705,367.754,124.742,367.642,124.742z
				 M359.725,115.56c-0.136,0-0.271-0.055-0.369-0.163c-1.353-1.48-2.747-2.963-4.145-4.406c-0.192-0.198-0.187-0.515,0.012-0.707
				c0.198-0.191,0.516-0.187,0.707,0.012c1.403,1.45,2.805,2.939,4.164,4.427c0.186,0.204,0.172,0.52-0.032,0.706
				C359.967,115.517,359.845,115.56,359.725,115.56z M351.29,106.849c-0.126,0-0.252-0.047-0.349-0.142
				c-1.447-1.41-2.926-2.81-4.395-4.159c-0.204-0.187-0.217-0.503-0.03-0.707c0.188-0.204,0.505-0.216,0.706-0.03
				c1.476,1.355,2.962,2.762,4.416,4.179c0.198,0.192,0.202,0.509,0.01,0.707C351.55,106.799,351.42,106.849,351.29,106.849z
				 M342.359,98.642c-0.116,0-0.232-0.04-0.327-0.122c-1.543-1.335-3.102-2.644-4.636-3.889c-0.214-0.174-0.247-0.489-0.072-0.704
				c0.174-0.214,0.489-0.247,0.703-0.073c1.541,1.252,3.109,2.568,4.659,3.91c0.209,0.181,0.232,0.497,0.051,0.705
				C342.638,98.583,342.499,98.642,342.359,98.642z M332.942,90.991c-0.105,0-0.212-0.033-0.303-0.102
				c-1.635-1.243-3.277-2.446-4.882-3.576c-0.226-0.159-0.279-0.471-0.121-0.697c0.16-0.227,0.472-0.278,0.697-0.121
				c1.613,1.136,3.266,2.347,4.911,3.597c0.22,0.167,0.263,0.48,0.096,0.701C333.242,90.923,333.093,90.991,332.942,90.991z"/>
		</g>
		<g>
			<path style="fill:#34468A;" d="M323.027,84.029c-0.093,0-0.186-0.025-0.269-0.078c-1.61-1.026-2.524-1.544-2.533-1.55
				c-0.24-0.136-0.325-0.441-0.19-0.681c0.136-0.241,0.441-0.324,0.682-0.189c0.038,0.021,0.942,0.534,2.578,1.576
				c0.233,0.148,0.302,0.458,0.153,0.69C323.353,83.948,323.192,84.029,323.027,84.029z"/>
		</g>
	</g>
	<g>
		<circle style="fill:#E5A840;" cx="409.342" cy="204.198" r="32.727"/>
		<g>
			<path style="fill:#FFFFFF;" d="M434.865,208.937c0,0,1.804,0.61,1.774,3.27c-0.027,2.663-2.106,3.549-2.106,3.549l-3.106,0.389
				c0,0,0.915,2.358,0.5,3.77c-0.416,1.415-3.187,2.495-4.934,2.995c-1.747,0.5-8.985,1.137-14.03,0.221
				c-5.048-0.916-8.207-2.771-8.207-2.771l-16.136-0.278l-4.548-22.015l17.357-0.607c0,0,7.097-10.843,7.654-12.423
				c0.398-1.134,3.214-4.114,5.469-6.403c0.981-0.999,1.587-1.756,1.979-3.102l1.891-6.52c4.048-0.332,4.853,2.328,5.104,7.486
				c0.248,5.155-2.497,5.463-4.687,10.645c-2.19,5.185,4.548,5.158,4.548,5.158s7.292,0.057,9.039,0.5
				c1.747,0.443,4.38,2.355,4.437,4.991c0.054,2.633-1.664,3.106-1.664,3.106c2.049,0.58,3.076,2.049,3.16,4.656
				C438.443,208.159,434.865,208.937,434.865,208.937z"/>
			<g>
				<path style="fill:#34468A;" d="M419.066,224.097c-2.105,0-4.299-0.129-6.192-0.473c-4.598-0.835-7.626-2.417-8.254-2.766
					l-16.009-0.276c-0.233-0.004-0.434-0.17-0.48-0.399l-4.548-22.015c-0.03-0.144,0.005-0.294,0.096-0.41
					c0.092-0.116,0.228-0.186,0.376-0.19l17.098-0.599c2.062-3.155,7.029-10.878,7.458-12.098c0.216-0.614,1.029-1.965,5.585-6.588
					c0.976-0.994,1.503-1.68,1.855-2.891l1.891-6.518c0.058-0.199,0.232-0.342,0.439-0.359c1.583-0.126,2.776,0.175,3.64,0.933
					c1.447,1.269,1.84,3.63,2.005,7.027c0.161,3.34-0.881,4.77-2.2,6.58c-0.797,1.095-1.701,2.335-2.524,4.284
					c-0.51,1.206-0.529,2.177-0.058,2.886c1.038,1.561,4.097,1.577,4.143,1.577l0,0c0.306,0.002,7.378,0.063,9.163,0.515
					c1.904,0.482,4.752,2.552,4.815,5.464c0.032,1.589-0.52,2.499-1.057,3.006c1.639,0.816,2.477,2.38,2.553,4.75
					c0.065,2.035-1.686,3.085-2.862,3.56c0.564,0.542,1.16,1.498,1.142,3.116c-0.029,2.955-2.314,3.962-2.41,4.003
					c-0.043,0.018-0.088,0.03-0.134,0.036l-2.497,0.313c0.26,0.841,0.634,2.386,0.309,3.491c-0.528,1.799-3.865,2.932-5.275,3.335
					C425.969,223.722,422.645,224.097,419.066,224.097z M389.029,219.589l15.735,0.271c0.086,0.001,0.17,0.025,0.244,0.069
					c0.031,0.018,3.154,1.823,8.043,2.71c4.893,0.888,12.079,0.282,13.804-0.21c2.527-0.722,4.33-1.765,4.592-2.655
					c0.302-1.024-0.249-2.836-0.486-3.448c-0.056-0.144-0.043-0.305,0.036-0.438c0.079-0.132,0.215-0.221,0.367-0.24l3.026-0.379
					c0.305-0.154,1.728-0.984,1.748-3.067c0.025-2.237-1.38-2.771-1.44-2.793c-0.209-0.076-0.346-0.282-0.331-0.504
					c0.015-0.222,0.172-0.409,0.39-0.456c0.031-0.007,3.171-0.724,3.102-2.879c-0.076-2.372-0.939-3.665-2.796-4.191
					c-0.216-0.061-0.364-0.258-0.363-0.483c0.001-0.224,0.151-0.421,0.367-0.48c0.049-0.015,1.341-0.434,1.296-2.614
					c-0.049-2.288-2.39-4.093-4.061-4.516c-1.669-0.423-8.847-0.484-8.919-0.485c-0.152,0.017-3.631-0.009-4.972-2.021
					c-0.671-1.007-0.682-2.296-0.033-3.831c0.868-2.055,1.809-3.346,2.639-4.484c1.25-1.716,2.153-2.955,2.01-5.943
					c-0.148-3.049-0.489-5.291-1.666-6.324c-0.591-0.518-1.436-0.75-2.558-0.708l-1.792,6.181c-0.411,1.409-1.03,2.221-2.103,3.313
					c-4.071,4.132-5.159,5.662-5.354,6.218c-0.569,1.619-7.415,12.086-7.707,12.531c-0.089,0.136-0.238,0.22-0.4,0.226
					l-16.765,0.587L389.029,219.589z M434.532,215.756h0.01H434.532z"/>
			</g>
			<g>
				<path style="fill:#34468A;" d="M435.2,201.398h-4.936c-0.276,0-0.5-0.224-0.5-0.5s0.224-0.5,0.5-0.5h4.936
					c0.276,0,0.5,0.224,0.5,0.5S435.476,201.398,435.2,201.398z"/>
			</g>
			<g>
				<path style="fill:#34468A;" d="M434.864,209.437h-4.601c-0.276,0-0.5-0.224-0.5-0.5c0-0.276,0.224-0.5,0.5-0.5h4.601
					c0.276,0,0.5,0.224,0.5,0.5C435.364,209.214,435.14,209.437,434.864,209.437z"/>
			</g>
			<g>
				<path style="fill:#34468A;" d="M431.427,216.645h-1.995c-0.276,0-0.5-0.224-0.5-0.5c0-0.276,0.224-0.5,0.5-0.5h1.995
					c0.276,0,0.5,0.224,0.5,0.5C431.927,216.421,431.703,216.645,431.427,216.645z"/>
			</g>
			<polygon style="fill:#E5A840;" points="394.997,194.797 399.766,221.746 384.794,221.746 379.582,195.24 			"/>
			<g>
				<path style="fill:#34468A;" d="M399.765,222.246h-8.87c-0.276,0-0.5-0.224-0.5-0.5c0-0.276,0.224-0.5,0.5-0.5h8.273
					l-4.589-25.937l-7.629,0.22c-0.261-0.007-0.507-0.21-0.515-0.486c-0.008-0.276,0.21-0.506,0.485-0.514l8.06-0.232
					c0.258,0.018,0.464,0.169,0.507,0.413l4.769,26.949c0.026,0.146-0.014,0.295-0.109,0.408
					C400.053,222.18,399.913,222.246,399.765,222.246z"/>
			</g>
		</g>
	</g>
	<g>
		
			<ellipse transform="matrix(0.1618 -0.9868 0.9868 0.1618 200.7687 423.3179)" style="fill:#5B7ADE;" cx="349.581" cy="93.471" rx="32.727" ry="32.727"/>
		<g>
			<path style="fill:#E5A840;" d="M349.486,66.819c-14.209,0-25.739,11.517-25.739,25.726c0,14.209,11.53,25.739,25.739,25.739
				s25.725-11.53,25.725-25.739C375.211,78.336,363.694,66.819,349.486,66.819z M349.551,113.845c-11.766,0-21.3-9.534-21.3-21.3
				c0-11.753,9.534-21.287,21.3-21.287c11.766,0,21.3,9.534,21.3,21.287C370.851,104.311,361.318,113.845,349.551,113.845z"/>
			<path style="fill:#FFFFFF;" d="M349.551,71.258c-11.766,0-21.3,9.534-21.3,21.287c0,11.766,9.534,21.3,21.3,21.3
				c11.766,0,21.3-9.534,21.3-21.3C370.851,80.791,361.318,71.258,349.551,71.258z M349.486,93.398
				c-0.052,0-0.026-0.053,0.079-0.131C349.538,93.359,349.512,93.398,349.486,93.398z"/>
			<g>
				<path style="fill:none;stroke:#34468A;stroke-linecap:round;stroke-linejoin:round;stroke-miterlimit:10;" d="M349.486,66.819
					c-14.209,0-25.739,11.517-25.739,25.726c0,14.209,11.53,25.739,25.739,25.739s25.725-11.53,25.725-25.739
					C375.211,78.336,363.694,66.819,349.486,66.819z"/>
			</g>
			<g>
				<path style="fill:#34468A;" d="M349.486,93.898c-0.215,0-0.432-0.148-0.5-0.352c-0.057-0.171-0.056-0.427,0.276-0.678
					c0.171-0.131,0.406-0.136,0.585-0.014c0.177,0.122,0.257,0.343,0.197,0.55C349.917,93.85,349.611,93.898,349.486,93.898z
					 M349.611,93.329l0.255,0.336L349.611,93.329z M349.564,93.267l0.02,0.026L349.564,93.267z M349.486,92.898
					c-0.236,0-0.378,0.168-0.407,0.245l0.39,0.1L349.486,92.898z"/>
			</g>
			<g>
				<path style="fill:#34468A;" d="M349.486,93.898c-0.215,0-0.432-0.148-0.5-0.352c-0.057-0.171-0.056-0.427,0.276-0.678
					c0.171-0.131,0.406-0.136,0.585-0.014c0.177,0.122,0.257,0.343,0.197,0.55C349.917,93.85,349.611,93.898,349.486,93.898z
					 M349.611,93.329l0.255,0.336c0.044-0.042,0.146-0.238,0.061-0.46L349.611,93.329z M349.486,92.898
					c-0.236,0-0.378,0.168-0.407,0.245l0.39,0.1L349.486,92.898z"/>
			</g>
			<g>
				<path style="fill:#34468A;" d="M349.486,93.898c-0.215,0-0.432-0.148-0.5-0.352c-0.057-0.171-0.056-0.427,0.276-0.678
					c0.171-0.131,0.406-0.136,0.585-0.014c0.177,0.122,0.257,0.343,0.197,0.55C349.917,93.85,349.611,93.898,349.486,93.898z
					 M349.611,93.329l0.255,0.336L349.611,93.329z M349.564,93.267l0.02,0.026L349.564,93.267z M349.486,92.898
					c-0.236,0-0.378,0.168-0.407,0.245l0.39,0.1L349.486,92.898z"/>
			</g>
			<g>
				<path style="fill:#34468A;" d="M349.564,93.767c-0.093,0-0.187-0.026-0.269-0.078c-0.185-0.118-0.272-0.344-0.213-0.556
					c0.313-1.121,0.113-10.93-0.097-17.249c-0.009-0.276,0.207-0.507,0.483-0.516c0.314-0.028,0.508,0.207,0.517,0.483
					c0.047,1.418,0.403,12.485,0.191,16.364c2.373-1.593,7.962-4.983,8.242-5.153c0.235-0.141,0.544-0.068,0.687,0.168
					c0.143,0.236,0.067,0.544-0.169,0.687c-2.243,1.36-8.243,5.041-9.048,5.73C349.797,93.726,349.68,93.767,349.564,93.767z"/>
			</g>
			<g>
				<path style="fill:#34468A;" d="M342.226,113.052c-0.059,0-0.118-0.01-0.176-0.032c-0.143-0.054-14.272-5.518-14.272-19.38
					c0-13.813,9.79-19.306,9.889-19.36c0.245-0.134,0.546-0.041,0.678,0.199c0.133,0.242,0.043,0.546-0.199,0.679
					c-0.093,0.051-9.367,5.283-9.367,18.482c0,13.162,13.487,18.392,13.623,18.444c0.259,0.097,0.39,0.385,0.292,0.644
					C342.619,112.929,342.428,113.052,342.226,113.052z"/>
			</g>
			<g>
				<path style="fill:#34468A;" d="M361.017,110.997c-0.18,0-0.353-0.097-0.442-0.267c-0.129-0.244-0.036-0.546,0.208-0.675
					c0.068-0.036,6.86-3.736,9.149-13.333c0.064-0.269,0.331-0.437,0.603-0.37c0.268,0.064,0.434,0.334,0.37,0.603
					c-2.399,10.058-9.36,13.83-9.655,13.985C361.176,110.979,361.095,110.997,361.017,110.997z"/>
			</g>
			<circle style="fill:#E5A840;" cx="368.379" cy="72.127" r="12.44"/>
			<g>
				<path style="fill:#FFFFFF;" d="M368.118,78.493L368.118,78.493c-0.696,0-1.364-0.277-1.857-0.77l-5.507-5.508
					c-1.026-1.026-1.026-2.689,0-3.714c1.026-1.026,2.689-1.026,3.714,0l3.65,3.65l9.118-9.117c1.025-1.026,2.689-1.026,3.714,0
					c1.026,1.025,1.026,2.689,0,3.714l-10.975,10.975C369.482,78.216,368.814,78.493,368.118,78.493z"/>
			</g>
			<g>
				<g>
					<path style="fill:#34468A;" d="M368.118,78.993c-0.823,0-1.629-0.334-2.211-0.916L360.4,72.57
						c-0.591-0.59-0.916-1.376-0.916-2.211c0-0.835,0.325-1.62,0.916-2.21c1.179-1.182,3.24-1.183,4.421,0l3.297,3.297l8.765-8.764
						c1.18-1.182,3.241-1.181,4.421,0c0.591,0.59,0.916,1.375,0.916,2.21c0,0.835-0.325,1.62-0.916,2.211l-10.976,10.975
						C369.746,78.66,368.94,78.993,368.118,78.993z M362.611,68.233c-0.568,0-1.103,0.221-1.504,0.623
						c-0.402,0.402-0.623,0.936-0.623,1.503c0,0.568,0.221,1.102,0.623,1.504l5.507,5.508c0.79,0.791,2.215,0.792,3.007,0
						l10.976-10.975c0.829-0.829,0.829-2.178,0-3.007c-0.803-0.804-2.204-0.804-3.007,0l-9.118,9.117
						c-0.195,0.195-0.512,0.195-0.707,0l-3.65-3.65C363.713,68.454,363.178,68.233,362.611,68.233z"/>
				</g>
			</g>
		</g>
	</g>
	<g>
		
			<ellipse transform="matrix(0.1986 -0.9801 0.9801 0.1986 23.0954 650.5493)" style="fill:#5B7ADE;" cx="409.342" cy="311.152" rx="32.727" ry="32.727"/>
		<g>
			<path style="fill:#FFFFFF;" d="M382.967,309.165c0,14.357,11.641,23.233,26.004,23.233c4.289,0,23.292-0.022,23.292-0.022
				l-5.922-5.389c5.301-4.026,8.634-10.137,8.634-17.821c0-14.364-11.648-23.233-26.004-23.233
				C394.607,285.932,382.967,294.801,382.967,309.165z"/>
			<g>
				<path style="fill:#34468A;" d="M408.971,332.898c-15.605,0-26.505-9.759-26.505-23.732s10.899-23.733,26.505-23.733
					c15.605,0,26.504,9.76,26.504,23.733c0,7.215-2.963,13.53-8.358,17.851l5.483,4.989c0.152,0.14,0.204,0.357,0.13,0.55
					c-0.075,0.193-0.26,0.32-0.466,0.32C432.264,332.875,413.26,332.898,408.971,332.898z M408.971,286.432
					c-15.017,0-25.505,9.349-25.505,22.733s10.488,22.732,25.505,22.732c3.611,0,17.653-0.016,22.001-0.021l-4.968-4.521
					c-0.109-0.101-0.169-0.244-0.162-0.393c0.006-0.148,0.078-0.286,0.196-0.376c5.44-4.132,8.436-10.319,8.436-17.423
					C434.475,295.78,423.988,286.432,408.971,286.432z"/>
			</g>
		</g>
		<circle style="fill:#E5A840;" cx="408.447" cy="309.037" r="14.496"/>
		<g>
			<path style="fill:#FFFFFF;" d="M408.142,316.456L408.142,316.456c-0.812,0-1.59-0.323-2.164-0.897l-6.418-6.418
				c-1.195-1.195-1.195-3.133,0-4.328c1.196-1.196,3.134-1.196,4.328,0l4.254,4.254l10.625-10.624c1.194-1.195,3.134-1.195,4.328,0
				c1.195,1.195,1.195,3.133,0,4.328l-12.789,12.789C409.732,316.133,408.953,316.456,408.142,316.456z"/>
		</g>
		<g>
			<g>
				<path style="fill:#34468A;" d="M408.142,316.955c-0.939,0-1.857-0.38-2.518-1.043l-6.418-6.418
					c-0.673-0.673-1.043-1.566-1.043-2.518c0-0.951,0.37-1.845,1.043-2.518c1.346-1.346,3.691-1.346,5.035,0l3.9,3.9l10.272-10.271
					c1.341-1.345,3.691-1.347,5.034,0c0.673,0.672,1.044,1.565,1.044,2.517c0,0.952-0.371,1.846-1.044,2.518l-12.789,12.789
					C409.988,316.585,409.093,316.955,408.142,316.955z M401.724,304.416c-0.684,0-1.327,0.267-1.81,0.75
					c-0.998,0.998-0.998,2.623,0,3.621l6.418,6.418c0.957,0.959,2.659,0.96,3.62,0l12.789-12.789
					c0.484-0.483,0.751-1.126,0.751-1.811c0-0.684-0.267-1.326-0.751-1.81c-0.968-0.97-2.654-0.969-3.62,0l-10.625,10.624
					c-0.195,0.195-0.512,0.195-0.707,0l-4.254-4.254C403.052,304.683,402.409,304.416,401.724,304.416z"/>
			</g>
		</g>
	</g>
	<g>
		
			<ellipse transform="matrix(0.2266 -0.974 0.974 0.2266 -132.1598 645.6147)" style="fill:#E5A840;" cx="340.44" cy="406.023" rx="32.727" ry="32.727"/>
		<g>
			<g>
				<g>
					<g>
						<path style="fill:#FFFFFF;" d="M350.605,423.01l2.906,2.906c2.695-2.725,4.713-6.129,5.812-9.818l-3.93-1.159
							c0.723-2.439,0.949-4.984,0.663-7.499l4.066-0.452c-0.467-3.81-1.777-7.559-4.051-10.676l-3.328,2.334
							c-0.632-0.873-1.34-1.732-2.138-2.53c-1.039-1.039-2.153-1.912-3.328-2.665l2.168-3.463
							c-3.253-2.018-7.017-3.283-10.857-3.478l-0.256,4.081c-2.515-0.166-5.059,0.181-7.469,1.024l-1.34-3.87
							c-3.659,1.25-6.957,3.463-9.501,6.309l3.027,2.756c-1.747,1.927-3.027,4.141-3.855,6.475l-3.855-1.355
							c-1.31,3.629-1.611,7.574-0.994,11.353l4.05-0.647c0.392,2.47,1.28,4.864,2.65,7.047l-3.463,2.168
							c2.033,3.298,4.924,5.948,8.267,7.875l2.003-3.569c2.244,1.25,4.683,2.033,7.168,2.289l-0.452,4.096
							c3.81,0.437,7.725-0.135,11.293-1.566l-1.536-3.794C346.6,426.263,348.753,424.862,350.605,423.01z M328.862,417.86
							c-4.578-4.578-4.578-12.016,0-16.594c4.577-4.578,12.016-4.578,16.594,0c4.578,4.577,4.562,12.001-0.015,16.578
							C340.863,422.423,333.439,422.438,328.862,417.86z"/>
					</g>
				</g>
			</g>
			<g>
				<path style="fill:#34468A;" d="M337.1,433.185c-0.867,0-1.732-0.049-2.589-0.146c-0.273-0.031-0.471-0.278-0.44-0.552
					l0.397-3.602c-2.22-0.29-4.376-0.979-6.421-2.054l-1.761,3.14c-0.065,0.116-0.175,0.201-0.304,0.237
					c-0.131,0.035-0.267,0.018-0.383-0.049c-3.536-2.04-6.455-4.822-8.442-8.046c-0.144-0.234-0.072-0.541,0.16-0.686l3.044-1.906
					c-1.165-1.965-1.962-4.084-2.375-6.314l-3.561,0.57c-0.277,0.041-0.527-0.142-0.572-0.413
					c-0.647-3.956-0.296-7.969,1.016-11.604c0.094-0.258,0.376-0.396,0.637-0.302l3.39,1.192c0.82-2.144,1.979-4.091,3.453-5.802
					l-2.662-2.424c-0.202-0.186-0.219-0.499-0.036-0.703c2.637-2.95,5.995-5.18,9.712-6.45c0.261-0.084,0.545,0.05,0.635,0.31
					l1.178,3.402c2.177-0.7,4.423-1.011,6.69-0.917l0.225-3.587c0.017-0.272,0.217-0.505,0.524-0.468
					c3.826,0.195,7.663,1.424,11.096,3.553c0.113,0.07,0.193,0.183,0.224,0.311c0.03,0.13,0.007,0.266-0.063,0.379l-1.909,3.048
					c1.102,0.741,2.086,1.55,2.998,2.462c0.651,0.651,1.288,1.388,1.896,2.193l2.929-2.054c0.222-0.157,0.531-0.105,0.691,0.114
					c2.206,3.026,3.639,6.799,4.143,10.91c0.017,0.132-0.021,0.266-0.104,0.371c-0.083,0.104-0.204,0.172-0.337,0.186l-3.575,0.397
					c0.198,2.259-0.001,4.513-0.594,6.716l3.456,1.021c0.127,0.037,0.234,0.124,0.298,0.241c0.064,0.116,0.078,0.254,0.04,0.381
					c-1.122,3.768-3.175,7.234-5.935,10.026c-0.094,0.095-0.221,0.148-0.355,0.148h-0.001c-0.133,0-0.26-0.053-0.353-0.146
					l-2.557-2.557c-1.663,1.582-3.552,2.837-5.627,3.738l1.352,3.337c0.05,0.123,0.048,0.261-0.004,0.384
					c-0.052,0.122-0.15,0.219-0.274,0.268C343.169,432.594,340.119,433.185,337.1,433.185z M335.121,432.095
					c3.356,0.308,6.828-0.176,10.088-1.401l-1.347-3.325c-0.05-0.123-0.048-0.261,0.004-0.383c0.052-0.122,0.149-0.219,0.272-0.269
					c2.284-0.922,4.341-2.288,6.113-4.06c0.195-0.195,0.512-0.195,0.707,0l2.547,2.547c2.355-2.489,4.139-5.503,5.189-8.769
					l-3.443-1.017c-0.127-0.037-0.234-0.124-0.298-0.24c-0.064-0.117-0.078-0.254-0.04-0.381c0.707-2.388,0.924-4.844,0.644-7.3
					c-0.015-0.132,0.023-0.265,0.106-0.368c0.083-0.104,0.203-0.171,0.335-0.186l3.56-0.396c-0.509-3.568-1.749-6.848-3.608-9.54
					l-2.921,2.048c-0.222,0.156-0.532,0.107-0.692-0.116c-0.665-0.919-1.367-1.75-2.086-2.469c-0.973-0.973-2.034-1.823-3.244-2.599
					c-0.231-0.147-0.3-0.454-0.154-0.686l1.899-3.032c-3.028-1.792-6.36-2.861-9.696-3.113l-0.225,3.582
					c-0.009,0.133-0.069,0.257-0.169,0.345c-0.1,0.087-0.219,0.131-0.363,0.123c-2.464-0.16-4.913,0.173-7.271,0.996
					c-0.126,0.043-0.264,0.037-0.383-0.021c-0.119-0.058-0.211-0.161-0.255-0.286l-1.175-3.395
					c-3.215,1.182-6.131,3.119-8.486,5.638l2.656,2.418c0.203,0.186,0.219,0.502,0.033,0.706c-1.652,1.822-2.915,3.944-3.755,6.306
					c-0.092,0.26-0.376,0.397-0.637,0.305l-3.381-1.189c-1.068,3.199-1.372,6.685-0.883,10.143l3.553-0.568
					c0.131-0.02,0.266,0.012,0.373,0.09c0.108,0.077,0.179,0.195,0.2,0.326c0.387,2.44,1.255,4.748,2.58,6.859
					c0.07,0.112,0.093,0.248,0.064,0.377c-0.029,0.13-0.109,0.242-0.222,0.313l-3.037,1.902c1.806,2.774,4.345,5.189,7.39,7.027
					l1.751-3.123c0.135-0.241,0.438-0.326,0.68-0.191c2.208,1.229,4.555,1.978,6.976,2.228c0.133,0.014,0.255,0.079,0.338,0.183
					c0.084,0.104,0.123,0.237,0.108,0.369L335.121,432.095z"/>
			</g>
			<path style="fill:#5B7ADE;" d="M364.154,399.803c-0.816,0.816-1.792,1.473-2.844,1.924c-1.051,0.469-2.196,0.713-3.369,0.76
				l-3.181,0.084c-1.098,0.047-2.14,0.488-2.909,1.258l-17.193,17.193c-2.112-0.46-4.139-1.511-5.791-3.163
				c-1.652-1.652-2.712-3.669-3.163-5.79l17.193-17.193c0.77-0.77,1.22-1.802,1.267-2.9l0.084-3.182
				c0.038-1.182,0.291-2.318,0.751-3.379c0.45-1.051,1.107-2.027,1.924-2.844c1.774-1.774,4.195-2.731,6.691-2.675l2.618,0.047
				c0.648,0.01,1.014,0.77,0.619,1.295l-2.656,3.538c-0.328,0.441-0.572,0.967-0.713,1.502l-0.601,2.365
				c-0.375,1.464,0.047,3.013,1.117,4.082c1.07,1.07,2.618,1.492,4.082,1.117l2.365-0.601c0.544-0.131,1.061-0.385,1.502-0.713
				l3.548-2.646c0.516-0.404,1.276-0.038,1.295,0.619l0.047,2.618C366.895,395.618,365.928,398.03,364.154,399.803z"/>
			<g>
				<path style="fill:#34468A;" d="M337.135,421.786c-3.26,0-6.323-1.269-8.627-3.572c-2.309-2.309-3.58-5.381-3.58-8.65
					c0-3.271,1.271-6.343,3.58-8.65c2.752-2.752,6.694-4.03,10.553-3.433c0.273,0.043,0.46,0.299,0.417,0.571
					c-0.044,0.273-0.303,0.452-0.571,0.417c-3.545-0.553-7.164,0.624-9.691,3.151c-2.12,2.119-3.287,4.94-3.287,7.943
					c0,3.003,1.167,5.823,3.287,7.943c2.115,2.114,4.928,3.279,7.92,3.279c0.006,0,0.01,0,0.015,0
					c2.998-0.004,5.816-1.174,7.937-3.295c2.485-2.485,3.651-5.91,3.201-9.397c-0.035-0.274,0.158-0.525,0.432-0.561
					c0.28-0.035,0.524,0.158,0.561,0.432c0.49,3.798-0.78,7.527-3.486,10.233c-2.309,2.31-5.378,3.583-8.642,3.588
					C337.146,421.786,337.141,421.786,337.135,421.786z"/>
			</g>
			<g>
				<path style="fill:#34468A;" d="M326.227,414.585c-0.134,0-0.267-0.053-0.365-0.158c-0.189-0.201-0.178-0.518,0.023-0.707
					l19.381-18.164c0.202-0.186,0.518-0.179,0.707,0.023c0.189,0.201,0.178,0.518-0.023,0.707l-19.381,18.164
					C326.473,414.54,326.35,414.585,326.227,414.585z"/>
			</g>
		</g>
	</g>
	<rect x="58.208" y="75.867" style="fill:#E5A840;" width="102.683" height="8.7"/>
	<g>
		<g>
			<path style="fill:#34468A;" d="M296.935,234.834c-0.128,0-0.256-0.049-0.354-0.146c-0.195-0.195-0.195-0.512,0-0.707
				l36.165-36.165c0.195-0.195,0.512-0.195,0.707,0s0.195,0.512,0,0.707l-36.165,36.165
				C297.191,234.785,297.063,234.834,296.935,234.834z"/>
		</g>
		<g>
			<path style="fill:#34468A;" d="M296.189,223.501c-0.128,0-0.256-0.049-0.354-0.146c-0.195-0.195-0.195-0.512,0-0.707
				l22.396-22.396c0.195-0.195,0.512-0.195,0.707,0c0.195,0.195,0.195,0.512,0,0.707l-22.396,22.396
				C296.445,223.452,296.317,223.501,296.189,223.501z"/>
		</g>
		<g>
			<path style="fill:#34468A;" d="M307.52,235.755c-0.128,0-0.256-0.049-0.354-0.146c-0.195-0.195-0.195-0.512,0-0.707
				l23.319-23.319c0.195-0.195,0.512-0.195,0.707,0c0.195,0.195,0.195,0.512,0,0.707l-23.319,23.319
				C307.776,235.706,307.648,235.755,307.52,235.755z"/>
		</g>
	</g>
	<g>
		<g>
			<path style="fill:#34468A;" d="M50.271,372.875c-0.128,0-0.256-0.049-0.354-0.146c-0.195-0.195-0.195-0.512,0-0.707
				l36.165-36.165c0.195-0.195,0.512-0.195,0.707,0c0.195,0.195,0.195,0.512,0,0.707l-36.165,36.165
				C50.527,372.826,50.399,372.875,50.271,372.875z"/>
		</g>
		<g>
			<path style="fill:#34468A;" d="M49.525,361.541c-0.128,0-0.256-0.049-0.354-0.146c-0.195-0.195-0.195-0.512,0-0.707
				l22.396-22.395c0.195-0.195,0.512-0.195,0.707,0c0.195,0.195,0.195,0.512,0,0.707l-22.396,22.396
				C49.781,361.492,49.653,361.541,49.525,361.541z"/>
		</g>
		<g>
			<path style="fill:#34468A;" d="M60.856,373.796c-0.128,0-0.256-0.049-0.354-0.146c-0.195-0.195-0.195-0.512,0-0.707l23.32-23.319
				c0.195-0.195,0.512-0.195,0.707,0c0.195,0.195,0.195,0.512,0,0.707l-23.32,23.319C61.112,373.747,60.984,373.796,60.856,373.796z
				"/>
		</g>
	</g>
	<g>
		<path style="fill:#E5A840;" d="M81.606,409.487l3.193,5.436l-7.609,3.536l7.609,3.464l-3.193,5.503l-6.861-4.827l0.816,8.291
			h-6.319l0.813-8.291l-6.861,4.827l-3.193-5.503l7.609-3.464l-7.609-3.536l3.193-5.436l6.861,4.827l-0.813-8.291h6.319
			l-0.816,8.224L81.606,409.487z"/>
	</g>
	<g>
		<g>
			<g>
				<g>
					<path style="fill:#FFFFFF;" d="M75.724,203.801l3.236,3.236c3.001-3.034,5.247-6.823,6.471-10.931l-4.376-1.291
						c0.805-2.716,1.056-5.549,0.738-8.349l4.526-0.503c-0.52-4.242-1.978-8.416-4.51-11.886l-3.705,2.599
						c-0.704-0.972-1.492-1.928-2.381-2.816c-1.157-1.157-2.397-2.129-3.705-2.967l2.414-3.856
						c-3.621-2.246-7.812-3.654-12.087-3.873l-0.285,4.543c-2.8-0.184-5.633,0.201-8.315,1.14l-1.492-4.309
						c-4.074,1.391-7.745,3.856-10.578,7.024l3.37,3.068c-1.945,2.146-3.37,4.61-4.292,7.209l-4.292-1.509
						c-1.458,4.04-1.794,8.433-1.106,12.641l4.51-0.721c0.436,2.749,1.425,5.415,2.951,7.846l-3.856,2.414
						c2.263,3.672,5.482,6.622,9.204,8.768l2.23-3.973c2.498,1.391,5.214,2.263,7.98,2.548l-0.503,4.56
						c4.242,0.486,8.6-0.151,12.574-1.743l-1.71-4.225C71.264,207.422,73.662,205.863,75.724,203.801z M51.516,198.067
						c-5.097-5.096-5.097-13.378,0-18.475c5.096-5.096,13.378-5.096,18.475,0c5.097,5.096,5.08,13.361-0.017,18.458
						C64.877,203.147,56.612,203.164,51.516,198.067z"/>
				</g>
			</g>
		</g>
		<g>
			<g>
				<g>
					<g>
						<path style="fill:#34468A;" d="M60.687,215.073c-0.963,0-1.923-0.054-2.875-0.164c-0.273-0.031-0.47-0.278-0.44-0.551
							l0.448-4.065c-2.503-0.32-4.932-1.097-7.233-2.314l-1.989,3.543c-0.065,0.117-0.175,0.202-0.304,0.237
							c-0.129,0.036-0.267,0.018-0.382-0.049c-3.927-2.264-7.17-5.355-9.38-8.939c-0.144-0.234-0.072-0.54,0.161-0.686l3.437-2.151
							c-1.318-2.21-2.217-4.599-2.676-7.113l-4.021,0.643c-0.276,0.045-0.528-0.142-0.573-0.413
							c-0.718-4.396-0.328-8.854,1.13-12.891c0.094-0.258,0.378-0.393,0.636-0.302l3.827,1.345c0.917-2.415,2.223-4.609,3.89-6.536
							l-3.005-2.736c-0.203-0.185-0.219-0.498-0.036-0.703c2.93-3.276,6.661-5.754,10.79-7.164c0.26-0.088,0.544,0.049,0.634,0.31
							l1.33,3.84c2.45-0.796,4.979-1.146,7.537-1.034l0.254-4.048c0.017-0.273,0.252-0.48,0.524-0.468
							c4.25,0.217,8.513,1.582,12.326,3.947c0.113,0.07,0.193,0.182,0.223,0.312c0.03,0.13,0.007,0.266-0.063,0.378l-2.154,3.441
							c1.243,0.832,2.351,1.739,3.375,2.764c0.734,0.735,1.453,1.567,2.139,2.48l3.306-2.318c0.224-0.156,0.531-0.105,0.691,0.115
							c2.451,3.359,4.042,7.55,4.602,12.12c0.017,0.133-0.021,0.267-0.104,0.371c-0.083,0.105-0.204,0.172-0.337,0.187l-4.034,0.448
							c0.23,2.545,0.005,5.086-0.669,7.567l3.901,1.15c0.127,0.038,0.234,0.124,0.298,0.241c0.063,0.117,0.078,0.254,0.04,0.381
							c-1.247,4.186-3.527,8.039-6.595,11.14c-0.094,0.095-0.221,0.148-0.354,0.148c0,0-0.001,0-0.001,0
							c-0.133,0-0.26-0.053-0.354-0.146l-2.886-2.886c-1.869,1.787-3.997,3.202-6.338,4.211l1.524,3.766
							c0.05,0.123,0.049,0.261-0.003,0.383c-0.052,0.123-0.15,0.219-0.274,0.268C67.429,214.416,64.04,215.073,60.687,215.073z
							 M58.422,213.967c3.785,0.354,7.696-0.188,11.368-1.58l-1.52-3.755c-0.05-0.123-0.049-0.261,0.003-0.383
							c0.052-0.122,0.15-0.219,0.273-0.268c2.55-1.03,4.847-2.556,6.825-4.534c0.195-0.195,0.512-0.195,0.707,0l2.877,2.876
							c2.661-2.8,4.672-6.198,5.85-9.882l-3.89-1.147c-0.127-0.038-0.234-0.124-0.298-0.241c-0.063-0.117-0.078-0.253-0.04-0.381
							c0.79-2.666,1.032-5.408,0.721-8.15c-0.015-0.132,0.023-0.265,0.106-0.369c0.083-0.104,0.204-0.171,0.335-0.185l4.019-0.446
							c-0.566-4.026-1.964-7.724-4.067-10.751l-3.298,2.313c-0.225,0.158-0.532,0.105-0.692-0.116
							c-0.744-1.026-1.527-1.954-2.329-2.756c-1.085-1.085-2.27-2.034-3.621-2.9c-0.231-0.148-0.3-0.454-0.154-0.686l2.145-3.427
							c-3.409-2.027-7.167-3.233-10.927-3.507l-0.254,4.045c-0.008,0.133-0.069,0.256-0.169,0.344
							c-0.1,0.088-0.233,0.13-0.363,0.124c-2.758-0.182-5.489,0.193-8.117,1.113c-0.124,0.045-0.262,0.037-0.383-0.021
							c-0.12-0.058-0.211-0.161-0.255-0.287l-1.327-3.833c-3.626,1.323-6.915,3.507-9.565,6.353l3,2.731
							c0.204,0.186,0.219,0.501,0.034,0.706c-1.847,2.038-3.256,4.407-4.191,7.04c-0.092,0.26-0.376,0.396-0.637,0.305l-3.819-1.343
							c-1.213,3.601-1.556,7.531-0.996,11.43l4.013-0.642c0.131-0.022,0.265,0.011,0.373,0.089c0.107,0.078,0.18,0.195,0.2,0.327
							c0.433,2.725,1.401,5.302,2.88,7.659c0.071,0.112,0.094,0.248,0.064,0.378c-0.03,0.129-0.109,0.242-0.222,0.312l-3.43,2.147
							c2.028,3.133,4.892,5.857,8.327,7.92l1.98-3.528c0.135-0.241,0.44-0.326,0.679-0.192c2.464,1.373,5.084,2.21,7.788,2.488
							c0.132,0.014,0.254,0.08,0.338,0.184c0.083,0.104,0.123,0.236,0.108,0.369L58.422,213.967z M60.728,202.382
							c-3.615,0-7.011-1.406-9.566-3.961c-5.288-5.288-5.288-13.893,0-19.182c5.289-5.288,13.894-5.288,19.182,0
							c5.279,5.28,5.271,13.877-0.017,19.165c-2.56,2.56-5.963,3.973-9.582,3.977C60.739,202.382,60.734,202.382,60.728,202.382z
							 M60.753,176.272c-3.218,0-6.435,1.225-8.884,3.674c-4.898,4.899-4.898,12.869,0,17.768c2.366,2.365,5.511,3.667,8.859,3.668
							c0.006,0,0.011,0,0.016-0.001c3.352-0.004,6.504-1.313,8.876-3.684c4.898-4.898,4.906-12.861,0.017-17.751
							C67.188,177.497,63.97,176.272,60.753,176.272z"/>
					</g>
				</g>
			</g>
		</g>
		<g>
			<g>
				<g>
					<path style="fill:#5B7ADE;" d="M95.778,163.302l1.858,1.858c1.723-1.742,3.013-3.918,3.716-6.277l-2.512-0.741
						c0.462-1.56,0.606-3.186,0.424-4.794l2.599-0.289c-0.298-2.436-1.136-4.832-2.59-6.825l-2.127,1.492
						c-0.404-0.558-0.857-1.107-1.367-1.617c-0.664-0.664-1.377-1.223-2.128-1.704l1.386-2.214c-2.079-1.29-4.486-2.098-6.941-2.224
						l-0.164,2.609c-1.608-0.106-3.235,0.115-4.775,0.655l-0.857-2.474c-2.339,0.799-4.447,2.214-6.074,4.033l1.935,1.762
						c-1.117,1.232-1.935,2.647-2.464,4.139l-2.464-0.866c-0.838,2.32-1.03,4.842-0.635,7.258l2.589-0.414
						c0.25,1.579,0.818,3.109,1.694,4.505l-2.214,1.386c1.3,2.108,3.148,3.802,5.285,5.035l1.28-2.282
						c1.434,0.799,2.994,1.3,4.582,1.463l-0.289,2.618c2.436,0.279,4.938-0.087,7.22-1.001l-0.982-2.426
						C93.217,165.381,94.593,164.486,95.778,163.302z M81.877,160.01c-2.927-2.926-2.927-7.682,0-10.608
						c2.926-2.926,7.682-2.926,10.608,0c2.926,2.926,2.917,7.672-0.01,10.599C89.549,162.927,84.803,162.936,81.877,160.01z"/>
				</g>
			</g>
		</g>
		<g>
			<g>
				<g>
					<path style="fill:#E5A840;" d="M59.985,150.069l1.399,1.399c1.298-1.312,2.269-2.951,2.799-4.727l-1.892-0.558
						c0.348-1.175,0.457-2.4,0.319-3.611l1.958-0.217c-0.225-1.834-0.856-3.64-1.95-5.141l-1.602,1.124
						c-0.304-0.421-0.645-0.834-1.03-1.218c-0.5-0.5-1.037-0.921-1.602-1.283l1.044-1.668c-1.566-0.972-3.379-1.581-5.228-1.675
						l-0.123,1.965c-1.211-0.08-2.436,0.087-3.596,0.493l-0.645-1.863c-1.762,0.602-3.35,1.668-4.575,3.038l1.457,1.327
						c-0.841,0.928-1.457,1.994-1.856,3.118l-1.856-0.652c-0.631,1.747-0.776,3.647-0.479,5.467l1.95-0.312
						c0.188,1.189,0.616,2.342,1.276,3.393l-1.668,1.044c0.979,1.588,2.371,2.864,3.981,3.792l0.964-1.718
						c1.08,0.602,2.255,0.979,3.451,1.102l-0.217,1.972c1.834,0.21,3.72-0.065,5.438-0.754l-0.74-1.827
						C58.056,151.635,59.093,150.961,59.985,150.069z M49.515,147.589c-2.204-2.204-2.204-5.786,0-7.99
						c2.204-2.204,5.786-2.204,7.99,0c2.204,2.204,2.197,5.779-0.007,7.983C55.294,149.786,51.719,149.793,49.515,147.589z"/>
				</g>
			</g>
		</g>
	</g>
</g>
<g id="TEXTS">
	
		<text transform="matrix(1 0 0 1 396.4897 69.4993)" style="fill:#34468A; font-family:'ArchivoBlack-Regular'; font-size:15.7385px;">QUICK SERVICE</text>
	<rect x="396.49" y="83.555" style="fill:none;" width="154.438" height="49.313"/>
	<text transform="matrix(1 0 0 1 396.4897 90.8475)"><tspan x="0" y="0" style="fill:#34468A; font-family:'Montserrat-Medium'; font-size:9.8286px;">Lorem ipsum dolor sit amet, </tspan><tspan x="0" y="11.794" style="fill:#34468A; font-family:'Montserrat-Medium'; font-size:9.8286px;">consectetuer adipiscing elit.</tspan></text>
	
		<text transform="matrix(1 0 0 1 458.0766 191.1868)" style="fill:#34468A; font-family:'ArchivoBlack-Regular'; font-size:15.7907px;">BEST QUALITY</text>
	<rect x="458.076" y="205.242" style="fill:none;" width="154.438" height="49.313"/>
	<text transform="matrix(1 0 0 1 458.0756 212.535)"><tspan x="0" y="0" style="fill:#34468A; font-family:'Montserrat-Medium'; font-size:9.8286px;">Lorem ipsum dolor sit amet, </tspan><tspan x="0" y="11.794" style="fill:#34468A; font-family:'Montserrat-Medium'; font-size:9.8286px;">consectetuer adipiscing elit.</tspan></text>
	
		<text transform="matrix(1 0 0 1 447.2172 305.8441)" style="fill:#34468A; font-family:'ArchivoBlack-Regular'; font-size:15.7907px;">COMMUNICATION</text>
	<rect x="447.216" y="319.901" style="fill:none;" width="154.438" height="49.314"/>
	<text transform="matrix(1 0 0 1 447.2162 327.1932)"><tspan x="0" y="0" style="fill:#34468A; font-family:'Montserrat-Medium'; font-size:9.8286px;">Lorem ipsum dolor sit amet, </tspan><tspan x="0" y="11.795" style="fill:#34468A; font-family:'Montserrat-Medium'; font-size:9.8286px;">consectetuer adipiscing elit.</tspan></text>
	
		<text transform="matrix(1 0 0 1 390.8383 407.0663)" style="fill:#34468A; font-family:'ArchivoBlack-Regular'; font-size:15.7907px;">PROBLEM SOLVING</text>
	<rect x="390.838" y="421.122" style="fill:none;" width="154.438" height="49.314"/>
	<text transform="matrix(1 0 0 1 390.8383 428.4149)"><tspan x="0" y="0" style="fill:#34468A; font-family:'Montserrat-Medium'; font-size:9.8286px;">Lorem ipsum dolor sit amet, </tspan><tspan x="0" y="11.794" style="fill:#34468A; font-family:'Montserrat-Medium'; font-size:9.8286px;">consectetuer adipiscing elit.</tspan></text>
	<rect x="232.952" y="131.517" style="fill:none;" width="77.103" height="42.016"/>
	<text transform="matrix(1 0 0 1 238.2197 138.8094)"><tspan x="0" y="0" style="fill:#34468A; font-family:'Montserrat-Medium'; font-size:9.8286px;">Lorem ipsum </tspan><tspan x="-2.496" y="11.794" style="fill:#34468A; font-family:'Montserrat-Medium'; font-size:9.8286px;">dolor sit amet, </tspan><tspan x="-0.806" y="23.589" style="fill:#34468A; font-family:'Montserrat-Medium'; font-size:9.8286px;">consectetuer.</tspan></text>
	<g>
		
			<text transform="matrix(1 0 0 1 54.5653 66.8197)" style="fill:#34468A; font-family:'ArchivoBlack-Regular'; font-size:27.0877px;">OUR SERVICE</text>
	</g>
	<g>
		<rect x="90.513" y="407.602" style="fill:none;" width="192.078" height="23.997"/>
		<text transform="matrix(1 0 0 1 90.5126 414.2791)"><tspan x="0" y="0" style="fill:#34468A; font-family:'Montserrat-Medium'; font-size:9px;">Lorem ipsum dolor sit amet, consectetuer </tspan><tspan x="0" y="10.8" style="fill:#34468A; font-family:'Montserrat-Medium'; font-size:9px;">adipiscing elit.</tspan></text>
	</g>
</g>
</svg>
